<svg viewBox="0 0 339 340" fill="none" xmlns="http://www.w3.org/2000/svg">
<path d="M62.3723 88.088C68.6949 93.9912 76.047 92.7838 81.5408 86.8998C86.4885 81.6006 87.8642 74.2659 82.8793 69.2012L77.0103 75.4872C78.2284 76.9666 78.1719 79.4449 76.0222 81.7473C73.9749 83.9401 70.9117 84.3636 68.2072 81.8385C65.5393 79.3476 65.7884 76.2967 67.8358 74.1039C69.9855 71.8015 72.4541 71.5753 74.0135 72.6892L79.8825 66.4032C74.4882 61.7771 67.265 63.6521 62.3172 68.9514C56.8235 74.8354 56.0863 82.2189 62.3723 88.088Z" fill="white"/>
<path d="M92.2008 49.9381L102.346 68.2677L109.871 64.1029L101.275 48.5731L112.474 42.3745L108.817 35.7688L93.9876 43.9772C91.4941 45.3574 90.8206 47.4446 92.2008 49.9381Z" fill="white"/>
<path d="M130.631 40.7372C132.134 48.493 138.355 52.7373 146.749 51.111C154.406 49.6275 158.534 44.9062 158.156 39.2753L149.811 40.8921C149.691 42.9016 148.124 44.2748 145.522 44.7788C142.479 45.3684 140.329 44.0022 139.436 40.9668L157.745 37.4195L157.317 35.2106C155.805 27.4057 149.944 23.703 141.354 25.3672C133.647 26.8603 129.081 32.736 130.631 40.7372ZM138.599 36.6471C138.263 33.8602 139.882 31.9676 142.778 31.4065C145.724 30.8359 147.933 31.9867 148.711 34.688L138.599 36.6471Z" fill="white"/>
<path d="M171.491 40.8155C171.172 43.3959 171.924 48.3251 179.864 49.305C186.91 50.1746 189.727 46.9453 191.172 42.9925L193.256 43.2497L191.543 46.1114L191.512 46.3595C191.212 48.7911 192.48 50.3582 194.911 50.6582L200.668 51.3686L201.592 43.8755L197.97 43.4284L198.925 35.6871C199.819 28.4421 193.953 24.5442 187.005 23.6868C180.108 22.8356 174.127 25.5737 173.164 32.1552L181.153 33.1412C181.528 30.9204 183.424 29.8445 186.501 30.2242C189.379 30.5794 190.739 31.8053 190.414 34.4353L182.668 34.3358C174.879 34.1805 172.029 36.4486 171.491 40.8155ZM180.005 40.4053C180.176 39.0158 181.448 38.9208 183.724 38.849L189.888 38.7029C189.514 41.73 186.403 43.2605 182.88 42.8256C181.243 42.6236 179.803 42.0428 180.005 40.4053Z" fill="white"/>
<path d="M235.342 58.2583L226.804 54.3258L231.142 45.0388L238.752 48.5935L241.947 41.7528L234.337 38.1981L237.383 31.6746L228.494 30.5028L226.59 34.58L221.063 31.9986L217.868 38.8392L223.395 41.4206L217.745 53.5163C216.539 56.0986 217.288 58.1589 219.825 59.3438L232.147 65.099L235.342 58.2583Z" fill="white"/>
<path d="M244.672 73.8949L260.862 89.0111L266.015 83.4926L260.788 78.6131L270.036 68.7089C271.946 66.6623 271.732 64.5471 269.722 62.6704L262.596 56.0165L257.443 61.535L261.975 65.7662L255.014 73.2217L249.824 68.3763L244.672 73.8949ZM270.357 54.3706C268.344 56.5268 268.848 58.8444 271.078 60.9258C273.307 63.0073 275.763 63.4537 277.776 61.2974C279.756 59.1777 279.176 56.7213 276.947 54.6398C274.717 52.5583 272.337 52.2509 270.357 54.3706Z" fill="white"/>
<path d="M301.562 105.393L278.668 111.836L277.627 109.955L295.218 93.9319L291.053 86.4076L271.92 104.084L280.516 119.614L305.63 112.743L301.562 105.393Z" fill="white"/>
<path d="M286.757 136.401L290.97 158.147L298.382 156.711L297.022 149.691L310.325 147.114C313.074 146.581 314.144 144.744 313.621 142.045L311.766 132.473L304.354 133.909L305.533 139.995L295.52 141.935L294.169 134.965L286.757 136.401ZM319.013 135.703C316.117 136.264 315.162 138.435 315.743 141.43C316.323 144.424 318.047 146.229 320.944 145.668C323.791 145.116 324.766 142.788 324.186 139.794C323.605 136.8 321.86 135.152 319.013 135.703Z" fill="white"/>
<path d="M296.052 198.001L297.154 188.666L307.327 189.921L306.298 198.258L313.791 199.183L314.82 190.846L321.966 191.728L320.333 182.911L315.867 182.36L316.614 176.306L309.121 175.381L308.374 181.435L295.125 179.8C292.296 179.451 290.568 180.8 290.225 183.579L288.559 197.076L296.052 198.001Z" fill="white"/>
<path d="M295.803 246.359L299.421 238.612L291.131 234.74C284.653 231.715 284.071 228.353 285.827 224.592C287.435 221.149 289.459 220.715 293.581 222.641L304.499 227.74L308.139 219.948L295.952 214.256C288.704 210.871 283.049 212.699 280.277 218.634C277.992 223.527 279.942 227.859 283.596 230.669L282.707 232.572L279.08 229.112L276.498 227.906L276.519 227.861L273.801 226.591L281.186 210.781L274.345 207.586L265.204 227.156C264.019 229.693 264.611 231.735 267.284 232.984L272.901 235.607L272.88 235.653L295.803 246.359Z" fill="white"/>
<path d="M256.176 270.619L255.463 271.321L256.195 272.064L256.907 271.302L256.176 270.619ZM262.045 264.333L262.776 265.016L263.374 264.374L262.817 263.697L262.045 264.333ZM265.042 267.131L265.623 266.317L264.909 265.808L264.311 266.449L265.042 267.131ZM259.173 273.417L258.442 272.735L257.73 273.497L258.522 274.176L259.173 273.417ZM277.365 251.001C274.028 247.885 270.337 246.582 266.698 246.91C263.08 247.237 259.654 249.164 256.783 252.238L258.245 253.603C260.869 250.793 263.865 249.174 266.878 248.902C269.869 248.632 273.016 249.676 276 252.463L277.365 251.001ZM256.783 252.238C254.191 255.014 252.493 258.367 252.126 261.75C251.757 265.159 252.747 268.561 255.463 271.321L256.889 269.918C254.62 267.612 253.806 264.815 254.115 261.966C254.426 259.09 255.89 256.126 258.245 253.603L256.783 252.238ZM256.907 271.302L262.776 265.016L261.314 263.651L255.445 269.937L256.907 271.302ZM262.817 263.697C262.012 262.72 261.845 260.81 263.764 258.755L262.302 257.391C259.921 259.94 259.642 262.988 261.273 264.969L262.817 263.697ZM263.764 258.755C264.64 257.817 265.684 257.307 266.741 257.257C267.79 257.207 268.977 257.603 270.165 258.713L271.53 257.251C270.014 255.835 268.318 255.18 266.647 255.259C264.985 255.338 263.473 256.136 262.302 257.391L263.764 258.755ZM270.165 258.713C271.332 259.802 271.79 260.939 271.802 261.972C271.814 263.018 271.37 264.09 270.488 265.034L271.95 266.399C273.116 265.15 273.821 263.6 273.802 261.95C273.783 260.287 273.032 258.653 271.53 257.251L270.165 258.713ZM270.488 265.034C268.57 267.089 266.654 267.054 265.623 266.317L264.46 267.945C266.548 269.436 269.57 268.949 271.95 266.399L270.488 265.034ZM264.311 266.449L258.442 272.735L259.904 274.1L265.773 267.814L264.311 266.449ZM258.522 274.176C261.461 276.697 264.923 277.452 268.298 276.849C271.649 276.252 274.877 274.328 277.469 271.551L276.007 270.186C273.651 272.709 270.794 274.373 267.947 274.881C265.125 275.384 262.279 274.764 259.824 272.658L258.522 274.176ZM277.469 271.551C280.337 268.479 282.034 264.939 282.127 261.321C282.221 257.68 280.686 254.102 277.365 251.001L276 252.463C278.966 255.232 280.205 258.28 280.128 261.269C280.051 264.281 278.632 267.375 276.007 270.186L277.469 271.551Z" fill="white"/>
<path d="M236.709 271.553L237.584 271.068L237.099 270.193L236.225 270.678L236.709 271.553ZM229.185 275.717L228.7 274.842L227.825 275.327L228.31 276.202L229.185 275.717ZM237.78 291.247L238.265 292.122L239.139 291.638L238.655 290.763L237.78 291.247ZM226.581 297.446L226.097 296.571L225.222 297.055L225.706 297.93L226.581 297.446ZM230.238 304.051L229.363 304.536L229.847 305.411L230.722 304.926L230.238 304.051ZM247.729 289.398L237.584 271.068L235.834 272.037L245.979 290.366L247.729 289.398ZM236.225 270.678L228.7 274.842L229.669 276.592L237.193 272.427L236.225 270.678ZM228.31 276.202L236.905 291.731L238.655 290.763L230.059 275.233L228.31 276.202ZM237.296 290.372L226.097 296.571L227.066 298.321L238.265 292.122L237.296 290.372ZM225.706 297.93L229.363 304.536L231.113 303.567L227.456 296.961L225.706 297.93ZM230.722 304.926L245.552 296.718L244.583 294.968L229.753 303.176L230.722 304.926ZM245.552 296.718C246.944 295.947 247.963 294.903 248.37 293.572C248.779 292.235 248.509 290.806 247.729 289.398L245.979 290.366C246.58 291.452 246.663 292.313 246.457 292.988C246.249 293.669 245.684 294.359 244.583 294.968L245.552 296.718Z" fill="white"/>
<path d="M180.899 300.545L179.902 300.612L179.977 301.742L181.089 301.527L180.899 300.545ZM189.244 298.928L189.434 299.91L190.196 299.762L190.242 298.988L189.244 298.928ZM199.619 298.853L199.809 299.835L200.889 299.626L200.579 298.571L199.619 298.853ZM181.31 302.401L181.12 301.419L180.138 301.609L180.328 302.591L181.31 302.401ZM200.456 303.173L201.449 303.053L201.32 301.987L200.266 302.191L200.456 303.173ZM190.344 305.132L190.154 304.15L189.081 304.358L189.383 305.409L190.344 305.132ZM209.405 298.893C208.61 294.79 206.547 291.537 203.497 289.541C200.449 287.546 196.52 286.874 192.116 287.727L192.497 289.691C196.487 288.918 199.865 289.555 202.402 291.215C204.936 292.873 206.734 295.621 207.442 299.273L209.405 298.893ZM192.116 287.727C188.132 288.499 184.978 290.131 182.86 292.388C180.731 294.656 179.694 297.516 179.902 300.612L181.897 300.478C181.727 297.943 182.564 295.626 184.319 293.756C186.085 291.874 188.823 290.403 192.497 289.691L192.116 287.727ZM181.089 301.527L189.434 299.91L189.054 297.946L180.709 299.563L181.089 301.527ZM190.242 298.988C190.324 297.619 191.357 296.482 193.723 296.023L193.343 294.06C190.506 294.609 188.404 296.218 188.246 298.869L190.242 298.988ZM193.723 296.023C195.058 295.765 196.084 295.953 196.85 296.435C197.621 296.919 198.262 297.785 198.66 299.136L200.579 298.571C200.083 296.886 199.203 295.551 197.915 294.741C196.622 293.929 195.052 293.729 193.343 294.06L193.723 296.023ZM199.429 297.872L181.12 301.419L181.5 303.382L199.809 299.835L199.429 297.872ZM180.328 302.591L180.756 304.8L182.719 304.419L182.291 302.21L180.328 302.591ZM180.756 304.8C181.553 308.916 183.526 312.062 186.538 313.932C189.538 315.794 193.425 316.3 197.892 315.435L197.511 313.471C193.387 314.27 190.049 313.757 187.593 312.233C185.148 310.715 183.434 308.108 182.719 304.419L180.756 304.8ZM197.892 315.435C201.948 314.649 205.26 312.691 207.346 309.793C209.437 306.886 210.226 303.129 209.405 298.893L207.442 299.273C208.171 303.039 207.452 306.22 205.722 308.624C203.986 311.037 201.161 312.764 197.511 313.471L197.892 315.435ZM199.463 303.293C199.604 304.458 199.332 305.346 198.803 305.997C198.262 306.662 197.368 307.184 196.086 307.432L196.467 309.395C198.081 309.083 199.445 308.378 200.355 307.259C201.275 306.127 201.645 304.675 201.449 303.053L199.463 303.293ZM196.086 307.432C194.777 307.686 193.738 307.537 192.976 307.122C192.228 306.714 191.632 305.99 191.305 304.855L189.383 305.409C189.835 306.976 190.732 308.177 192.02 308.878C193.292 309.571 194.831 309.712 196.467 309.395L196.086 307.432ZM190.534 306.114L200.646 304.155L200.266 302.191L190.154 304.15L190.534 306.114Z" fill="white"/>
<path d="M147.883 296.827L147.761 297.82L148.55 297.917L148.822 297.171L147.883 296.827ZM145.799 296.57L144.941 296.057L144.152 297.375L145.677 297.563L145.799 296.57ZM147.512 293.709L148.37 294.222L148.479 294.041L148.505 293.831L147.512 293.709ZM138.388 288.451L138.51 287.459L137.518 287.336L137.395 288.329L138.388 288.451ZM137.463 295.944L136.47 295.822L136.348 296.814L137.34 296.937L137.463 295.944ZM141.085 296.392L142.078 296.514L142.2 295.522L141.208 295.399L141.085 296.392ZM165.891 307.665L166.881 307.81L167.029 306.798L166.014 306.672L165.891 307.665ZM157.902 306.679L158.025 305.686L157.075 305.569L156.916 306.512L157.902 306.679ZM148.641 305.385L148.654 304.385L147.758 304.373L147.648 305.262L148.641 305.385ZM156.387 305.484L156.407 304.484L156.4 304.484L156.387 305.484ZM155.332 300.971L155.355 301.971L155.363 301.97L155.332 300.971ZM149.167 301.117L148.175 300.995L148.033 302.144L149.191 302.117L149.167 301.117ZM168.557 299.127C168.735 297.689 168.624 295.541 167.302 293.597C165.959 291.623 163.49 290.038 159.314 289.522L159.069 291.507C162.833 291.972 164.71 293.342 165.648 294.722C166.608 296.133 166.713 297.74 166.572 298.882L168.557 299.127ZM159.314 289.522C155.624 289.067 152.896 289.67 150.877 291.034C148.87 292.39 147.705 294.403 146.944 296.484L148.822 297.171C149.507 295.299 150.472 293.721 151.997 292.691C153.509 291.67 155.713 291.093 159.069 291.507L159.314 289.522ZM148.006 295.835L145.922 295.578L145.677 297.563L147.761 297.82L148.006 295.835ZM146.657 297.084L148.37 294.222L146.654 293.195L144.941 296.057L146.657 297.084ZM148.505 293.831L148.536 293.583L146.551 293.338L146.52 293.586L148.505 293.831ZM148.536 293.583C148.71 292.171 148.44 290.882 147.65 289.889C146.863 288.899 145.668 288.342 144.266 288.169L144.021 290.154C145.051 290.281 145.706 290.658 146.085 291.134C146.462 291.608 146.676 292.318 146.551 293.338L148.536 293.583ZM144.266 288.169L138.51 287.459L138.265 289.444L144.021 290.154L144.266 288.169ZM137.395 288.329L136.47 295.822L138.455 296.067L139.38 288.574L137.395 288.329ZM137.34 296.937L140.963 297.384L141.208 295.399L137.585 294.952L137.34 296.937ZM140.093 296.269L139.138 304.01L141.123 304.255L142.078 296.514L140.093 296.269ZM139.138 304.01C138.649 307.965 140.021 311.073 142.483 313.274C144.905 315.439 148.325 316.681 151.927 317.126L152.172 315.141C148.828 314.728 145.84 313.592 143.816 311.783C141.831 310.009 140.717 307.545 141.123 304.255L139.138 304.01ZM151.927 317.126C155.527 317.57 158.976 317.09 161.688 315.557C164.433 314.005 166.354 311.408 166.881 307.81L164.902 307.52C164.465 310.502 162.915 312.566 160.704 313.816C158.461 315.084 155.471 315.548 152.172 315.141L151.927 317.126ZM166.014 306.672L158.025 305.686L157.78 307.671L165.769 308.657L166.014 306.672ZM156.916 306.512C156.775 307.347 156.375 307.897 155.759 308.237C155.102 308.598 154.094 308.778 152.677 308.603L152.432 310.588C154.092 310.793 155.57 310.625 156.724 309.988C157.919 309.33 158.654 308.231 158.888 306.845L156.916 306.512ZM152.677 308.603C151.323 308.436 150.538 308.084 150.114 307.647C149.733 307.254 149.494 306.633 149.633 305.507L147.648 305.262C147.463 306.767 147.742 308.073 148.679 309.04C149.574 309.962 150.907 310.4 152.432 310.588L152.677 308.603ZM148.628 306.385L156.374 306.484L156.4 304.484L148.654 304.385L148.628 306.385ZM156.367 306.484C160.326 306.563 163.223 306.037 165.224 304.789C167.298 303.495 168.261 301.525 168.557 299.127L166.572 298.882C166.329 300.851 165.598 302.198 164.166 303.092C162.66 304.03 160.238 304.561 156.407 304.484L156.367 306.484ZM158.058 299.292C158.034 299.486 157.984 299.553 157.963 299.577C157.936 299.608 157.865 299.672 157.666 299.738C157.21 299.889 156.487 299.934 155.3 299.971L155.363 301.97C156.452 301.936 157.503 301.898 158.294 301.636C158.719 301.496 159.14 301.271 159.471 300.891C159.808 300.504 159.981 300.038 160.043 299.537L158.058 299.292ZM155.308 299.971L149.144 300.117L149.191 302.117L155.355 301.971L155.308 299.971ZM150.16 301.24C150.303 300.079 150.958 299.201 151.978 298.63C153.021 298.048 154.456 297.79 156.053 297.987L156.298 296.002C154.371 295.764 152.489 296.054 151.002 296.884C149.493 297.728 148.405 299.128 148.175 300.995L150.16 301.24ZM156.053 297.987C156.827 298.082 157.397 298.254 157.732 298.487C157.883 298.593 157.964 298.695 158.008 298.791C158.051 298.886 158.089 299.038 158.058 299.292L160.043 299.537C160.113 298.973 160.046 298.438 159.826 297.957C159.606 297.478 159.261 297.115 158.874 296.845C158.13 296.328 157.161 296.108 156.298 296.002L156.053 297.987Z" fill="white"/>
<path d="M103.713 281.562L102.807 281.139L102.382 282.049L103.295 282.47L103.713 281.562ZM112.251 285.494L113.157 285.917L113.583 285.007L112.67 284.586L112.251 285.494ZM107.914 294.781L107.491 295.687L108.397 296.11L108.82 295.204L107.914 294.781ZM100.303 291.227L100.726 290.321L99.8201 289.897L99.397 290.803L100.303 291.227ZM97.108 298.067L96.202 297.644L95.7788 298.55L96.6848 298.973L97.108 298.067ZM104.719 301.622L105.625 302.045L106.048 301.139L105.142 300.716L104.719 301.622ZM101.672 308.145L100.766 307.722L100.188 308.959L101.541 309.137L101.672 308.145ZM110.561 309.317L110.431 310.309L111.157 310.405L111.467 309.74L110.561 309.317ZM112.466 305.24L112.889 304.334L111.983 303.911L111.559 304.817L112.466 305.24ZM117.992 307.821L117.569 308.728L118.475 309.151L118.898 308.245L117.992 307.821ZM121.187 300.981L122.093 301.404L122.517 300.498L121.611 300.075L121.187 300.981ZM115.661 298.399L114.754 297.976L114.331 298.882L115.237 299.305L115.661 298.399ZM106.908 274.721L107.332 273.815L106.426 273.392L106.002 274.298L106.908 274.721ZM103.295 282.47L111.833 286.403L112.67 284.586L104.132 280.653L103.295 282.47ZM111.345 285.071L107.008 294.358L108.82 295.204L113.157 285.917L111.345 285.071ZM108.337 293.875L100.726 290.321L99.8798 292.133L107.491 295.687L108.337 293.875ZM99.397 290.803L96.202 297.644L98.0141 298.49L101.209 291.65L99.397 290.803ZM96.6848 298.973L104.296 302.528L105.142 300.716L97.5312 297.161L96.6848 298.973ZM103.813 301.199L100.766 307.722L102.578 308.569L105.625 302.045L103.813 301.199ZM101.541 309.137L110.431 310.309L110.692 308.326L101.803 307.154L101.541 309.137ZM111.467 309.74L113.372 305.663L111.559 304.817L109.655 308.894L111.467 309.74ZM112.042 306.146L117.569 308.728L118.416 306.915L112.889 304.334L112.042 306.146ZM118.898 308.245L122.093 301.404L120.281 300.558L117.086 307.398L118.898 308.245ZM121.611 300.075L116.084 297.493L115.237 299.305L120.764 301.887L121.611 300.075ZM116.567 298.823L122.216 286.727L120.404 285.881L114.754 297.976L116.567 298.823ZM122.216 286.727C122.893 285.277 123.084 283.835 122.615 282.529C122.146 281.22 121.085 280.239 119.654 279.57L118.807 281.382C119.913 281.899 120.495 282.54 120.733 283.203C120.971 283.869 120.933 284.748 120.404 285.881L122.216 286.727ZM119.654 279.57L107.332 273.815L106.485 275.627L118.807 281.382L119.654 279.57ZM106.002 274.298L102.807 281.139L104.619 281.985L107.814 275.144L106.002 274.298Z" fill="white"/>
<path d="M94.3832 265.925L95.1141 266.608L95.7966 265.877L95.0657 265.194L94.3832 265.925ZM78.1931 250.809L78.8755 250.078L78.1446 249.396L77.4621 250.126L78.1931 250.809ZM73.0406 256.327L72.3096 255.645L71.6272 256.376L72.3581 257.058L73.0406 256.327ZM78.2667 261.207L78.9977 261.889L79.6801 261.159L78.9492 260.476L78.2667 261.207ZM76.4594 283.804L75.7769 284.535L76.5079 285.217L77.1903 284.486L76.4594 283.804ZM81.6119 278.285L82.3428 278.967L83.0253 278.237L82.2943 277.554L81.6119 278.285ZM77.0801 274.054L76.3492 273.371L75.6667 274.102L76.3977 274.785L77.0801 274.054ZM84.0411 266.598L84.7235 265.867L83.9926 265.185L83.3102 265.916L84.0411 266.598ZM89.2307 271.444L88.5483 272.175L89.2792 272.857L89.9617 272.126L89.2307 271.444ZM95.0657 265.194L78.8755 250.078L77.5106 251.54L93.7008 266.656L95.0657 265.194ZM77.4621 250.126L72.3096 255.645L73.7715 257.01L78.924 251.491L77.4621 250.126ZM72.3581 257.058L77.5843 261.938L78.9492 260.476L73.723 255.597L72.3581 257.058ZM77.5358 260.525L68.2886 270.429L69.7505 271.794L78.9977 261.889L77.5358 260.525ZM68.2886 270.429C67.2036 271.591 66.6193 272.889 66.7079 274.259C66.7956 275.614 67.5296 276.834 68.6504 277.881L70.0153 276.419C69.1259 275.588 68.7479 274.812 68.7037 274.13C68.6605 273.461 68.9246 272.678 69.7505 271.794L68.2886 270.429ZM68.6504 277.881L75.7769 284.535L77.1418 283.073L70.0153 276.419L68.6504 277.881ZM77.1903 284.486L82.3428 278.967L80.881 277.603L75.7285 283.121L77.1903 284.486ZM82.2943 277.554L77.7626 273.323L76.3977 274.785L80.9294 279.016L82.2943 277.554ZM77.811 274.736L84.772 267.281L83.3102 265.916L76.3492 273.371L77.811 274.736ZM83.3586 267.329L88.5483 272.175L89.9132 270.713L84.7235 265.867L83.3586 267.329ZM89.9617 272.126L95.1141 266.608L93.6523 265.243L88.4998 270.761L89.9617 272.126ZM69.4287 286.132C70.5969 284.881 71.1214 283.473 70.9192 282.007C70.7232 280.586 69.8679 279.291 68.6601 278.163L67.2952 279.625C68.3167 280.579 68.828 281.483 68.938 282.28C69.0419 283.033 68.8118 283.862 67.9668 284.767L69.4287 286.132ZM68.6601 278.163C67.452 277.035 66.0813 276.252 64.6361 276.123C63.1415 275.99 61.7333 276.57 60.5478 277.84L62.0097 279.205C62.8374 278.319 63.664 278.044 64.4581 278.115C65.3018 278.191 66.2739 278.672 67.2952 279.625L68.6601 278.163ZM60.5478 277.84C59.3764 279.095 58.8984 280.539 59.1272 282.019C59.3491 283.454 60.2125 284.778 61.4261 285.911L62.791 284.449C61.7752 283.501 61.2342 282.556 61.1037 281.713C60.9803 280.914 61.2021 280.07 62.0097 279.205L60.5478 277.84ZM61.4261 285.911C62.6395 287.044 64.0003 287.796 65.4328 287.888C66.9065 287.983 68.2744 287.368 69.4287 286.132L67.9668 284.767C67.142 285.65 66.3299 285.942 65.5611 285.892C64.7512 285.84 63.8069 285.398 62.791 284.449L61.4261 285.911Z" fill="white"/>
<path d="M37.4933 234.427L36.6184 234.911L37.0019 235.604L37.7642 235.389L37.4933 234.427ZM60.387 227.984L61.2619 227.5L60.8784 226.807L60.1161 227.022L60.387 227.984ZM61.4282 229.865L62.1015 230.605L62.6858 230.073L62.3031 229.381L61.4282 229.865ZM43.8373 245.888L43.1639 245.149L42.5796 245.681L42.9623 246.373L43.8373 245.888ZM48.002 253.413L47.1271 253.897L47.7443 255.012L48.6806 254.147L48.002 253.413ZM67.135 235.736L67.8136 236.471L68.3898 235.938L68.0099 235.252L67.135 235.736ZM58.5392 220.206L59.4141 219.722L59.0334 219.034L58.2753 219.242L58.5392 220.206ZM33.4255 227.078L33.1616 226.113L31.9345 226.449L32.5505 227.562L33.4255 227.078ZM37.7642 235.389L60.6579 228.947L60.1161 227.022L37.2224 233.464L37.7642 235.389ZM59.5121 228.469L60.5532 230.35L62.3031 229.381L61.2619 227.5L59.5121 228.469ZM60.7548 229.126L43.1639 245.149L44.5107 246.628L62.1015 230.605L60.7548 229.126ZM42.9623 246.373L47.1271 253.897L48.8769 252.928L44.7122 245.404L42.9623 246.373ZM48.6806 254.147L67.8136 236.471L66.4564 235.002L47.3234 252.678L48.6806 254.147ZM68.0099 235.252L59.4141 219.722L57.6643 220.691L66.26 236.22L68.0099 235.252ZM58.2753 219.242L33.1616 226.113L33.6894 228.042L58.8031 221.171L58.2753 219.242ZM32.5505 227.562L36.6184 234.911L38.3682 233.943L34.3004 226.593L32.5505 227.562Z" fill="white"/>
<path d="M52.2982 203.419L52.4884 204.401L53.4702 204.211L53.28 203.229L52.2982 203.419ZM48.0852 181.673L49.067 181.483L48.8768 180.501L47.895 180.692L48.0852 181.673ZM40.6731 183.109L40.4829 182.128L39.5011 182.318L39.6913 183.3L40.6731 183.109ZM42.033 190.129L42.2232 191.111L43.205 190.92L43.0148 189.939L42.033 190.129ZM27.2889 207.348L26.3072 207.538L26.4974 208.519L27.4791 208.329L27.2889 207.348ZM34.7011 205.912L34.8913 206.893L35.873 206.703L35.6828 205.721L34.7011 205.912ZM33.5218 199.825L33.3316 198.843L32.3499 199.033L32.5401 200.015L33.5218 199.825ZM43.5356 197.885L44.5174 197.694L44.3272 196.713L43.3454 196.903L43.5356 197.885ZM44.8861 204.855L43.9043 205.045L44.0945 206.027L45.0763 205.837L44.8861 204.855ZM53.28 203.229L49.067 181.483L47.1035 181.864L51.3165 203.609L53.28 203.229ZM47.895 180.692L40.4829 182.128L40.8633 184.091L48.2755 182.655L47.895 180.692ZM39.6913 183.3L41.0513 190.319L43.0148 189.939L41.6548 182.919L39.6913 183.3ZM41.8428 189.147L28.5402 191.724L28.9206 193.688L42.2232 191.111L41.8428 189.147ZM28.5402 191.724C26.9794 192.027 25.7436 192.734 25.0102 193.894C24.2843 195.042 24.1611 196.46 24.4527 197.966L26.4162 197.585C26.1848 196.391 26.3351 195.541 26.7007 194.962C27.0588 194.396 27.7325 193.918 28.9206 193.688L28.5402 191.724ZM24.4527 197.966L26.3072 207.538L28.2707 207.157L26.4162 197.585L24.4527 197.966ZM27.4791 208.329L34.8913 206.893L34.5109 204.93L27.0987 206.366L27.4791 208.329ZM35.6828 205.721L34.5036 199.634L32.5401 200.015L33.7193 206.102L35.6828 205.721ZM33.712 200.806L43.7258 198.866L43.3454 196.903L33.3316 198.843L33.712 200.806ZM42.5539 198.075L43.9043 205.045L45.8678 204.665L44.5174 197.694L42.5539 198.075ZM45.0763 205.837L52.4884 204.401L52.108 202.437L44.6959 203.873L45.0763 205.837ZM20.2324 205.099C21.913 204.773 23.1649 203.942 23.8628 202.638C24.5393 201.373 24.6087 199.822 24.2944 198.2L22.3309 198.581C22.5967 199.953 22.4789 200.985 22.0992 201.694C21.7408 202.364 21.0675 202.9 19.8519 203.135L20.2324 205.099ZM24.2944 198.2C23.98 196.577 23.3313 195.138 22.2381 194.184C21.1074 193.198 19.6268 192.84 17.9214 193.17L18.3018 195.134C19.4925 194.903 20.3224 195.167 20.9232 195.691C21.5614 196.248 22.0651 197.209 22.3309 198.581L24.2944 198.2ZM17.9214 193.17C16.2362 193.497 15.0009 194.384 14.3161 195.716C13.6521 197.007 13.5721 198.586 13.8879 200.216L15.8514 199.836C15.5871 198.472 15.7045 197.389 16.0948 196.63C16.4642 195.912 17.14 195.359 18.3018 195.134L17.9214 193.17ZM13.8879 200.216C14.2036 201.846 14.8625 203.254 15.9673 204.171C17.1039 205.114 18.5719 205.42 20.2324 205.099L19.8519 203.135C18.6654 203.365 17.8372 203.123 17.2443 202.632C16.6196 202.113 16.1157 201.2 15.8514 199.836L13.8879 200.216Z" fill="white"/>
<path d="M43.003 141.819L43.1254 140.827L42.1277 140.704L42.0099 141.702L43.003 141.819ZM41.9013 151.155L41.7788 152.147L42.7765 152.27L42.8944 151.272L41.9013 151.155ZM31.7284 149.899L30.736 149.777L30.6135 150.769L31.6059 150.892L31.7284 149.899ZM32.7573 141.562L33.7497 141.685L33.8722 140.692L32.8798 140.57L32.7573 141.562ZM25.2641 140.638L25.3866 139.645L24.3941 139.523L24.2716 140.515L25.2641 140.638ZM24.2353 148.974L24.1128 149.967L25.1053 150.089L25.2277 149.097L24.2353 148.974ZM17.0895 148.093L17.212 147.1L15.8578 146.933L16.1062 148.275L17.0895 148.093ZM18.7219 156.909L17.7386 157.091L17.8721 157.812L18.5994 157.901L18.7219 156.909ZM23.188 157.46L24.1805 157.583L24.303 156.59L23.3105 156.468L23.188 157.46ZM22.4409 163.514L21.4484 163.392L21.326 164.384L22.3184 164.507L22.4409 163.514ZM29.9341 164.439L29.8116 165.431L30.804 165.554L30.9265 164.561L29.9341 164.439ZM30.6812 158.385L30.8037 157.392L29.8112 157.27L29.6887 158.262L30.6812 158.385ZM50.4961 142.744L51.4886 142.866L51.6111 141.874L50.6186 141.752L50.4961 142.744ZM42.0099 141.702L40.9081 151.037L42.8944 151.272L43.9961 141.936L42.0099 141.702ZM42.0237 150.162L31.8509 148.907L31.6059 150.892L41.7788 152.147L42.0237 150.162ZM32.7209 150.022L33.7497 141.685L31.7648 141.44L30.736 149.777L32.7209 150.022ZM32.8798 140.57L25.3866 139.645L25.1416 141.63L32.6348 142.555L32.8798 140.57ZM24.2716 140.515L23.2428 148.852L25.2277 149.097L26.2566 140.76L24.2716 140.515ZM24.3578 147.982L17.212 147.1L16.967 149.085L24.1128 149.967L24.3578 147.982ZM16.1062 148.275L17.7386 157.091L19.7052 156.727L18.0728 147.91L16.1062 148.275ZM18.5994 157.901L23.0656 158.453L23.3105 156.468L18.8444 155.916L18.5994 157.901ZM22.1956 157.338L21.4484 163.392L23.4334 163.637L24.1805 157.583L22.1956 157.338ZM22.3184 164.507L29.8116 165.431L30.0565 163.446L22.5634 162.522L22.3184 164.507ZM30.9265 164.561L31.6737 158.507L29.6887 158.262L28.9416 164.316L30.9265 164.561ZM30.5587 159.377L43.8082 161.012L44.0532 159.027L30.8037 157.392L30.5587 159.377ZM43.8082 161.012C45.3966 161.208 46.8266 160.944 47.9245 160.095C49.0237 159.244 49.6293 157.932 49.8228 156.364L47.8379 156.119C47.6885 157.33 47.2585 158.081 46.7008 158.513C46.1417 158.945 45.2933 159.18 44.0532 159.027L43.8082 161.012ZM49.8228 156.364L51.4886 142.866L49.5036 142.622L47.8379 156.119L49.8228 156.364ZM50.6186 141.752L43.1254 140.827L42.8805 142.812L50.3736 143.736L50.6186 141.752Z" fill="white"/>
<path d="M43.2524 93.461L43.6756 92.555L42.7695 92.1318L42.3463 93.0378L43.2524 93.461ZM39.6342 101.208L38.7282 100.785L38.305 101.691L39.211 102.114L39.6342 101.208ZM34.5561 112.08L34.9793 111.174L34.0732 110.751L33.65 111.657L34.5561 112.08ZM30.9168 119.872L30.0107 119.449L29.5875 120.355L30.4936 120.778L30.9168 119.872ZM55.4597 109.151L54.5536 108.728L54.2142 109.455L54.85 109.944L55.4597 109.151ZM56.3483 107.248L57.0386 106.525L56.0314 105.564L55.4423 106.825L56.3483 107.248ZM59.975 110.708L59.2847 111.432L59.4033 111.545L59.5518 111.614L59.975 110.708ZM62.5572 111.914L63.4633 112.337L63.8864 111.431L62.9804 111.008L62.5572 111.914ZM62.536 111.959L61.63 111.536L61.2068 112.442L62.1129 112.865L62.536 111.959ZM65.2542 113.229L66.1602 113.652L66.5834 112.746L65.6774 112.323L65.2542 113.229ZM57.8697 129.039L56.9637 128.616L56.5405 129.522L57.4466 129.946L57.8697 129.039ZM64.7104 132.234L64.2872 133.14L65.1933 133.564L65.6164 132.658L64.7104 132.234ZM66.1542 104.213L65.2482 103.79L64.825 104.696L65.731 105.119L66.1542 104.213ZM66.1754 104.167L67.0814 104.591L67.5046 103.685L66.5986 103.261L66.1754 104.167ZM42.3463 93.0378L38.7282 100.785L40.5403 101.631L44.1584 93.8842L42.3463 93.0378ZM39.211 102.114L47.5014 105.986L48.3477 104.174L40.0574 100.302L39.211 102.114ZM47.5014 105.986C50.6539 107.458 52.1555 108.918 52.7477 110.278C53.322 111.596 53.1395 113.055 52.3224 114.805L54.1345 115.651C55.0737 113.64 55.4783 111.538 54.5812 109.479C53.7019 107.461 51.6734 105.727 48.3477 104.174L47.5014 105.986ZM52.3224 114.805C51.5673 116.421 50.8412 117.054 50.0571 117.245C49.1917 117.456 47.9308 117.223 45.8971 116.274L45.0508 118.086C47.1396 119.061 48.9519 119.574 50.5312 119.188C52.1917 118.783 53.2816 117.477 54.1345 115.651L52.3224 114.805ZM45.8971 116.274L34.9793 111.174L34.1329 112.986L45.0508 118.086L45.8971 116.274ZM33.65 111.657L30.0107 119.449L31.8228 120.295L35.4621 112.503L33.65 111.657ZM30.4936 120.778L42.6799 126.47L43.5263 124.658L31.3399 118.966L30.4936 120.778ZM42.6799 126.47C46.4473 128.23 49.9294 128.694 52.8989 127.83C55.891 126.96 58.2003 124.787 59.6845 121.609L57.8724 120.763C56.5848 123.52 54.6806 125.229 52.3401 125.91C49.9769 126.598 47.0073 126.284 43.5263 124.658L42.6799 126.47ZM59.6845 121.609C60.9286 118.946 61.0379 116.379 60.2981 114.081C59.5644 111.802 58.0197 109.858 56.0693 108.358L54.85 109.944C56.5536 111.254 57.8109 112.882 58.3944 114.694C58.9718 116.488 58.9135 118.534 57.8724 120.763L59.6845 121.609ZM56.3657 109.574L57.2544 107.671L55.4423 106.825L54.5536 108.728L56.3657 109.574ZM55.6581 107.972L59.2847 111.432L60.6652 109.984L57.0386 106.525L55.6581 107.972ZM59.5518 111.614L62.134 112.82L62.9804 111.008L60.3982 109.802L59.5518 111.614ZM61.6512 111.491L61.63 111.536L63.4421 112.383L63.4633 112.337L61.6512 111.491ZM62.1129 112.865L64.831 114.135L65.6774 112.323L62.9592 111.053L62.1129 112.865ZM64.3481 112.806L56.9637 128.616L58.7758 129.463L66.1602 113.652L64.3481 112.806ZM57.4466 129.946L64.2872 133.14L65.1336 131.328L58.2929 128.133L57.4466 129.946ZM65.6164 132.658L74.7571 113.087L72.945 112.241L63.8043 131.811L65.6164 132.658ZM74.7571 113.087C75.4147 111.679 75.6499 110.257 75.205 108.946C74.7566 107.624 73.6904 106.629 72.1949 105.93L71.3485 107.742C72.5259 108.292 73.0918 108.942 73.3111 109.588C73.5338 110.245 73.4723 111.112 72.945 112.241L74.7571 113.087ZM72.1949 105.93L66.5774 103.307L65.731 105.119L71.3485 107.742L72.1949 105.93ZM67.0603 104.636L67.0814 104.591L65.2693 103.744L65.2482 103.79L67.0603 104.636ZM66.5986 103.261L43.6756 92.555L42.8292 94.367L65.7522 105.073L66.5986 103.261Z" fill="white"/>
</svg>
