<svg viewBox="0 0 656 123" fill="none" xmlns="http://www.w3.org/2000/svg">
<path d="M357.136 118H356.136V119H357.136V118ZM367.396 118V119H368.396V118H367.396ZM367.396 116.56H368.396V116.398L368.344 116.244L367.396 116.56ZM365.476 110.8V109.8H364.088L364.527 111.116L365.476 110.8ZM367.996 110.8L368.926 110.433L368.676 109.8H367.996V110.8ZM367.996 94.78V95.78H368.673L368.924 95.1514L367.996 94.78ZM365.476 94.78L364.528 94.4608L364.083 95.78H365.476V94.78ZM367.396 89.08L368.343 89.3992L368.396 89.2439V89.08H367.396ZM367.396 73.9H368.396V72.9H367.396V73.9ZM357.136 73.9V72.9H356.136V73.9H357.136ZM357.136 119H367.396V117H357.136V119ZM368.396 118V116.56H366.396V118H368.396ZM368.344 116.244L366.424 110.484L364.527 111.116L366.447 116.876L368.344 116.244ZM365.476 111.8H367.996V109.8H365.476V111.8ZM367.065 111.167C367.873 113.218 369.019 115.353 371.03 116.965C373.057 118.59 375.857 119.6 379.816 119.6V117.6C376.214 117.6 373.884 116.69 372.281 115.405C370.662 114.107 369.678 112.342 368.926 110.433L367.065 111.167ZM379.816 119.6C384.568 119.6 388.136 117.624 390.487 114.473C392.811 111.358 393.896 107.168 393.896 102.76H391.896C391.896 106.872 390.88 110.602 388.884 113.277C386.915 115.916 383.943 117.6 379.816 117.6V119.6ZM393.896 102.76C393.896 98.3807 392.811 94.2194 390.485 91.1265C388.133 87.9986 384.565 86.04 379.816 86.04V88.04C383.946 88.04 386.918 89.7114 388.886 92.3285C390.881 94.9806 391.896 98.6793 391.896 102.76H393.896ZM379.816 86.04C375.857 86.04 373.058 87.0497 371.032 88.6657C369.022 90.2686 367.876 92.3872 367.067 94.4086L368.924 95.1514C369.675 93.2728 370.659 91.5213 372.279 90.2293C373.883 88.9503 376.214 88.04 379.816 88.04V86.04ZM367.996 93.78H365.476V95.78H367.996V93.78ZM366.423 95.0992L368.343 89.3992L366.448 88.7608L364.528 94.4608L366.423 95.0992ZM368.396 89.08V73.9H366.396V89.08H368.396ZM367.396 72.9H357.136V74.9H367.396V72.9ZM356.136 73.9V118H358.136V73.9H356.136ZM368.396 102.76C368.396 100.595 368.974 99.2595 369.936 98.4343C370.932 97.5806 372.536 97.1 374.956 97.1V95.1C372.335 95.1 370.159 95.6094 368.635 96.9157C367.078 98.2505 366.396 100.245 366.396 102.76H368.396ZM374.956 97.1C377.407 97.1 379.044 97.5813 380.064 98.4399C381.047 99.2676 381.636 100.602 381.636 102.76H383.636C383.636 100.238 382.934 98.2424 381.352 96.9101C379.807 95.6087 377.604 95.1 374.956 95.1V97.1ZM381.636 102.76C381.636 104.952 381.044 106.32 380.056 107.169C379.036 108.046 377.401 108.54 374.956 108.54V110.54C377.61 110.54 379.815 110.014 381.36 108.686C382.937 107.33 383.636 105.308 383.636 102.76H381.636ZM374.956 108.54C372.536 108.54 370.936 108.059 369.942 107.195C368.978 106.358 368.396 104.992 368.396 102.76H366.396C366.396 105.328 367.073 107.352 368.63 108.705C370.155 110.031 372.335 110.54 374.956 110.54V108.54ZM425.342 109.42V108.42H424.548L424.368 109.194L425.342 109.42ZM427.862 109.42L428.777 109.825L429.399 108.42H427.862V109.42ZM426.242 113.08L425.328 112.675L425.242 112.869V113.08H426.242ZM437.882 118V119H438.882V118H437.882ZM437.882 108.94H438.882V107.94H437.882V108.94ZM433.502 108.94H432.502V109.94H433.502V108.94ZM402.302 99.16L401.303 99.1374L401.28 100.16H402.302V99.16ZM411.962 99.16V100.16H412.919L412.961 99.2044L411.962 99.16ZM423.182 99.34L423.292 100.334L424.182 100.236V99.34H423.182ZM413.942 100.36L414.045 101.355L414.052 101.354L413.942 100.36ZM415.862 105.58L415.716 104.591L415.709 104.592L415.862 105.58ZM423.182 104.5H424.182V103.342L423.036 103.511L423.182 104.5ZM400.582 109.72C400.582 111.429 401.023 113.917 402.841 115.989C404.683 118.09 407.795 119.6 412.802 119.6V117.6C408.21 117.6 405.712 116.23 404.344 114.671C402.952 113.083 402.582 111.131 402.582 109.72H400.582ZM412.802 119.6C417.231 119.6 420.339 118.49 422.497 116.609C424.644 114.737 425.721 112.215 426.317 109.646L424.368 109.194C423.823 111.545 422.891 113.613 421.183 115.101C419.486 116.58 416.894 117.6 412.802 117.6V119.6ZM425.342 110.42H427.862V108.42H425.342V110.42ZM426.948 109.015L425.328 112.675L427.157 113.485L428.777 109.825L426.948 109.015ZM425.242 113.08V113.38H427.242V113.08H425.242ZM425.242 113.38C425.242 115.048 425.74 116.486 426.78 117.506C427.816 118.523 429.265 119 430.922 119V117C429.64 117 428.749 116.637 428.18 116.079C427.615 115.524 427.242 114.652 427.242 113.38H425.242ZM430.922 119H437.882V117H430.922V119ZM438.882 118V108.94H436.882V118H438.882ZM437.882 107.94H433.502V109.94H437.882V107.94ZM434.502 108.94V99.58H432.502V108.94H434.502ZM434.502 99.58C434.502 94.8649 432.446 91.426 429.243 89.2034C426.083 87.0113 421.872 86.04 417.542 86.04V88.04C421.612 88.04 425.382 88.9587 428.102 90.8466C430.779 92.704 432.502 95.5351 432.502 99.58H434.502ZM417.542 86.04C413.221 86.04 409.229 87.111 406.267 89.3038C403.276 91.5187 401.4 94.8361 401.303 99.1374L403.302 99.1826C403.385 95.5039 404.959 92.7613 407.457 90.9112C409.986 89.039 413.524 88.04 417.542 88.04V86.04ZM402.302 100.16H411.962V98.16H402.302V100.16ZM412.961 99.2044C413.009 98.1333 413.431 97.3615 414.169 96.8275C414.943 96.2669 416.165 95.9 417.902 95.9V93.9C415.92 93.9 414.231 94.3131 412.996 95.2075C411.724 96.1285 411.036 97.4867 410.963 99.1156L412.961 99.2044ZM417.902 95.9C419.556 95.9 420.599 96.206 421.22 96.7064C421.794 97.1686 422.182 97.9408 422.182 99.34H424.182C424.182 97.5592 423.671 96.1114 422.475 95.1486C421.326 94.224 419.729 93.9 417.902 93.9V95.9ZM423.073 98.346L413.833 99.366L414.052 101.354L423.292 100.334L423.073 98.346ZM413.84 99.3653C409.126 99.8519 405.8 100.899 403.646 102.643C401.425 104.44 400.582 106.864 400.582 109.72H402.582C402.582 107.296 403.27 105.52 404.904 104.197C406.604 102.821 409.459 101.828 414.045 101.355L413.84 99.3653ZM412.662 107.98C412.662 107.714 412.719 107.587 412.768 107.515C412.821 107.436 412.929 107.329 413.178 107.211C413.731 106.949 414.618 106.786 416.016 106.568L415.709 104.592C414.407 104.794 413.194 104.991 412.322 105.404C411.858 105.623 411.422 105.933 411.11 106.396C410.793 106.866 410.662 107.406 410.662 107.98H412.662ZM416.008 106.569L423.328 105.489L423.036 103.511L415.716 104.591L416.008 106.569ZM422.182 104.5C422.182 105.974 421.496 107.174 420.319 108.036C419.122 108.913 417.406 109.44 415.442 109.44V111.44C417.739 111.44 419.893 110.827 421.501 109.649C423.129 108.456 424.182 106.686 424.182 104.5H422.182ZM415.442 109.44C414.498 109.44 413.753 109.319 413.276 109.068C413.054 108.951 412.915 108.819 412.826 108.674C412.738 108.532 412.662 108.319 412.662 107.98H410.662C410.662 108.631 410.812 109.221 411.124 109.725C411.434 110.228 411.868 110.586 412.344 110.837C413.262 111.321 414.407 111.44 415.442 111.44V109.44ZM478.65 105.28L479.649 105.322L479.693 104.28H478.65V105.28ZM468.33 105.28V104.28H467.453L467.339 105.15L468.33 105.28ZM468.33 100.36L467.339 100.49L467.453 101.36H468.33V100.36ZM478.65 100.36V101.36H479.693L479.649 100.318L478.65 100.36ZM444.29 102.76C444.29 108.191 446.151 112.439 449.371 115.318C452.575 118.183 457.019 119.6 462.03 119.6V117.6C457.381 117.6 453.455 116.287 450.704 113.827C447.969 111.381 446.29 107.709 446.29 102.76H444.29ZM462.03 119.6C466.553 119.6 470.84 118.353 474.067 115.935C477.315 113.502 479.456 109.9 479.649 105.322L477.651 105.238C477.484 109.18 475.665 112.238 472.868 114.335C470.05 116.447 466.207 117.6 462.03 117.6V119.6ZM478.65 104.28H468.33V106.28H478.65V104.28ZM467.339 105.15C467.123 106.785 465.472 108.54 462.03 108.54V110.54C466.149 110.54 468.937 108.335 469.322 105.41L467.339 105.15ZM462.03 108.54C460.446 108.54 459.091 108.028 458.138 107.099C457.191 106.176 456.55 104.756 456.55 102.76H454.55C454.55 105.204 455.349 107.174 456.742 108.531C458.129 109.882 460.014 110.54 462.03 110.54V108.54ZM456.55 102.76C456.55 100.799 457.188 99.4109 458.131 98.5106C459.082 97.6018 460.439 97.1 462.03 97.1V95.1C460.021 95.1 458.138 95.7382 456.749 97.0644C455.352 98.3991 454.55 100.341 454.55 102.76H456.55ZM462.03 97.1C465.472 97.1 467.123 98.8546 467.339 100.49L469.322 100.23C468.937 97.3054 466.149 95.1 462.03 95.1V97.1ZM468.33 101.36H478.65V99.36H468.33V101.36ZM479.649 100.318C479.456 95.7395 477.315 92.1383 474.067 89.7048C470.84 87.2865 466.553 86.04 462.03 86.04V88.04C466.207 88.04 470.05 89.1935 472.868 91.3052C475.665 93.4017 477.484 96.4605 477.651 100.402L479.649 100.318ZM462.03 86.04C457.022 86.04 452.579 87.4405 449.374 90.2818C446.153 93.1381 444.29 97.3566 444.29 102.76H446.29C446.29 97.8434 447.968 94.2018 450.701 91.7782C453.451 89.3395 457.378 88.04 462.03 88.04V86.04ZM488.334 118H487.334V119H488.334V118ZM498.594 118V119H499.594V118H498.594ZM498.594 106.36V105.36H497.594V106.36H498.594ZM500.994 106.36L501.783 105.746L501.483 105.36H500.994V106.36ZM510.054 118L509.265 118.614L509.565 119H510.054V118ZM522.414 118V119H524.526L523.188 117.366L522.414 118ZM509.634 102.4L508.878 101.745L508.327 102.382L508.86 103.034L509.634 102.4ZM522.414 87.64L523.17 88.2946L524.603 86.64H522.414V87.64ZM510.054 87.64V86.64H509.577L509.277 87.0111L510.054 87.64ZM501.414 98.32V99.32H501.891L502.191 98.9489L501.414 98.32ZM498.594 98.32H497.594V99.32H498.594V98.32ZM498.594 73.9H499.594V72.9H498.594V73.9ZM488.334 73.9V72.9H487.334V73.9H488.334ZM488.334 119H498.594V117H488.334V119ZM499.594 118V106.36H497.594V118H499.594ZM498.594 107.36H500.994V105.36H498.594V107.36ZM500.205 106.974L509.265 118.614L510.843 117.386L501.783 105.746L500.205 106.974ZM510.054 119H522.414V117H510.054V119ZM523.188 117.366L510.408 101.766L508.86 103.034L521.64 118.634L523.188 117.366ZM510.39 103.055L523.17 88.2946L521.658 86.9854L508.878 101.745L510.39 103.055ZM522.414 86.64H510.054V88.64H522.414V86.64ZM509.277 87.0111L500.637 97.6911L502.191 98.9489L510.831 88.2689L509.277 87.0111ZM501.414 97.32H498.594V99.32H501.414V97.32ZM499.594 98.32V73.9H497.594V98.32H499.594ZM498.594 72.9H488.334V74.9H498.594V72.9ZM487.334 73.9V118H489.334V73.9H487.334ZM559.324 107.26L560.317 107.384L560.457 106.26H559.324V107.26ZM549.124 107.26V106.26H548.348L548.156 107.012L549.124 107.26ZM536.884 104.98V103.98H535.785L535.889 105.075L536.884 104.98ZM559.264 104.98V105.98H560.264V104.98H559.264ZM536.884 99.7L535.887 99.6288L535.81 100.7H536.884V99.7ZM549.244 99.7V100.7H550.338L550.24 99.6111L549.244 99.7ZM525.564 102.7C525.564 107.67 527.236 111.917 530.33 114.922C533.422 117.925 537.843 119.6 543.184 119.6V117.6C538.265 117.6 534.377 116.065 531.724 113.488C529.072 110.913 527.564 107.21 527.564 102.7H525.564ZM543.184 119.6C548.023 119.6 552.067 118.406 555.035 116.26C558.017 114.105 559.862 111.023 560.317 107.384L558.332 107.136C557.947 110.217 556.402 112.805 553.863 114.64C551.312 116.484 547.706 117.6 543.184 117.6V119.6ZM559.324 106.26H549.124V108.26H559.324V106.26ZM548.156 107.012C547.715 108.729 546.124 109.86 543.184 109.86V111.86C546.604 111.86 549.333 110.471 550.093 107.508L548.156 107.012ZM543.184 109.86C541.515 109.86 540.296 109.393 539.458 108.608C538.616 107.819 538.043 106.602 537.88 104.885L535.889 105.075C536.085 107.138 536.803 108.861 538.091 110.067C539.383 111.277 541.134 111.86 543.184 111.86V109.86ZM536.884 105.98H559.264V103.98H536.884V105.98ZM560.264 104.98V102.28H558.264V104.98H560.264ZM560.264 102.28C560.264 97.292 558.674 93.193 555.601 90.3487C552.539 87.5138 548.129 86.04 542.704 86.04V88.04C547.78 88.04 551.65 89.4162 554.242 91.8163C556.825 94.207 558.264 97.728 558.264 102.28H560.264ZM542.704 86.04C537.787 86.04 533.491 87.5771 530.416 90.4747C527.333 93.3795 525.564 97.5705 525.564 102.7H527.564C527.564 98.0495 529.155 94.4105 531.788 91.9303C534.427 89.4429 538.201 88.04 542.704 88.04V86.04ZM537.882 99.7712C537.985 98.3204 538.529 97.2829 539.349 96.5969C540.182 95.8997 541.404 95.48 543.004 95.48V93.48C541.065 93.48 539.347 93.9903 538.065 95.0631C536.77 96.1471 536.023 97.7196 535.887 99.6288L537.882 99.7712ZM543.004 95.48C544.638 95.48 545.877 95.9012 546.725 96.6013C547.561 97.2909 548.118 98.3332 548.248 99.7889L550.24 99.6111C550.07 97.7068 549.308 96.1391 547.998 95.0587C546.702 93.9888 544.971 93.48 543.004 93.48V95.48ZM549.244 98.7H536.884V100.7H549.244V98.7ZM568.905 118H567.905V119H568.905V118ZM579.165 118V119H580.165V118H579.165ZM593.565 118H592.565V119H593.565V118ZM603.885 118V119H604.885V118H603.885ZM579.765 96.76V97.76H580.567L580.741 96.9769L579.765 96.76ZM577.245 96.76L576.297 96.4408L575.853 97.76H577.245V96.76ZM579.165 91.06L580.113 91.3792L580.165 91.2239V91.06H579.165ZM579.165 87.64H580.165V86.64H579.165V87.64ZM568.905 87.64V86.64H567.905V87.64H568.905ZM568.905 119H579.165V117H568.905V119ZM580.165 118V107.02H578.165V118H580.165ZM580.165 107.02C580.165 102.826 580.993 100.392 582.217 99.0041C583.413 97.6496 585.159 97.1 587.505 97.1V95.1C584.871 95.1 582.448 95.7204 580.718 97.6809C579.017 99.6079 578.165 102.634 578.165 107.02H580.165ZM587.505 97.1C589.669 97.1 590.803 97.5727 591.465 98.3984C592.18 99.2894 592.565 100.84 592.565 103.54H594.565C594.565 100.78 594.2 98.6106 593.025 97.1466C591.798 95.6173 589.901 95.1 587.505 95.1V97.1ZM592.565 103.54V118H594.565V103.54H592.565ZM593.565 119H603.885V117H593.565V119ZM604.885 118V101.86H602.885V118H604.885ZM604.885 101.86C604.885 96.902 603.63 92.9329 601.224 90.1905C598.803 87.4305 595.327 86.04 591.165 86.04V88.04C594.863 88.04 597.747 89.2595 599.721 91.5095C601.71 93.7771 602.885 97.218 602.885 101.86H604.885ZM591.165 86.04C587.685 86.04 584.889 87.2071 582.805 89.1422C580.735 91.0641 579.423 93.6911 578.789 96.5431L580.741 96.9769C581.307 94.4289 582.455 92.1959 584.166 90.6078C585.862 89.0329 588.165 88.04 591.165 88.04V86.04ZM579.765 95.76H577.245V97.76H579.765V95.76ZM578.193 97.0792L580.113 91.3792L578.217 90.7408L576.297 96.4408L578.193 97.0792ZM580.165 91.06V87.64H578.165V91.06H580.165ZM579.165 86.64H568.905V88.64H579.165V86.64ZM567.905 87.64V118H569.905V87.64H567.905ZM638.018 110.8V109.8H637.337L637.087 110.433L638.018 110.8ZM640.598 110.8L641.543 111.125L641.999 109.8H640.598V110.8ZM638.618 116.56L637.672 116.235L637.618 116.393V116.56H638.618ZM638.618 118H637.618V119H638.618V118ZM648.878 118V119H649.878V118H648.878ZM648.878 73.9H649.878V72.9H648.878V73.9ZM638.618 73.9V72.9H637.618V73.9H638.618ZM638.618 89.08H637.618V89.2487L637.673 89.4081L638.618 89.08ZM640.598 94.78V95.78H642.004L641.542 94.4519L640.598 94.78ZM638.018 94.78L637.089 95.1514L637.341 95.78H638.018V94.78ZM626.198 119.6C630.156 119.6 632.956 118.59 634.983 116.965C636.994 115.353 638.14 113.218 638.948 111.167L637.087 110.433C636.335 112.342 635.351 114.107 633.732 115.405C632.129 116.69 629.799 117.6 626.198 117.6V119.6ZM638.018 111.8H640.598V109.8H638.018V111.8ZM639.652 110.475L637.672 116.235L639.563 116.885L641.543 111.125L639.652 110.475ZM637.618 116.56V118H639.618V116.56H637.618ZM638.618 119H648.878V117H638.618V119ZM649.878 118V73.9H647.878V118H649.878ZM648.878 72.9H638.618V74.9H648.878V72.9ZM637.618 73.9V89.08H639.618V73.9H637.618ZM637.673 89.4081L639.653 95.1081L641.542 94.4519L639.562 88.7519L637.673 89.4081ZM640.598 93.78H638.018V95.78H640.598V93.78ZM638.946 94.4086C638.137 92.3872 636.991 90.2686 634.981 88.6657C632.955 87.0497 630.156 86.04 626.198 86.04V88.04C629.799 88.04 632.13 88.9503 633.734 90.2293C635.354 91.5213 636.338 93.2728 637.089 95.1514L638.946 94.4086ZM626.198 86.04C621.448 86.04 617.88 87.9986 615.528 91.1265C613.203 94.2194 612.118 98.3807 612.118 102.76H614.118C614.118 98.6793 615.133 94.9806 617.127 92.3285C619.095 89.7114 622.067 88.04 626.198 88.04V86.04ZM612.118 102.76C612.118 107.168 613.202 111.358 615.526 114.473C617.877 117.624 621.445 119.6 626.198 119.6V117.6C622.07 117.6 619.098 115.916 617.129 113.277C615.133 110.602 614.118 106.872 614.118 102.76H612.118ZM624.378 102.76C624.378 100.609 624.977 99.2723 625.97 98.4418C626.999 97.5802 628.639 97.1 631.058 97.1V95.1C628.436 95.1 626.237 95.6098 624.686 96.9082C623.098 98.2377 622.378 100.231 622.378 102.76H624.378ZM631.058 97.1C633.477 97.1 635.081 97.5806 636.077 98.4343C637.04 99.2595 637.618 100.595 637.618 102.76H639.618C639.618 100.245 638.936 98.2505 637.378 96.9157C635.854 95.6094 633.678 95.1 631.058 95.1V97.1ZM637.618 102.76C637.618 104.992 637.035 106.358 636.072 107.195C635.077 108.059 633.477 108.54 631.058 108.54V110.54C633.678 110.54 635.858 110.031 637.384 108.705C638.94 107.352 639.618 105.328 639.618 102.76H637.618ZM631.058 108.54C628.645 108.54 627.007 108.047 625.977 107.167C624.98 106.315 624.378 104.945 624.378 102.76H622.378C622.378 105.315 623.095 107.335 624.678 108.688C626.228 110.013 628.43 110.54 631.058 110.54V108.54Z" fill="#FF27A9" fill-opacity="0.8"/>
<path d="M2.05656 37.7H7.69656V49.94H2.05656V59H26.7766V49.94H18.0166V37.7H26.7766V28.64H18.0166V28.4C18.0166 25.16 19.2766 23.9 21.9766 23.9H28.4566V14.9H23.2966C12.6766 14.9 7.69656 19.58 7.69656 28.04V28.64H2.05656V37.7ZM36.3728 33.86V59H46.6928V37.7H62.0528V28.64H41.7128C38.2928 28.64 36.3728 30.44 36.3728 33.86ZM68.2108 43.76C68.2108 54.62 75.9508 59.6 85.4908 59.6C94.9108 59.6 102.711 54.62 102.711 43.76C102.711 33.02 94.9108 28.04 85.4908 28.04C75.9508 28.04 68.2108 33.02 68.2108 43.76ZM78.4708 43.76C78.4708 39.26 81.2908 37.1 85.4908 37.1C89.5708 37.1 92.3908 39.26 92.3908 43.76C92.3908 48.32 89.5708 50.54 85.4908 50.54C81.2908 50.54 78.4708 48.32 78.4708 43.76ZM112.368 59H122.628V48.02C122.628 39.44 125.988 37.1 130.968 37.1C135.528 37.1 137.028 39.08 137.028 44.54V59H147.348V42.86C147.348 33.26 142.488 28.04 134.628 28.04C128.148 28.04 124.428 32.36 123.228 37.76H120.708L122.628 32.06V28.64H112.368V59ZM183.769 49.94L172.489 50V37.7H182.569V28.64H172.489V20L162.229 23.24V28.64H154.909V37.7H162.229V53.72C162.229 57.14 164.089 59 167.449 59H183.769V49.94ZM191.323 43.7C191.323 53.18 197.683 59.6 207.943 59.6C217.303 59.6 223.243 54.98 224.083 48.26H213.883C213.283 50.6 211.123 51.86 207.943 51.86C204.223 51.86 202.003 49.76 201.643 45.98H224.023V43.28C224.023 33.74 217.963 28.04 207.463 28.04C198.043 28.04 191.323 33.92 191.323 43.7ZM201.643 40.7C201.883 37.34 204.223 35.48 207.763 35.48C211.363 35.48 213.703 37.34 214.003 40.7H201.643ZM233.664 59H243.924V48.02C243.924 39.44 247.284 37.1 252.264 37.1C256.824 37.1 258.324 39.08 258.324 44.54V59H268.644V42.86C268.644 33.26 263.784 28.04 255.924 28.04C249.444 28.04 245.724 32.36 244.524 37.76H242.004L243.924 32.06V28.64H233.664V59ZM290.957 59.6C298.517 59.6 301.217 55.76 302.777 51.8H305.357L303.377 57.56V59H313.637V14.9H303.377V30.08L305.357 35.78H302.777C301.217 31.88 298.517 28.04 290.957 28.04C282.077 28.04 277.877 35.3 277.877 43.76C277.877 52.28 282.077 59.6 290.957 59.6ZM288.137 43.76C288.137 39.08 290.777 37.1 295.817 37.1C300.857 37.1 303.377 39.08 303.377 43.76C303.377 48.56 300.857 50.54 295.817 50.54C290.777 50.54 288.137 48.5 288.137 43.76Z" fill="#FF27A9" fill-opacity="0.8"/>
<path d="M8.05656 32.7H13.6966V44.94H8.05656V54H32.7766V44.94H24.0166V32.7H32.7766V23.64H24.0166V23.4C24.0166 20.16 25.2766 18.9 27.9766 18.9H34.4566V9.9H29.2966C18.6766 9.9 13.6966 14.58 13.6966 23.04V23.64H8.05656V32.7ZM42.3728 28.86V54H52.6928V32.7H68.0528V23.64H47.7128C44.2928 23.64 42.3728 25.44 42.3728 28.86ZM74.2108 38.76C74.2108 49.62 81.9508 54.6 91.4908 54.6C100.911 54.6 108.711 49.62 108.711 38.76C108.711 28.02 100.911 23.04 91.4908 23.04C81.9508 23.04 74.2108 28.02 74.2108 38.76ZM84.4708 38.76C84.4708 34.26 87.2908 32.1 91.4908 32.1C95.5708 32.1 98.3908 34.26 98.3908 38.76C98.3908 43.32 95.5708 45.54 91.4908 45.54C87.2908 45.54 84.4708 43.32 84.4708 38.76ZM118.368 54H128.628V43.02C128.628 34.44 131.988 32.1 136.968 32.1C141.528 32.1 143.028 34.08 143.028 39.54V54H153.348V37.86C153.348 28.26 148.488 23.04 140.628 23.04C134.148 23.04 130.428 27.36 129.228 32.76H126.708L128.628 27.06V23.64H118.368V54ZM189.769 44.94L178.489 45V32.7H188.569V23.64H178.489V15L168.229 18.24V23.64H160.909V32.7H168.229V48.72C168.229 52.14 170.089 54 173.449 54H189.769V44.94ZM197.323 38.7C197.323 48.18 203.683 54.6 213.943 54.6C223.303 54.6 229.243 49.98 230.083 43.26H219.883C219.283 45.6 217.123 46.86 213.943 46.86C210.223 46.86 208.003 44.76 207.643 40.98H230.023V38.28C230.023 28.74 223.963 23.04 213.463 23.04C204.043 23.04 197.323 28.92 197.323 38.7ZM207.643 35.7C207.883 32.34 210.223 30.48 213.763 30.48C217.363 30.48 219.703 32.34 220.003 35.7H207.643ZM239.664 54H249.924V43.02C249.924 34.44 253.284 32.1 258.264 32.1C262.824 32.1 264.324 34.08 264.324 39.54V54H274.644V37.86C274.644 28.26 269.784 23.04 261.924 23.04C255.444 23.04 251.724 27.36 250.524 32.76H248.004L249.924 27.06V23.64H239.664V54ZM296.957 54.6C304.517 54.6 307.217 50.76 308.777 46.8H311.357L309.377 52.56V54H319.637V9.9H309.377V25.08L311.357 30.78H308.777C307.217 26.88 304.517 23.04 296.957 23.04C288.077 23.04 283.877 30.3 283.877 38.76C283.877 47.28 288.077 54.6 296.957 54.6ZM294.137 38.76C294.137 34.08 296.777 32.1 301.817 32.1C306.857 32.1 309.377 34.08 309.377 38.76C309.377 43.56 306.857 45.54 301.817 45.54C296.777 45.54 294.137 43.5 294.137 38.76Z" fill="white"/>
<path d="M361.136 114H360.136V115H361.136V114ZM371.396 114V115H372.396V114H371.396ZM371.396 112.56H372.396V112.398L372.344 112.244L371.396 112.56ZM369.476 106.8V105.8H368.088L368.527 107.116L369.476 106.8ZM371.996 106.8L372.926 106.433L372.676 105.8H371.996V106.8ZM371.996 90.78V91.78H372.673L372.924 91.1514L371.996 90.78ZM369.476 90.78L368.528 90.4608L368.083 91.78H369.476V90.78ZM371.396 85.08L372.343 85.3992L372.396 85.2439V85.08H371.396ZM371.396 69.9H372.396V68.9H371.396V69.9ZM361.136 69.9V68.9H360.136V69.9H361.136ZM361.136 115H371.396V113H361.136V115ZM372.396 114V112.56H370.396V114H372.396ZM372.344 112.244L370.424 106.484L368.527 107.116L370.447 112.876L372.344 112.244ZM369.476 107.8H371.996V105.8H369.476V107.8ZM371.065 107.167C371.873 109.218 373.019 111.353 375.03 112.965C377.057 114.59 379.857 115.6 383.816 115.6V113.6C380.214 113.6 377.884 112.69 376.281 111.405C374.662 110.107 373.678 108.342 372.926 106.433L371.065 107.167ZM383.816 115.6C388.568 115.6 392.136 113.624 394.487 110.473C396.811 107.358 397.896 103.168 397.896 98.76H395.896C395.896 102.872 394.88 106.602 392.884 109.277C390.915 111.916 387.943 113.6 383.816 113.6V115.6ZM397.896 98.76C397.896 94.3807 396.811 90.2194 394.485 87.1265C392.133 83.9986 388.565 82.04 383.816 82.04V84.04C387.946 84.04 390.918 85.7114 392.886 88.3285C394.881 90.9806 395.896 94.6793 395.896 98.76H397.896ZM383.816 82.04C379.857 82.04 377.058 83.0497 375.032 84.6657C373.022 86.2686 371.876 88.3872 371.067 90.4086L372.924 91.1514C373.675 89.2728 374.659 87.5213 376.279 86.2293C377.883 84.9503 380.214 84.04 383.816 84.04V82.04ZM371.996 89.78H369.476V91.78H371.996V89.78ZM370.423 91.0992L372.343 85.3992L370.448 84.7608L368.528 90.4608L370.423 91.0992ZM372.396 85.08V69.9H370.396V85.08H372.396ZM371.396 68.9H361.136V70.9H371.396V68.9ZM360.136 69.9V114H362.136V69.9H360.136ZM372.396 98.76C372.396 96.5951 372.974 95.2595 373.936 94.4343C374.932 93.5806 376.536 93.1 378.956 93.1V91.1C376.335 91.1 374.159 91.6094 372.635 92.9157C371.078 94.2505 370.396 96.2449 370.396 98.76H372.396ZM378.956 93.1C381.407 93.1 383.044 93.5813 384.064 94.4399C385.047 95.2676 385.636 96.6021 385.636 98.76H387.636C387.636 96.2379 386.934 94.2424 385.352 92.9101C383.807 91.6087 381.604 91.1 378.956 91.1V93.1ZM385.636 98.76C385.636 100.952 385.044 102.32 384.056 103.169C383.036 104.046 381.401 104.54 378.956 104.54V106.54C381.61 106.54 383.815 106.014 385.36 104.686C386.937 103.33 387.636 101.308 387.636 98.76H385.636ZM378.956 104.54C376.536 104.54 374.936 104.059 373.942 103.195C372.978 102.358 372.396 100.992 372.396 98.76H370.396C370.396 101.328 371.073 103.352 372.63 104.705C374.155 106.031 376.335 106.54 378.956 106.54V104.54ZM429.342 105.42V104.42H428.548L428.368 105.194L429.342 105.42ZM431.862 105.42L432.777 105.825L433.399 104.42H431.862V105.42ZM430.242 109.08L429.328 108.675L429.242 108.869V109.08H430.242ZM441.882 114V115H442.882V114H441.882ZM441.882 104.94H442.882V103.94H441.882V104.94ZM437.502 104.94H436.502V105.94H437.502V104.94ZM406.302 95.16L405.303 95.1374L405.28 96.16H406.302V95.16ZM415.962 95.16V96.16H416.919L416.961 95.2044L415.962 95.16ZM427.182 95.34L427.292 96.334L428.182 96.2357V95.34H427.182ZM417.942 96.36L418.045 97.3547L418.052 97.354L417.942 96.36ZM419.862 101.58L419.716 100.591L419.709 100.592L419.862 101.58ZM427.182 100.5H428.182V99.3416L427.036 99.5107L427.182 100.5ZM404.582 105.72C404.582 107.429 405.023 109.917 406.841 111.989C408.683 114.09 411.795 115.6 416.802 115.6V113.6C412.21 113.6 409.712 112.23 408.344 110.671C406.952 109.083 406.582 107.131 406.582 105.72H404.582ZM416.802 115.6C421.231 115.6 424.339 114.49 426.497 112.609C428.644 110.737 429.721 108.215 430.317 105.646L428.368 105.194C427.823 107.545 426.891 109.613 425.183 111.101C423.486 112.58 420.894 113.6 416.802 113.6V115.6ZM429.342 106.42H431.862V104.42H429.342V106.42ZM430.948 105.015L429.328 108.675L431.157 109.485L432.777 105.825L430.948 105.015ZM429.242 109.08V109.38H431.242V109.08H429.242ZM429.242 109.38C429.242 111.048 429.74 112.486 430.78 113.506C431.816 114.523 433.265 115 434.922 115V113C433.64 113 432.749 112.637 432.18 112.079C431.615 111.524 431.242 110.652 431.242 109.38H429.242ZM434.922 115H441.882V113H434.922V115ZM442.882 114V104.94H440.882V114H442.882ZM441.882 103.94H437.502V105.94H441.882V103.94ZM438.502 104.94V95.58H436.502V104.94H438.502ZM438.502 95.58C438.502 90.8649 436.446 87.426 433.243 85.2034C430.083 83.0113 425.872 82.04 421.542 82.04V84.04C425.612 84.04 429.382 84.9587 432.102 86.8466C434.779 88.704 436.502 91.5351 436.502 95.58H438.502ZM421.542 82.04C417.221 82.04 413.229 83.111 410.267 85.3038C407.276 87.5187 405.4 90.8361 405.303 95.1374L407.302 95.1826C407.385 91.5039 408.959 88.7613 411.457 86.9112C413.986 85.039 417.524 84.04 421.542 84.04V82.04ZM406.302 96.16H415.962V94.16H406.302V96.16ZM416.961 95.2044C417.009 94.1333 417.431 93.3615 418.169 92.8275C418.943 92.2669 420.165 91.9 421.902 91.9V89.9C419.92 89.9 418.231 90.3131 416.996 91.2075C415.724 92.1285 415.036 93.4867 414.963 95.1156L416.961 95.2044ZM421.902 91.9C423.556 91.9 424.599 92.206 425.22 92.7064C425.794 93.1686 426.182 93.9408 426.182 95.34H428.182C428.182 93.5592 427.671 92.1114 426.475 91.1486C425.326 90.224 423.729 89.9 421.902 89.9V91.9ZM427.073 94.346L417.833 95.366L418.052 97.354L427.292 96.334L427.073 94.346ZM417.84 95.3653C413.126 95.8519 409.8 96.8989 407.646 98.6427C405.425 100.44 404.582 102.864 404.582 105.72H406.582C406.582 103.296 407.27 101.52 408.904 100.197C410.604 98.8211 413.459 97.8281 418.045 97.3547L417.84 95.3653ZM416.662 103.98C416.662 103.714 416.719 103.587 416.768 103.515C416.821 103.436 416.929 103.329 417.178 103.211C417.731 102.949 418.618 102.786 420.016 102.568L419.709 100.592C418.407 100.794 417.194 100.991 416.322 101.404C415.858 101.623 415.422 101.933 415.11 102.396C414.793 102.866 414.662 103.406 414.662 103.98H416.662ZM420.008 102.569L427.328 101.489L427.036 99.5107L419.716 100.591L420.008 102.569ZM426.182 100.5C426.182 101.974 425.496 103.174 424.319 104.036C423.122 104.913 421.406 105.44 419.442 105.44V107.44C421.739 107.44 423.893 106.827 425.501 105.649C427.129 104.456 428.182 102.686 428.182 100.5H426.182ZM419.442 105.44C418.498 105.44 417.753 105.319 417.276 105.068C417.054 104.951 416.915 104.819 416.826 104.674C416.738 104.532 416.662 104.319 416.662 103.98H414.662C414.662 104.631 414.812 105.221 415.124 105.725C415.434 106.228 415.868 106.586 416.344 106.837C417.262 107.321 418.407 107.44 419.442 107.44V105.44ZM482.65 101.28L483.649 101.322L483.693 100.28H482.65V101.28ZM472.33 101.28V100.28H471.453L471.339 101.15L472.33 101.28ZM472.33 96.36L471.339 96.4905L471.453 97.36H472.33V96.36ZM482.65 96.36V97.36H483.693L483.649 96.3178L482.65 96.36ZM448.29 98.76C448.29 104.191 450.151 108.439 453.371 111.318C456.575 114.183 461.019 115.6 466.03 115.6V113.6C461.381 113.6 457.455 112.287 454.704 109.827C451.969 107.381 450.29 103.709 450.29 98.76H448.29ZM466.03 115.6C470.553 115.6 474.84 114.353 478.067 111.935C481.315 109.502 483.456 105.9 483.649 101.322L481.651 101.238C481.484 105.18 479.665 108.238 476.868 110.335C474.05 112.447 470.207 113.6 466.03 113.6V115.6ZM482.65 100.28H472.33V102.28H482.65V100.28ZM471.339 101.15C471.123 102.785 469.472 104.54 466.03 104.54V106.54C470.149 106.54 472.937 104.335 473.322 101.41L471.339 101.15ZM466.03 104.54C464.446 104.54 463.091 104.028 462.138 103.099C461.191 102.176 460.55 100.756 460.55 98.76H458.55C458.55 101.204 459.349 103.174 460.742 104.531C462.129 105.882 464.014 106.54 466.03 106.54V104.54ZM460.55 98.76C460.55 96.7989 461.188 95.4109 462.131 94.5106C463.082 93.6018 464.439 93.1 466.03 93.1V91.1C464.021 91.1 462.138 91.7382 460.749 93.0644C459.352 94.3991 458.55 96.3411 458.55 98.76H460.55ZM466.03 93.1C469.472 93.1 471.123 94.8546 471.339 96.4905L473.322 96.2295C472.937 93.3054 470.149 91.1 466.03 91.1V93.1ZM472.33 97.36H482.65V95.36H472.33V97.36ZM483.649 96.3178C483.456 91.7395 481.315 88.1383 478.067 85.7048C474.84 83.2865 470.553 82.04 466.03 82.04V84.04C470.207 84.04 474.05 85.1935 476.868 87.3052C479.665 89.4017 481.484 92.4605 481.651 96.4022L483.649 96.3178ZM466.03 82.04C461.022 82.04 456.579 83.4405 453.374 86.2818C450.153 89.1381 448.29 93.3566 448.29 98.76H450.29C450.29 93.8434 451.968 90.2018 454.701 87.7782C457.451 85.3395 461.378 84.04 466.03 84.04V82.04ZM492.334 114H491.334V115H492.334V114ZM502.594 114V115H503.594V114H502.594ZM502.594 102.36V101.36H501.594V102.36H502.594ZM504.994 102.36L505.783 101.746L505.483 101.36H504.994V102.36ZM514.054 114L513.265 114.614L513.565 115H514.054V114ZM526.414 114V115H528.526L527.188 113.366L526.414 114ZM513.634 98.4L512.878 97.7454L512.327 98.3822L512.86 99.0337L513.634 98.4ZM526.414 83.64L527.17 84.2946L528.603 82.64H526.414V83.64ZM514.054 83.64V82.64H513.577L513.277 83.0111L514.054 83.64ZM505.414 94.32V95.32H505.891L506.191 94.9489L505.414 94.32ZM502.594 94.32H501.594V95.32H502.594V94.32ZM502.594 69.9H503.594V68.9H502.594V69.9ZM492.334 69.9V68.9H491.334V69.9H492.334ZM492.334 115H502.594V113H492.334V115ZM503.594 114V102.36H501.594V114H503.594ZM502.594 103.36H504.994V101.36H502.594V103.36ZM504.205 102.974L513.265 114.614L514.843 113.386L505.783 101.746L504.205 102.974ZM514.054 115H526.414V113H514.054V115ZM527.188 113.366L514.408 97.7663L512.86 99.0337L525.64 114.634L527.188 113.366ZM514.39 99.0546L527.17 84.2946L525.658 82.9854L512.878 97.7454L514.39 99.0546ZM526.414 82.64H514.054V84.64H526.414V82.64ZM513.277 83.0111L504.637 93.6911L506.191 94.9489L514.831 84.2689L513.277 83.0111ZM505.414 93.32H502.594V95.32H505.414V93.32ZM503.594 94.32V69.9H501.594V94.32H503.594ZM502.594 68.9H492.334V70.9H502.594V68.9ZM491.334 69.9V114H493.334V69.9H491.334ZM563.324 103.26L564.317 103.384L564.457 102.26H563.324V103.26ZM553.124 103.26V102.26H552.348L552.156 103.012L553.124 103.26ZM540.884 100.98V99.98H539.785L539.889 101.075L540.884 100.98ZM563.264 100.98V101.98H564.264V100.98H563.264ZM540.884 95.7L539.887 95.6288L539.81 96.7H540.884V95.7ZM553.244 95.7V96.7H554.338L554.24 95.6111L553.244 95.7ZM529.564 98.7C529.564 103.67 531.236 107.917 534.33 110.922C537.422 113.925 541.843 115.6 547.184 115.6V113.6C542.265 113.6 538.377 112.065 535.724 109.488C533.072 106.913 531.564 103.21 531.564 98.7H529.564ZM547.184 115.6C552.023 115.6 556.067 114.406 559.035 112.26C562.017 110.105 563.862 107.023 564.317 103.384L562.332 103.136C561.947 106.217 560.402 108.805 557.863 110.64C555.312 112.484 551.706 113.6 547.184 113.6V115.6ZM563.324 102.26H553.124V104.26H563.324V102.26ZM552.156 103.012C551.715 104.729 550.124 105.86 547.184 105.86V107.86C550.604 107.86 553.333 106.471 554.093 103.508L552.156 103.012ZM547.184 105.86C545.515 105.86 544.296 105.393 543.458 104.608C542.616 103.819 542.043 102.602 541.88 100.885L539.889 101.075C540.085 103.138 540.803 104.861 542.091 106.067C543.383 107.277 545.134 107.86 547.184 107.86V105.86ZM540.884 101.98H563.264V99.98H540.884V101.98ZM564.264 100.98V98.28H562.264V100.98H564.264ZM564.264 98.28C564.264 93.292 562.674 89.193 559.601 86.3487C556.539 83.5138 552.129 82.04 546.704 82.04V84.04C551.78 84.04 555.65 85.4162 558.242 87.8163C560.825 90.207 562.264 93.728 562.264 98.28H564.264ZM546.704 82.04C541.787 82.04 537.491 83.5771 534.416 86.4747C531.333 89.3795 529.564 93.5705 529.564 98.7H531.564C531.564 94.0495 533.155 90.4105 535.788 87.9303C538.427 85.4429 542.201 84.04 546.704 84.04V82.04ZM541.882 95.7712C541.985 94.3204 542.529 93.2829 543.349 92.5969C544.182 91.8997 545.404 91.48 547.004 91.48V89.48C545.065 89.48 543.347 89.9903 542.065 91.0631C540.77 92.1471 540.023 93.7196 539.887 95.6288L541.882 95.7712ZM547.004 91.48C548.638 91.48 549.877 91.9012 550.725 92.6013C551.561 93.2909 552.118 94.3332 552.248 95.7889L554.24 95.6111C554.07 93.7068 553.308 92.1391 551.998 91.0587C550.702 89.9888 548.971 89.48 547.004 89.48V91.48ZM553.244 94.7H540.884V96.7H553.244V94.7ZM572.905 114H571.905V115H572.905V114ZM583.165 114V115H584.165V114H583.165ZM597.565 114H596.565V115H597.565V114ZM607.885 114V115H608.885V114H607.885ZM583.765 92.76V93.76H584.567L584.741 92.9769L583.765 92.76ZM581.245 92.76L580.297 92.4408L579.853 93.76H581.245V92.76ZM583.165 87.06L584.113 87.3792L584.165 87.2239V87.06H583.165ZM583.165 83.64H584.165V82.64H583.165V83.64ZM572.905 83.64V82.64H571.905V83.64H572.905ZM572.905 115H583.165V113H572.905V115ZM584.165 114V103.02H582.165V114H584.165ZM584.165 103.02C584.165 98.8255 584.993 96.3921 586.217 95.0041C587.413 93.6496 589.159 93.1 591.505 93.1V91.1C588.871 91.1 586.448 91.7204 584.718 93.6809C583.017 95.6079 582.165 98.6345 582.165 103.02H584.165ZM591.505 93.1C593.669 93.1 594.803 93.5727 595.465 94.3984C596.18 95.2894 596.565 96.8405 596.565 99.54H598.565C598.565 96.7795 598.2 94.6106 597.025 93.1466C595.798 91.6173 593.901 91.1 591.505 91.1V93.1ZM596.565 99.54V114H598.565V99.54H596.565ZM597.565 115H607.885V113H597.565V115ZM608.885 114V97.86H606.885V114H608.885ZM608.885 97.86C608.885 92.902 607.63 88.9329 605.224 86.1905C602.803 83.4305 599.327 82.04 595.165 82.04V84.04C598.863 84.04 601.747 85.2595 603.721 87.5095C605.71 89.7771 606.885 93.218 606.885 97.86H608.885ZM595.165 82.04C591.685 82.04 588.889 83.2071 586.805 85.1422C584.735 87.0641 583.423 89.6911 582.789 92.5431L584.741 92.9769C585.307 90.4289 586.455 88.1959 588.166 86.6078C589.862 85.0329 592.165 84.04 595.165 84.04V82.04ZM583.765 91.76H581.245V93.76H583.765V91.76ZM582.193 93.0792L584.113 87.3792L582.217 86.7408L580.297 92.4408L582.193 93.0792ZM584.165 87.06V83.64H582.165V87.06H584.165ZM583.165 82.64H572.905V84.64H583.165V82.64ZM571.905 83.64V114H573.905V83.64H571.905ZM642.018 106.8V105.8H641.337L641.087 106.433L642.018 106.8ZM644.598 106.8L645.543 107.125L645.999 105.8H644.598V106.8ZM642.618 112.56L641.672 112.235L641.618 112.393V112.56H642.618ZM642.618 114H641.618V115H642.618V114ZM652.878 114V115H653.878V114H652.878ZM652.878 69.9H653.878V68.9H652.878V69.9ZM642.618 69.9V68.9H641.618V69.9H642.618ZM642.618 85.08H641.618V85.2487L641.673 85.4081L642.618 85.08ZM644.598 90.78V91.78H646.004L645.542 90.4519L644.598 90.78ZM642.018 90.78L641.089 91.1514L641.341 91.78H642.018V90.78ZM630.198 115.6C634.156 115.6 636.956 114.59 638.983 112.965C640.994 111.353 642.14 109.218 642.948 107.167L641.087 106.433C640.335 108.342 639.351 110.107 637.732 111.405C636.129 112.69 633.799 113.6 630.198 113.6V115.6ZM642.018 107.8H644.598V105.8H642.018V107.8ZM643.652 106.475L641.672 112.235L643.563 112.885L645.543 107.125L643.652 106.475ZM641.618 112.56V114H643.618V112.56H641.618ZM642.618 115H652.878V113H642.618V115ZM653.878 114V69.9H651.878V114H653.878ZM652.878 68.9H642.618V70.9H652.878V68.9ZM641.618 69.9V85.08H643.618V69.9H641.618ZM641.673 85.4081L643.653 91.1081L645.542 90.4519L643.562 84.7519L641.673 85.4081ZM644.598 89.78H642.018V91.78H644.598V89.78ZM642.946 90.4086C642.137 88.3872 640.991 86.2686 638.981 84.6657C636.955 83.0497 634.156 82.04 630.198 82.04V84.04C633.799 84.04 636.13 84.9503 637.734 86.2293C639.354 87.5213 640.338 89.2728 641.089 91.1514L642.946 90.4086ZM630.198 82.04C625.448 82.04 621.88 83.9986 619.528 87.1265C617.203 90.2194 616.118 94.3807 616.118 98.76H618.118C618.118 94.6793 619.133 90.9806 621.127 88.3285C623.095 85.7114 626.067 84.04 630.198 84.04V82.04ZM616.118 98.76C616.118 103.168 617.202 107.358 619.526 110.473C621.877 113.624 625.445 115.6 630.198 115.6V113.6C626.07 113.6 623.098 111.916 621.129 109.277C619.133 106.602 618.118 102.872 618.118 98.76H616.118ZM628.378 98.76C628.378 96.6088 628.977 95.2723 629.97 94.4418C630.999 93.5802 632.639 93.1 635.058 93.1V91.1C632.436 91.1 630.237 91.6098 628.686 92.9082C627.098 94.2377 626.378 96.2312 626.378 98.76H628.378ZM635.058 93.1C637.477 93.1 639.081 93.5806 640.077 94.4343C641.04 95.2595 641.618 96.5951 641.618 98.76H643.618C643.618 96.2449 642.936 94.2505 641.378 92.9157C639.854 91.6094 637.678 91.1 635.058 91.1V93.1ZM641.618 98.76C641.618 100.992 641.035 102.358 640.072 103.195C639.077 104.059 637.477 104.54 635.058 104.54V106.54C637.678 106.54 639.858 106.031 641.384 104.705C642.94 103.352 643.618 101.328 643.618 98.76H641.618ZM635.058 104.54C632.645 104.54 631.007 104.047 629.977 103.167C628.98 102.315 628.378 100.945 628.378 98.76H626.378C626.378 101.315 627.095 103.335 628.678 104.688C630.228 106.013 632.43 106.54 635.058 106.54V104.54Z" fill="white"/>
<line x1="308.377" y1="116.972" x2="368.972" y2="2.62305" stroke="white" stroke-width="3" stroke-linecap="square"/>
</svg>
