<svg viewBox="0 0 900 133" fill="none" xmlns="http://www.w3.org/2000/svg">
<path d="M0.920794 53.3H-0.0792064V54.3H0.920794V53.3ZM14.0808 53.3H15.0808V52.3H14.0808V53.3ZM14.0808 81.86V82.86H15.0808V81.86H14.0808ZM0.920794 81.86V80.86H-0.0792064V81.86H0.920794ZM0.920794 103H-0.0792064V104H0.920794V103ZM58.6008 103V104H59.6008V103H58.6008ZM58.6008 81.86H59.6008V80.86H58.6008V81.86ZM38.1608 81.86H37.1608V82.86H38.1608V81.86ZM38.1608 53.3V52.3H37.1608V53.3H38.1608ZM58.6008 53.3V54.3H59.6008V53.3H58.6008ZM58.6008 32.16H59.6008V31.16H58.6008V32.16ZM38.1608 32.16H37.1608V33.16H38.1608V32.16ZM62.5208 21.1V22.1H63.5208V21.1H62.5208ZM62.5208 0.099998H63.5208V-0.900002H62.5208V0.099998ZM14.0808 32.16V33.16H15.0808V32.16H14.0808ZM0.920794 32.16V31.16H-0.0792064V32.16H0.920794ZM0.920794 54.3H14.0808V52.3H0.920794V54.3ZM13.0808 53.3V81.86H15.0808V53.3H13.0808ZM14.0808 80.86H0.920794V82.86H14.0808V80.86ZM-0.0792064 81.86V103H1.92079V81.86H-0.0792064ZM0.920794 104H58.6008V102H0.920794V104ZM59.6008 103V81.86H57.6008V103H59.6008ZM58.6008 80.86H38.1608V82.86H58.6008V80.86ZM39.1608 81.86V53.3H37.1608V81.86H39.1608ZM38.1608 54.3H58.6008V52.3H38.1608V54.3ZM59.6008 53.3V32.16H57.6008V53.3H59.6008ZM58.6008 31.16H38.1608V33.16H58.6008V31.16ZM39.1608 32.16V31.6H37.1608V32.16H39.1608ZM39.1608 31.6C39.1608 27.9148 39.8838 25.594 41.1593 24.1865C42.4128 22.8033 44.3879 22.1 47.4008 22.1V20.1C44.1137 20.1 41.4688 20.8667 39.6773 22.8435C37.9078 24.796 37.1608 27.7252 37.1608 31.6H39.1608ZM47.4008 22.1H62.5208V20.1H47.4008V22.1ZM63.5208 21.1V0.099998H61.5208V21.1H63.5208ZM62.5208 -0.900002H50.4808V1.1H62.5208V-0.900002ZM50.4808 -0.900002C37.965 -0.900002 28.5891 1.85504 22.3337 7.27152C16.0517 12.711 13.0808 20.6901 13.0808 30.76H15.0808C15.0808 21.0899 17.9199 13.739 23.6429 8.78348C29.3925 3.80496 38.2166 1.1 50.4808 1.1V-0.900002ZM13.0808 30.76V32.16H15.0808V30.76H13.0808ZM14.0808 31.16H0.920794V33.16H14.0808V31.16ZM-0.0792064 32.16V53.3H1.92079V32.16H-0.0792064ZM136.949 81.72V80.72H136.147L135.973 81.5031L136.949 81.72ZM142.829 81.72L143.777 82.0392L144.221 80.72H142.829V81.72ZM138.349 95.02L137.402 94.7008L137.349 94.8561V95.02H138.349ZM138.349 103H137.349V104H138.349V103ZM162.289 103V104H163.289V103H162.289ZM162.289 32.16H163.289V31.16H162.289V32.16ZM138.349 32.16V31.16H137.349V32.16H138.349ZM104.749 32.16H105.749V31.16H104.749V32.16ZM80.6694 32.16V31.16H79.6694V32.16H80.6694ZM110.209 105.4C118.009 105.4 124.239 102.793 128.877 98.5205C133.502 94.2599 136.491 88.3929 137.926 81.9369L135.973 81.5031C134.608 87.6471 131.787 93.1201 127.522 97.0495C123.27 100.967 117.53 103.4 110.209 103.4V105.4ZM136.949 82.72H142.829V80.72H136.949V82.72ZM141.882 81.4008L137.402 94.7008L139.297 95.3392L143.777 82.0392L141.882 81.4008ZM137.349 95.02V103H139.349V95.02H137.349ZM138.349 104H162.289V102H138.349V104ZM163.289 103V32.16H161.289V103H163.289ZM162.289 31.16H138.349V33.16H162.289V31.16ZM137.349 32.16V57.78H139.349V32.16H137.349ZM137.349 57.78C137.349 67.6944 135.402 73.7679 132.227 77.3659C129.082 80.9304 124.555 82.26 118.889 82.26V84.26C124.844 84.26 130.047 82.8596 133.727 78.6891C137.377 74.5521 139.349 67.8855 139.349 57.78H137.349ZM118.889 82.26C113.685 82.26 110.532 81.1273 108.609 78.7316C106.634 76.2706 105.749 72.2395 105.749 65.9H103.749C103.749 72.3005 104.615 76.9494 107.049 79.9834C109.537 83.0827 113.454 84.26 118.889 84.26V82.26ZM105.749 65.9V32.16H103.749V65.9H105.749ZM104.749 31.16H80.6694V33.16H104.749V31.16ZM79.6694 32.16V69.82H81.6694V32.16H79.6694ZM79.6694 69.82C79.6694 81.1751 82.508 90.0838 87.8079 96.1669C93.1245 102.269 100.807 105.4 110.209 105.4V103.4C101.272 103.4 94.1843 100.441 89.3159 94.8531C84.4308 89.2462 81.6694 80.8649 81.6694 69.82H79.6694ZM185.711 103H184.711V104H185.711V103ZM209.651 103V104H210.651V103H209.651ZM243.251 103H242.251V104H243.251V103ZM267.331 103V104H268.331V103H267.331ZM211.051 53.44V54.44H211.853L212.027 53.6569L211.051 53.44ZM205.171 53.44L204.223 53.1208L203.779 54.44H205.171V53.44ZM209.651 40.14L210.599 40.4592L210.651 40.3039V40.14H209.651ZM209.651 32.16H210.651V31.16H209.651V32.16ZM185.711 32.16V31.16H184.711V32.16H185.711ZM185.711 104H209.651V102H185.711V104ZM210.651 103V77.38H208.651V103H210.651ZM210.651 77.38C210.651 67.4655 212.599 61.3921 215.773 57.7941C218.918 54.2296 223.445 52.9 229.111 52.9V50.9C223.157 50.9 217.953 52.3004 214.274 56.4709C210.623 60.6079 208.651 67.2744 208.651 77.38H210.651ZM229.111 52.9C234.315 52.9 237.468 54.0327 239.391 56.4284C241.366 58.8894 242.251 62.9205 242.251 69.26H244.251C244.251 62.8595 243.386 58.2106 240.951 55.1766C238.464 52.0773 234.547 50.9 229.111 50.9V52.9ZM242.251 69.26V103H244.251V69.26H242.251ZM243.251 104H267.331V102H243.251V104ZM268.331 103V65.34H266.331V103H268.331ZM268.331 65.34C268.331 53.982 265.456 45.0729 260.12 38.9905C254.769 32.8905 247.053 29.76 237.651 29.76V31.76C246.589 31.76 253.713 34.7195 258.617 40.3095C263.536 45.9171 266.331 54.298 266.331 65.34H268.331ZM237.651 29.76C229.851 29.76 223.654 32.3671 219.05 36.6422C214.461 40.9041 211.509 46.7711 210.075 53.2231L212.027 53.6569C213.393 47.5089 216.181 42.0359 220.411 38.1078C224.627 34.1929 230.331 31.76 237.651 31.76V29.76ZM211.051 52.44H205.171V54.44H211.051V52.44ZM206.119 53.7592L210.599 40.4592L208.703 39.8208L204.223 53.1208L206.119 53.7592ZM210.651 40.14V32.16H208.651V40.14H210.651ZM209.651 31.16H185.711V33.16H209.651V31.16ZM184.711 32.16V103H186.711V32.16H184.711ZM397.018 86.2V85.2H396.337L396.088 85.8335L397.018 86.2ZM403.038 86.2L403.984 86.5251L404.439 85.2H403.038V86.2ZM398.418 99.64L397.472 99.3149L397.418 99.4729V99.64H398.418ZM398.418 103H397.418V104H398.418V103ZM422.358 103V104H423.358V103H422.358ZM422.358 0.099998H423.358V-0.900002H422.358V0.099998ZM398.418 0.099998V-0.900002H397.418V0.099998H398.418ZM398.418 35.52H397.418V35.6887L397.473 35.8481L398.418 35.52ZM403.038 48.82V49.82H404.444L403.983 48.4919L403.038 48.82ZM397.018 48.82L396.09 49.1914L396.341 49.82H397.018V48.82ZM369.438 105.4C378.437 105.4 384.656 103.11 389.104 99.5452C393.534 95.9934 396.1 91.2584 397.948 86.5665L396.088 85.8335C394.296 90.3816 391.892 94.7466 387.853 97.9848C383.83 101.21 378.079 103.4 369.438 103.4V105.4ZM397.018 87.2H403.038V85.2H397.018V87.2ZM402.092 85.8749L397.472 99.3149L399.364 99.9651L403.984 86.5251L402.092 85.8749ZM397.418 99.64V103H399.418V99.64H397.418ZM398.418 104H422.358V102H398.418V104ZM423.358 103V0.099998H421.358V103H423.358ZM422.358 -0.900002H398.418V1.1H422.358V-0.900002ZM397.418 0.099998V35.52H399.418V0.099998H397.418ZM397.473 35.8481L402.093 49.1481L403.983 48.4919L399.363 35.1919L397.473 35.8481ZM403.038 47.82H397.018V49.82H403.038V47.82ZM397.946 48.4486C396.098 43.8272 393.531 39.1286 389.102 35.5957C384.655 32.0497 378.437 29.76 369.438 29.76V31.76C378.079 31.76 383.831 33.9503 387.855 37.1593C391.895 40.3813 394.298 44.7128 396.09 49.1914L397.946 48.4486ZM369.438 29.76C358.769 29.76 350.841 34.1386 345.609 41.0965C340.403 48.0194 337.918 57.4207 337.918 67.44H339.918C339.918 57.7193 342.333 48.7806 347.207 42.2985C352.055 35.8514 359.387 31.76 369.438 31.76V29.76ZM337.918 67.44C337.918 77.5279 340.402 86.998 345.607 93.973C350.837 100.984 358.766 105.4 369.438 105.4V103.4C359.39 103.4 352.059 99.2764 347.21 92.777C342.334 86.242 339.918 77.2321 339.918 67.44H337.918ZM363.858 67.44C363.858 62.1688 365.338 58.6123 368.05 56.3418C370.799 54.0402 375 52.9 380.778 52.9V50.9C374.797 50.9 370.037 52.0698 366.766 54.8082C363.458 57.5777 361.858 61.7912 361.858 67.44H363.858ZM380.778 52.9C386.557 52.9 390.681 54.0406 393.357 56.3343C396 58.5995 397.418 62.1551 397.418 67.44H399.418C399.418 61.8049 397.896 57.5905 394.659 54.8157C391.455 52.0694 386.759 50.9 380.778 50.9V52.9ZM397.418 67.44C397.418 72.8724 395.996 76.4977 393.352 78.7952C390.678 81.1192 386.558 82.26 380.778 82.26V84.26C386.758 84.26 391.458 83.0908 394.664 80.3048C397.9 77.4923 399.418 73.2076 399.418 67.44H397.418ZM380.778 82.26C375.005 82.26 370.807 81.0871 368.058 78.7373C365.341 76.4151 363.858 72.7853 363.858 67.44H361.858C361.858 73.1547 363.455 77.4349 366.758 80.2577C370.029 83.0529 374.791 84.26 380.778 84.26V82.26ZM521.307 77.94L522.3 78.064L522.44 76.94H521.307V77.94ZM497.507 77.94V76.94H496.731L496.539 77.6916L497.507 77.94ZM468.947 72.62V71.62H467.848L467.952 72.7148L468.947 72.62ZM521.167 72.62V73.62H522.167V72.62H521.167ZM468.947 60.3L467.95 60.2288L467.873 61.3H468.947V60.3ZM497.787 60.3V61.3H498.881L498.783 60.2111L497.787 60.3ZM443.867 67.3C443.867 78.5895 447.659 88.1374 454.583 94.8623C461.505 101.585 471.467 105.4 483.647 105.4V103.4C471.888 103.4 462.46 99.7247 455.977 93.4277C449.495 87.1326 445.867 78.1305 445.867 67.3H443.867ZM483.647 105.4C494.726 105.4 503.87 102.666 510.518 97.8604C517.18 93.0453 521.285 86.1833 522.3 78.064L520.315 77.816C519.37 85.3767 515.565 91.7447 509.347 96.2396C503.115 100.744 494.409 103.4 483.647 103.4V105.4ZM521.307 76.94H497.507V78.94H521.307V76.94ZM496.539 77.6916C495.298 82.5295 490.827 85.34 483.647 85.34V87.34C491.307 87.34 496.916 84.2705 498.476 78.1884L496.539 77.6916ZM483.647 85.34C479.498 85.34 476.299 84.1726 474.041 82.0576C471.779 79.939 470.346 76.7621 469.943 72.5252L467.952 72.7148C468.388 77.2979 469.966 80.981 472.674 83.5174C475.386 86.0574 479.117 87.34 483.647 87.34V85.34ZM468.947 73.62H521.167V71.62H468.947V73.62ZM522.167 72.62V66.32H520.167V72.62H522.167ZM522.167 66.32C522.167 54.972 518.557 45.793 511.714 39.4587C504.882 33.1338 494.952 29.76 482.527 29.76V31.76C494.603 31.76 503.993 35.0362 510.356 40.9263C516.708 46.807 520.167 55.408 520.167 66.32H522.167ZM482.527 29.76C471.33 29.76 461.654 33.2571 454.769 39.7447C447.876 46.2395 443.867 55.6505 443.867 67.3H445.867C445.867 56.1295 449.698 47.2705 456.141 41.2003C462.59 35.1229 471.744 31.76 482.527 31.76V29.76ZM469.945 60.3712C470.208 56.6804 471.612 53.9029 473.842 52.0369C476.085 50.1597 479.267 49.12 483.227 49.12V47.12C478.928 47.12 475.25 48.2503 472.558 50.5031C469.853 52.7671 468.246 56.0796 467.95 60.2288L469.945 60.3712ZM483.227 49.12C487.261 49.12 490.48 50.1612 492.758 52.0413C495.024 53.9109 496.461 56.6932 496.791 60.3889L498.783 60.2111C498.413 56.0668 496.771 52.7591 494.031 50.4987C491.305 48.2488 487.594 47.12 483.227 47.12V49.12ZM497.787 59.3H468.947V61.3H497.787V59.3ZM590.143 61.28L589.912 62.253L589.914 62.2536L590.143 61.28ZM573.623 57.36L573.38 58.3302L573.392 58.333L573.623 57.36ZM587.203 56.66H586.203V57.66H587.203V56.66ZM611.143 56.66V57.66H612.143V56.66H611.143ZM560.603 71.64L560.864 70.6746L560.853 70.672L560.603 71.64ZM582.863 77.66L582.601 78.6253L582.603 78.6256L582.863 77.66ZM564.663 77.38H565.663V76.38H564.663V77.38ZM540.583 77.38V76.38H539.583V77.38H540.583ZM578.103 105.4C589.734 105.4 598.5 103.467 604.386 99.6758C610.343 95.8402 613.263 90.1582 613.263 82.98H611.263C611.263 89.5218 608.652 94.5498 603.304 97.9942C597.885 101.483 589.571 103.4 578.103 103.4V105.4ZM613.263 82.98C613.263 75.8785 610.424 70.8403 606.092 67.2638C601.804 63.7244 596.098 61.6499 590.371 60.3064L589.914 62.2536C595.527 63.5701 600.881 65.5556 604.818 68.8062C608.711 72.0197 611.263 76.5015 611.263 82.98H613.263ZM590.373 60.307L573.853 56.387L573.392 58.333L589.912 62.253L590.373 60.307ZM573.865 56.3899C571.675 55.8424 570.071 55.1814 569.035 54.4193C568.03 53.6804 567.623 52.9028 567.623 52.04H565.623C565.623 53.6972 566.475 55.0196 567.85 56.0306C569.194 57.0185 571.09 57.7576 573.38 58.3301L573.865 56.3899ZM567.623 52.04C567.623 51.0125 568.118 50.202 569.318 49.5876C570.582 48.9409 572.566 48.56 575.303 48.56V46.56C572.439 46.56 570.083 46.9491 568.407 47.8073C566.667 48.698 565.623 50.1275 565.623 52.04H567.623ZM575.303 48.56C579.349 48.56 582.055 49.2868 583.738 50.5905C585.364 51.8509 586.203 53.7862 586.203 56.66H588.203C588.203 53.3738 587.221 50.7591 584.962 49.0095C582.76 47.3032 579.516 46.56 575.303 46.56V48.56ZM587.203 57.66H611.143V55.66H587.203V57.66ZM612.143 56.66C612.143 47.7401 608.531 40.9502 602.018 36.4309C595.556 31.9475 586.33 29.76 575.163 29.76V31.76C586.115 31.76 594.879 33.9125 600.877 38.0741C606.824 42.1998 610.143 48.3599 610.143 56.66H612.143ZM575.163 29.76C564.917 29.76 556.582 31.593 550.775 35.2701C544.911 38.9833 541.683 44.5478 541.683 51.76H543.683C543.683 45.2522 546.544 40.3167 551.845 36.9599C557.203 33.567 565.108 31.76 575.163 31.76V29.76ZM541.683 51.76C541.683 58.3747 544.417 63.1174 548.142 66.4366C551.838 69.7297 556.484 71.6052 560.352 72.608L560.853 70.672C557.161 69.7148 552.847 67.9503 549.473 64.9434C546.128 61.9626 543.683 57.7453 543.683 51.76H541.683ZM560.341 72.6053L582.601 78.6253L583.124 76.6947L560.864 70.6747L560.341 72.6053ZM582.603 78.6256C584.353 79.097 585.506 79.6726 586.21 80.3209C586.875 80.9323 587.183 81.6433 587.183 82.56H589.183C589.183 81.0967 588.65 79.8477 587.565 78.8491C586.519 77.8874 585.012 77.203 583.123 76.6944L582.603 78.6256ZM587.183 82.56C587.183 83.2672 587.043 83.8112 586.794 84.2427C586.547 84.6704 586.152 85.0559 585.528 85.386C584.233 86.0707 582.062 86.46 578.663 86.46V88.46C582.124 88.46 584.713 88.0793 586.462 87.154C587.361 86.6791 588.06 86.0496 588.526 85.2436C588.989 84.4413 589.183 83.5328 589.183 82.56H587.183ZM578.663 86.46C573.826 86.46 570.588 85.6917 568.573 84.2346C566.634 82.8323 565.663 80.6653 565.663 77.38H563.663C563.663 81.0947 564.791 83.9677 567.402 85.8553C569.937 87.6883 573.699 88.46 578.663 88.46V86.46ZM564.663 76.38H540.583V78.38H564.663V76.38ZM539.583 77.38C539.583 86.6071 542.881 93.6893 549.466 98.422C555.993 103.113 565.619 105.4 578.103 105.4V103.4C565.807 103.4 556.672 101.137 550.634 96.798C544.654 92.5007 541.583 86.0729 541.583 77.38H539.583ZM632.359 103H631.359V104H632.359V103ZM694.379 103V104H695.379V103H694.379ZM694.379 81.86H695.379V80.86H694.379V81.86ZM674.359 81.86H673.359V82.86H674.359V81.86ZM634.879 32.16V31.16H633.879V32.16H634.879ZM634.879 53.3H633.879V54.3H634.879V53.3ZM652.239 53.3H653.239V52.3H652.239V53.3ZM652.239 81.86V82.86H653.239V81.86H652.239ZM632.359 81.86V80.86H631.359V81.86H632.359ZM632.359 104H694.379V102H632.359V104ZM695.379 103V81.86H693.379V103H695.379ZM694.379 80.86H674.359V82.86H694.379V80.86ZM675.359 81.86V43.92H673.359V81.86H675.359ZM675.359 43.92C675.359 39.8102 674.18 36.5725 671.842 34.3718C669.514 32.1808 666.187 31.16 662.179 31.16V33.16C665.871 33.16 668.634 34.0992 670.471 35.8282C672.298 37.5474 673.359 40.1898 673.359 43.92H675.359ZM662.179 31.16H634.879V33.16H662.179V31.16ZM633.879 32.16V53.3H635.879V32.16H633.879ZM634.879 54.3H652.239V52.3H634.879V54.3ZM651.239 53.3V81.86H653.239V53.3H651.239ZM652.239 80.86H632.359V82.86H652.239V80.86ZM631.359 81.86V103H633.359V81.86H631.359ZM646.619 13.96C646.619 18.3269 648.074 21.649 650.786 23.8534C653.462 26.0294 657.222 27 661.619 27V25C657.476 25 654.236 24.0806 652.047 22.3016C649.894 20.551 648.619 17.8531 648.619 13.96H646.619ZM661.619 27C666.017 27 669.871 26.0294 672.646 23.8663C675.461 21.6726 677.039 18.3521 677.039 13.96H675.039C675.039 17.8279 673.677 20.5274 671.417 22.2887C669.118 24.0806 665.761 25 661.619 25V27ZM677.039 13.96C677.039 9.63343 675.458 6.31698 672.65 4.10886C669.877 1.9289 666.024 0.919991 661.619 0.919991V2.91999C665.754 2.91999 669.111 3.87108 671.414 5.68112C673.68 7.46301 675.039 10.1666 675.039 13.96H677.039ZM661.619 0.919991C657.214 0.919991 653.456 1.92899 650.782 4.12178C648.077 6.34077 646.619 9.65865 646.619 13.96H648.619C648.619 10.1413 649.891 7.43922 652.051 5.66821C654.242 3.871 657.484 2.91999 661.619 2.91999V0.919991ZM769.188 86.2V85.2H768.507L768.258 85.8335L769.188 86.2ZM775.208 86.2L776.154 86.5251L776.609 85.2H775.208V86.2ZM770.588 99.64L769.643 99.3149L769.588 99.4729V99.64H770.588ZM770.588 111.4V112.4H771.588V111.4H770.588ZM721.728 111.4V110.4H720.728V111.4H721.728ZM721.728 132.54H720.728V133.54H721.728V132.54ZM794.528 32.16H795.528V31.16H794.528V32.16ZM770.588 32.16V31.16H769.588V32.16H770.588ZM770.588 35.52H769.588V35.6887L769.644 35.8481L770.588 35.52ZM775.208 48.82V49.82H776.614L776.153 48.4919L775.208 48.82ZM769.188 48.82L768.26 49.1914L768.511 49.82H769.188V48.82ZM741.608 105.4C750.607 105.4 756.827 103.11 761.274 99.5452C765.704 95.9934 768.27 91.2584 770.119 86.5665L768.258 85.8335C766.466 90.3816 764.062 94.7466 760.023 97.9848C756 101.21 750.25 103.4 741.608 103.4V105.4ZM769.188 87.2H775.208V85.2H769.188V87.2ZM774.263 85.8749L769.643 99.3149L771.534 99.9651L776.154 86.5251L774.263 85.8749ZM769.588 99.64V111.4H771.588V99.64H769.588ZM770.588 110.4H721.728V112.4H770.588V110.4ZM720.728 111.4V132.54H722.728V111.4H720.728ZM721.728 133.54H782.208V131.54H721.728V133.54ZM782.208 133.54C786.282 133.54 789.651 132.521 792 130.269C794.358 128.01 795.528 124.666 795.528 120.36H793.528C793.528 124.314 792.459 127.06 790.616 128.826C788.766 130.599 785.974 131.54 782.208 131.54V133.54ZM795.528 120.36V32.16H793.528V120.36H795.528ZM794.528 31.16H770.588V33.16H794.528V31.16ZM769.588 32.16V35.52H771.588V32.16H769.588ZM769.644 35.8481L774.264 49.1481L776.153 48.4919L771.533 35.1919L769.644 35.8481ZM775.208 47.82H769.188V49.82H775.208V47.82ZM770.117 48.4486C768.268 43.8272 765.702 39.1286 761.272 35.5957C756.826 32.0497 750.607 29.76 741.608 29.76V31.76C750.25 31.76 756.001 33.9503 760.025 37.1593C764.065 40.3813 766.468 44.7128 768.26 49.1914L770.117 48.4486ZM741.608 29.76C730.939 29.76 723.011 34.1386 717.779 41.0965C712.573 48.0194 710.088 57.4207 710.088 67.44H712.088C712.088 57.7193 714.503 48.7806 719.378 42.2985C724.226 35.8514 731.557 31.76 741.608 31.76V29.76ZM710.088 67.44C710.088 77.5279 712.573 86.998 717.777 93.973C723.007 100.984 730.936 105.4 741.608 105.4V103.4C731.561 103.4 724.229 99.2764 719.38 92.777C714.504 86.242 712.088 77.2321 712.088 67.44H710.088ZM736.028 67.44C736.028 62.1688 737.508 58.6123 740.22 56.3418C742.969 54.0402 747.17 52.9 752.948 52.9V50.9C746.967 50.9 742.207 52.0698 738.936 54.8082C735.628 57.5777 734.028 61.7912 734.028 67.44H736.028ZM752.948 52.9C758.728 52.9 762.852 54.0406 765.528 56.3343C768.17 58.5995 769.588 62.1551 769.588 67.44H771.588C771.588 61.8049 770.066 57.5905 766.829 54.8157C763.625 52.0694 758.929 50.9 752.948 50.9V52.9ZM769.588 67.44C769.588 72.8724 768.166 76.4977 765.522 78.7952C762.848 81.1192 758.728 82.26 752.948 82.26V84.26C758.928 84.26 763.629 83.0908 766.834 80.3048C770.071 77.4923 771.588 73.2076 771.588 67.44H769.588ZM752.948 82.26C747.176 82.26 742.977 81.0871 740.228 78.7373C737.511 76.4151 736.028 72.7853 736.028 67.44H734.028C734.028 73.1547 735.626 77.4349 738.929 80.2577C742.199 83.0529 746.961 84.26 752.948 84.26V82.26ZM817.937 103H816.937V104H817.937V103ZM841.877 103V104H842.877V103H841.877ZM875.477 103H874.477V104H875.477V103ZM899.557 103V104H900.557V103H899.557ZM843.277 53.44V54.44H844.079L844.253 53.6569L843.277 53.44ZM837.397 53.44L836.449 53.1208L836.005 54.44H837.397V53.44ZM841.877 40.14L842.824 40.4592L842.877 40.3039V40.14H841.877ZM841.877 32.16H842.877V31.16H841.877V32.16ZM817.937 32.16V31.16H816.937V32.16H817.937ZM817.937 104H841.877V102H817.937V104ZM842.877 103V77.38H840.877V103H842.877ZM842.877 77.38C842.877 67.4655 844.824 61.3921 847.999 57.7941C851.144 54.2296 855.671 52.9 861.337 52.9V50.9C855.383 50.9 850.179 52.3004 846.499 56.4709C842.849 60.6079 840.877 67.2744 840.877 77.38H842.877ZM861.337 52.9C866.541 52.9 869.694 54.0327 871.617 56.4284C873.592 58.8894 874.477 62.9205 874.477 69.26H876.477C876.477 62.8595 875.612 58.2106 873.177 55.1766C870.689 52.0773 866.772 50.9 861.337 50.9V52.9ZM874.477 69.26V103H876.477V69.26H874.477ZM875.477 104H899.557V102H875.477V104ZM900.557 103V65.34H898.557V103H900.557ZM900.557 65.34C900.557 53.982 897.682 45.0729 892.346 38.9905C886.995 32.8905 879.279 29.76 869.877 29.76V31.76C878.815 31.76 885.939 34.7195 890.843 40.3095C895.762 45.9171 898.557 54.298 898.557 65.34H900.557ZM869.877 29.76C862.077 29.76 855.88 32.3671 851.276 36.6422C846.687 40.9041 843.734 46.7711 842.301 53.2231L844.253 53.6569C845.619 47.5089 848.407 42.0359 852.637 38.1078C856.853 34.1929 862.557 31.76 869.877 31.76V29.76ZM843.277 52.44H837.397V54.44H843.277V52.44ZM838.344 53.7592L842.824 40.4592L840.929 39.8208L836.449 53.1208L838.344 53.7592ZM842.877 40.14V32.16H840.877V40.14H842.877ZM841.877 31.16H817.937V33.16H841.877V31.16ZM816.937 32.16V103H818.937V32.16H816.937Z" fill="white"/>
</svg>
