<svg viewBox="0 0 1538 133" fill="none" xmlns="http://www.w3.org/2000/svg">
<path d="M0.959429 103H-0.0405712V104H0.959429V103ZM64.2394 103V104H65.2394V103H64.2394ZM64.2394 81.86H65.2394V80.86H64.2394V81.86ZM44.6394 81.86H43.6394V82.86H44.6394V81.86ZM3.47943 0.099998V-0.900002H2.47943V0.099998H3.47943ZM3.47943 21.1H2.47943V22.1H3.47943V21.1ZM20.5594 21.1H21.5594V20.1H20.5594V21.1ZM20.5594 81.86V82.86H21.5594V81.86H20.5594ZM0.959429 81.86V80.86H-0.0405712V81.86H0.959429ZM0.959429 104H64.2394V102H0.959429V104ZM65.2394 103V81.86H63.2394V103H65.2394ZM64.2394 80.86H44.6394V82.86H64.2394V80.86ZM45.6394 81.86V11.86H43.6394V81.86H45.6394ZM45.6394 11.86C45.6394 7.82456 44.4984 4.59142 42.2016 2.3732C39.9106 0.16051 36.6166 -0.900002 32.5994 -0.900002V1.1C36.2822 1.1 39.0082 2.06949 40.8122 3.81179C42.6105 5.54858 43.6394 8.19543 43.6394 11.86H45.6394ZM32.5994 -0.900002H3.47943V1.1H32.5994V-0.900002ZM2.47943 0.099998V21.1H4.47943V0.099998H2.47943ZM3.47943 22.1H20.5594V20.1H3.47943V22.1ZM19.5594 21.1V81.86H21.5594V21.1H19.5594ZM20.5594 80.86H0.959429V82.86H20.5594V80.86ZM-0.0405712 81.86V103H1.95943V81.86H-0.0405712ZM78.9818 67.44C78.9818 80.3692 83.6013 89.9058 91.1546 96.1912C98.6809 102.454 109.011 105.4 120.302 105.4V103.4C109.332 103.4 99.5027 100.536 92.4339 94.6538C85.3923 88.7942 80.9818 79.8508 80.9818 67.44H78.9818ZM120.302 105.4C131.455 105.4 141.749 102.453 149.274 96.1912C156.826 89.9072 161.482 80.3717 161.482 67.44H159.482C159.482 79.8483 155.038 88.7928 147.995 94.6538C140.924 100.537 131.129 103.4 120.302 103.4V105.4ZM161.482 67.44C161.482 54.6447 156.823 45.1794 149.272 38.932C141.748 32.7071 131.455 29.76 120.302 29.76V31.76C131.129 31.76 140.926 34.6228 147.997 40.473C155.041 46.3006 159.482 55.1753 159.482 67.44H161.482ZM120.302 29.76C109.011 29.76 98.6822 32.7059 91.1568 38.932C83.6039 45.1808 78.9818 54.6472 78.9818 67.44H80.9818C80.9818 55.1728 85.3896 46.2992 92.4317 40.473C99.5013 34.6241 109.332 31.76 120.302 31.76V29.76ZM104.922 67.44C104.922 62.4072 106.491 58.8194 109.104 56.4771C111.735 54.1189 115.561 52.9 120.302 52.9V50.9C115.242 50.9 110.878 52.2011 107.769 54.9879C104.642 57.7906 102.922 61.9728 102.922 67.44H104.922ZM120.302 52.9C124.895 52.9 128.652 54.1155 131.25 56.4731C133.832 58.8162 135.402 62.4069 135.402 67.44H137.402C137.402 61.9731 135.681 57.7938 132.594 54.9919C129.522 52.2045 125.228 50.9 120.302 50.9V52.9ZM135.402 67.44C135.402 72.5475 133.829 76.2111 131.242 78.6062C128.643 81.0131 124.889 82.26 120.302 82.26V84.26C125.235 84.26 129.531 82.9169 132.601 80.0738C135.684 77.2189 137.402 72.9725 137.402 67.44H135.402ZM120.302 82.26C115.568 82.26 111.744 81.0095 109.112 78.6021C106.494 76.208 104.922 72.5472 104.922 67.44H102.922C102.922 72.9728 104.639 77.222 107.762 80.0779C110.87 82.9205 115.236 84.26 120.302 84.26V82.26ZM236.391 32.16V31.16H235.599L235.418 31.9308L236.391 32.16ZM221.131 96.98V97.98H221.923L222.105 97.2092L221.131 96.98ZM215.111 96.98L214.138 97.2111L214.321 97.98H215.111V96.98ZM199.711 32.16L200.684 31.9288L200.502 31.16H199.711V32.16ZM175.631 32.16V31.16H174.357L174.66 32.398L175.631 32.16ZM192.991 103L192.02 103.238L192.207 104H192.991V103ZM242.691 103V104H243.477L243.663 103.236L242.691 103ZM259.911 32.16L260.883 32.3962L261.183 31.16H259.911V32.16ZM235.418 31.9308L220.158 96.7508L222.105 97.2092L237.365 32.3892L235.418 31.9308ZM221.131 95.98H215.111V97.98H221.131V95.98ZM216.084 96.7489L200.684 31.9288L198.738 32.3911L214.138 97.2111L216.084 96.7489ZM199.711 31.16H175.631V33.16H199.711V31.16ZM174.66 32.398L192.02 103.238L193.963 102.762L176.603 31.922L174.66 32.398ZM192.991 104H242.691V102H192.991V104ZM243.663 103.236L260.883 32.3962L258.94 31.9238L241.72 102.764L243.663 103.236ZM259.911 31.16H236.391V33.16H259.911V31.16ZM351.53 77.94L352.523 78.064L352.663 76.94H351.53V77.94ZM327.73 77.94V76.94H326.954L326.762 77.6916L327.73 77.94ZM299.17 72.62V71.62H298.071L298.175 72.7148L299.17 72.62ZM351.39 72.62V73.62H352.39V72.62H351.39ZM299.17 60.3L298.173 60.2288L298.096 61.3H299.17V60.3ZM328.01 60.3V61.3H329.104L329.006 60.2111L328.01 60.3ZM274.09 67.3C274.09 78.5895 277.882 88.1374 284.806 94.8623C291.728 101.585 301.69 105.4 313.87 105.4V103.4C302.111 103.4 292.683 99.7247 286.2 93.4277C279.718 87.1326 276.09 78.1305 276.09 67.3H274.09ZM313.87 105.4C324.949 105.4 334.093 102.666 340.741 97.8604C347.403 93.0453 351.508 86.1833 352.523 78.064L350.538 77.816C349.593 85.3767 345.788 91.7447 339.57 96.2396C333.338 100.744 324.632 103.4 313.87 103.4V105.4ZM351.53 76.94H327.73V78.94H351.53V76.94ZM326.762 77.6916C325.521 82.5295 321.05 85.34 313.87 85.34V87.34C321.53 87.34 327.14 84.2705 328.699 78.1884L326.762 77.6916ZM313.87 85.34C309.721 85.34 306.522 84.1726 304.264 82.0576C302.002 79.939 300.569 76.7621 300.166 72.5252L298.175 72.7148C298.611 77.2979 300.189 80.981 302.897 83.5174C305.609 86.0574 309.34 87.34 313.87 87.34V85.34ZM299.17 73.62H351.39V71.62H299.17V73.62ZM352.39 72.62V66.32H350.39V72.62H352.39ZM352.39 66.32C352.39 54.972 348.78 45.793 341.937 39.4587C335.105 33.1338 325.175 29.76 312.75 29.76V31.76C324.826 31.76 334.216 35.0362 340.579 40.9263C346.931 46.807 350.39 55.408 350.39 66.32H352.39ZM312.75 29.76C301.553 29.76 291.877 33.2571 284.992 39.7447C278.099 46.2395 274.09 55.6505 274.09 67.3H276.09C276.09 56.1295 279.921 47.2705 286.364 41.2003C292.813 35.1229 301.967 31.76 312.75 31.76V29.76ZM300.168 60.3712C300.431 56.6804 301.835 53.9029 304.065 52.0369C306.308 50.1597 309.49 49.12 313.45 49.12V47.12C309.151 47.12 305.473 48.2503 302.781 50.5031C300.076 52.7671 298.469 56.0796 298.173 60.2288L300.168 60.3712ZM313.45 49.12C317.484 49.12 320.703 50.1612 322.981 52.0413C325.247 53.9109 326.684 56.6932 327.014 60.3889L329.006 60.2111C328.636 56.0668 326.994 52.7591 324.254 50.4987C321.528 48.2488 317.817 47.12 313.45 47.12V49.12ZM328.01 59.3H299.17V61.3H328.01V59.3ZM476.57 82.98V81.98H475.775L475.596 82.7543L476.57 82.98ZM482.45 82.98L483.364 83.3847L483.986 81.98H482.45V82.98ZM478.67 91.52L477.756 91.1153L477.67 91.3086V91.52H478.67ZM505.83 103V104H506.83V103H505.83ZM505.83 81.86H506.83V80.86H505.83V81.86ZM495.61 81.86H494.61V82.86H495.61V81.86ZM422.81 59.04L421.81 59.0174L421.787 60.04H422.81V59.04ZM445.35 59.04V60.04H446.307L446.349 59.0844L445.35 59.04ZM471.53 59.46L471.64 60.454L472.53 60.3557V59.46H471.53ZM449.97 61.84L450.073 62.8347L450.08 62.834L449.97 61.84ZM454.45 74.02L454.304 73.0307L454.296 73.0319L454.45 74.02ZM471.53 71.5H472.53V70.3416L471.384 70.5107L471.53 71.5ZM420.13 83.68C420.13 87.469 421.111 92.9171 425.068 97.4294C429.05 101.97 435.902 105.4 447.31 105.4V103.4C436.318 103.4 430.08 100.11 426.572 96.1106C423.039 92.0829 422.13 87.171 422.13 83.68H420.13ZM447.31 105.4C457.418 105.4 464.327 102.87 469.055 98.7488C473.772 94.6374 476.189 89.0545 477.544 83.2057L475.596 82.7543C474.291 88.3855 472.018 93.5126 467.741 97.2412C463.474 100.96 457.082 103.4 447.31 103.4V105.4ZM476.57 83.98H482.45V81.98H476.57V83.98ZM481.536 82.5753L477.756 91.1153L479.584 91.9247L483.364 83.3847L481.536 82.5753ZM477.67 91.52V92.22H479.67V91.52H477.67ZM477.67 92.22C477.67 95.8477 478.748 98.8263 480.857 100.896C482.964 102.963 485.973 104 489.59 104V102C486.348 102 483.896 101.077 482.258 99.4688C480.622 97.8637 479.67 95.4523 479.67 92.22H477.67ZM489.59 104H505.83V102H489.59V104ZM506.83 103V81.86H504.83V103H506.83ZM505.83 80.86H495.61V82.86H505.83V80.86ZM496.61 81.86V60.02H494.61V81.86H496.61ZM496.61 60.02C496.61 49.4649 492.033 41.846 484.91 36.9034C477.831 31.9913 468.3 29.76 458.37 29.76V31.76C468.04 31.76 477.129 33.9387 483.77 38.5466C490.367 43.124 494.61 50.1351 494.61 60.02H496.61ZM458.37 29.76C448.488 29.76 439.477 32.211 432.855 37.1138C426.204 42.0387 422.027 49.3961 421.81 59.0174L423.81 59.0625C424.013 50.0639 427.886 43.2813 434.045 38.7212C440.234 34.139 448.792 31.76 458.37 31.76V29.76ZM422.81 60.04H445.35V58.04H422.81V60.04ZM446.349 59.0844C446.477 56.2133 447.639 54.0215 449.716 52.5175C451.831 50.9869 454.992 50.1 459.21 50.1V48.1C454.748 48.1 451.119 49.0331 448.544 50.8975C445.931 52.7885 444.503 55.5667 444.351 58.9956L446.349 59.0844ZM459.21 50.1C463.184 50.1 465.986 50.826 467.788 52.2764C469.542 53.6886 470.53 55.9408 470.53 59.46H472.53C472.53 55.5592 471.418 52.6314 469.042 50.7186C466.714 48.844 463.356 48.1 459.21 48.1V50.1ZM471.42 58.466L449.86 60.846L450.08 62.834L471.64 60.454L471.42 58.466ZM449.867 60.8453C438.954 61.9719 431.508 64.3789 426.783 68.2027C421.992 72.0805 420.13 77.3036 420.13 83.68H422.13C422.13 77.7364 423.838 73.1595 428.042 69.7573C432.312 66.3011 439.286 63.9481 450.073 62.8347L449.867 60.8453ZM445.65 79.62C445.65 78.7945 445.832 78.2217 446.124 77.7884C446.421 77.3482 446.892 76.9642 447.616 76.6212C449.119 75.9092 451.405 75.5056 454.604 75.0081L454.296 73.0319C451.195 73.5144 448.581 73.9508 446.759 74.8138C445.821 75.2583 445.023 75.8455 444.466 76.6697C443.906 77.5008 443.65 78.4855 443.65 79.62H445.65ZM454.596 75.0093L471.676 72.4893L471.384 70.5107L454.304 73.0307L454.596 75.0093ZM470.53 71.5C470.53 75.4144 468.683 78.5938 465.637 80.8258C462.569 83.073 458.274 84.36 453.47 84.36V86.36C458.607 86.36 463.341 84.987 466.819 82.4392C470.317 79.8762 472.53 76.1256 472.53 71.5H470.53ZM453.47 84.36C451.205 84.36 449.201 84.0792 447.794 83.3378C447.107 82.976 446.585 82.5161 446.229 81.9406C445.875 81.3669 445.65 80.6186 445.65 79.62H443.65C443.65 80.9314 443.95 82.0556 444.528 82.9913C445.104 83.9252 445.921 84.6115 446.861 85.1072C448.709 86.0808 451.115 86.36 453.47 86.36V84.36ZM583.56 81.86H584.56V80.8547L583.554 80.86L583.56 81.86ZM557.24 82H556.24V83.0053L557.245 83L557.24 82ZM557.24 53.3V52.3H556.24V53.3H557.24ZM580.76 53.3V54.3H581.76V53.3H580.76ZM580.76 32.16H581.76V31.16H580.76V32.16ZM557.24 32.16H556.24V33.16H557.24V32.16ZM557.24 12H558.24V10.6355L556.938 11.0464L557.24 12ZM533.3 19.56L532.998 18.6064L532.3 18.8271V19.56H533.3ZM533.3 32.16V33.16H534.3V32.16H533.3ZM516.22 32.16V31.16H515.22V32.16H516.22ZM516.22 53.3H515.22V54.3H516.22V53.3ZM533.3 53.3H534.3V52.3H533.3V53.3ZM583.56 103V104H584.56V103H583.56ZM583.554 80.86L557.234 81L557.245 83L583.565 82.86L583.554 80.86ZM558.24 82V53.3H556.24V82H558.24ZM557.24 54.3H580.76V52.3H557.24V54.3ZM581.76 53.3V32.16H579.76V53.3H581.76ZM580.76 31.16H557.24V33.16H580.76V31.16ZM558.24 32.16V12H556.24V32.16H558.24ZM556.938 11.0464L532.998 18.6064L533.601 20.5136L557.541 12.9536L556.938 11.0464ZM532.3 19.56V32.16H534.3V19.56H532.3ZM533.3 31.16H516.22V33.16H533.3V31.16ZM515.22 32.16V53.3H517.22V32.16H515.22ZM516.22 54.3H533.3V52.3H516.22V54.3ZM532.3 53.3V90.68H534.3V53.3H532.3ZM532.3 90.68C532.3 94.8454 533.435 98.2123 535.74 100.537C538.046 102.862 541.38 104 545.48 104V102C541.74 102 538.984 100.968 537.16 99.1284C535.335 97.2877 534.3 94.4946 534.3 90.68H532.3ZM545.48 104H583.56V102H545.48V104ZM584.56 103V81.86H582.56V103H584.56ZM731.268 20.82V21.82H732.268V20.82H731.268ZM731.268 0.099998H732.268V-0.900002H731.268V0.099998ZM666.448 32.16V33.16H667.448V32.16H666.448ZM653.288 32.16V31.16H652.288V32.16H653.288ZM653.288 53.16H652.288V54.16H653.288V53.16ZM666.448 53.16H667.448V52.16H666.448V53.16ZM666.448 81.86V82.86H667.448V81.86H666.448ZM653.288 81.86V80.86H652.288V81.86H653.288ZM653.288 103H652.288V104H653.288V103ZM769.488 103V104H770.488V103H769.488ZM769.488 81.86H770.488V80.86H769.488V81.86ZM749.888 81.86H748.888V82.86H749.888V81.86ZM690.388 32.16H689.388V33.16H690.388V32.16ZM690.388 81.86H689.388V82.86H690.388V81.86ZM690.388 53.16V52.16H689.388V53.16H690.388ZM725.808 53.16H726.808V52.16H725.808V53.16ZM725.808 81.86V82.86H726.808V81.86H725.808ZM699.768 21.82H731.268V19.82H699.768V21.82ZM732.268 20.82V0.099998H730.268V20.82H732.268ZM731.268 -0.900002H702.848V1.1H731.268V-0.900002ZM702.848 -0.900002C690.45 -0.900002 681.079 2.1105 674.797 7.68187C668.498 13.2693 665.448 21.3053 665.448 31.04H667.448C667.448 21.7347 670.349 14.3007 676.124 9.17812C681.918 4.0395 690.747 1.1 702.848 1.1V-0.900002ZM665.448 31.04V32.16H667.448V31.04H665.448ZM666.448 31.16H653.288V33.16H666.448V31.16ZM652.288 32.16V53.16H654.288V32.16H652.288ZM653.288 54.16H666.448V52.16H653.288V54.16ZM665.448 53.16V81.86H667.448V53.16H665.448ZM666.448 80.86H653.288V82.86H666.448V80.86ZM652.288 81.86V103H654.288V81.86H652.288ZM653.288 104H769.488V102H653.288V104ZM770.488 103V81.86H768.488V103H770.488ZM769.488 80.86H749.888V82.86H769.488V80.86ZM750.888 81.86V44.2H748.888V81.86H750.888ZM750.888 44.2C750.888 39.9509 749.675 36.6369 747.24 34.3988C744.821 32.1744 741.354 31.16 737.148 31.16V33.16C741.063 33.16 743.966 34.1055 745.887 35.8712C747.792 37.6231 748.888 40.3291 748.888 44.2H750.888ZM737.148 31.16H690.388V33.16H737.148V31.16ZM691.388 32.16V31.74H689.388V32.16H691.388ZM691.388 31.74C691.388 28.1421 692.139 25.6944 693.473 24.1513C694.78 22.6381 696.802 21.82 699.768 21.82V19.82C696.434 19.82 693.767 20.7519 691.959 22.8437C690.178 24.9056 689.388 27.9179 689.388 31.74H691.388ZM691.388 81.86V53.16H689.388V81.86H691.388ZM690.388 54.16H725.808V52.16H690.388V54.16ZM724.808 53.16V81.86H726.808V53.16H724.808ZM725.808 80.86H690.388V82.86H725.808V80.86ZM790.918 103H789.918V104H790.918V103ZM814.998 103V104H815.998V103H814.998ZM814.998 53.3V52.3H813.998V53.3H814.998ZM850.838 53.3V54.3H851.838V53.3H850.838ZM850.838 32.16H851.838V31.16H850.838V32.16ZM789.918 44.34V103H791.918V44.34H789.918ZM790.918 104H814.998V102H790.918V104ZM815.998 103V53.3H813.998V103H815.998ZM814.998 54.3H850.838V52.3H814.998V54.3ZM851.838 53.3V32.16H849.838V53.3H851.838ZM850.838 31.16H803.378V33.16H850.838V31.16ZM803.378 31.16C799.221 31.16 795.822 32.2553 793.461 34.5386C791.094 36.8273 789.918 40.1656 789.918 44.34H791.918C791.918 40.5344 792.983 37.7827 794.851 35.9764C796.724 34.1647 799.555 33.16 803.378 33.16V31.16ZM917.098 61.28L916.867 62.253L916.869 62.2536L917.098 61.28ZM900.578 57.36L900.335 58.3302L900.347 58.333L900.578 57.36ZM914.158 56.66H913.158V57.66H914.158V56.66ZM938.098 56.66V57.66H939.098V56.66H938.098ZM887.558 71.64L887.819 70.6746L887.809 70.672L887.558 71.64ZM909.818 77.66L909.556 78.6253L909.558 78.6256L909.818 77.66ZM891.618 77.38H892.618V76.38H891.618V77.38ZM867.538 77.38V76.38H866.538V77.38H867.538ZM905.058 105.4C916.689 105.4 925.455 103.467 931.341 99.6758C937.298 95.8402 940.218 90.1582 940.218 82.98H938.218C938.218 89.5218 935.607 94.5498 930.259 97.9942C924.84 101.483 916.526 103.4 905.058 103.4V105.4ZM940.218 82.98C940.218 75.8785 937.379 70.8403 933.047 67.2638C928.759 63.7244 923.053 61.6499 917.326 60.3064L916.869 62.2536C922.482 63.5701 927.836 65.5556 931.773 68.8062C935.666 72.0197 938.218 76.5015 938.218 82.98H940.218ZM917.328 60.307L900.808 56.387L900.347 58.333L916.867 62.253L917.328 60.307ZM900.82 56.3899C898.63 55.8424 897.026 55.1814 895.99 54.4193C894.985 53.6804 894.578 52.9028 894.578 52.04H892.578C892.578 53.6972 893.43 55.0196 894.805 56.0306C896.149 57.0185 898.045 57.7576 900.335 58.3301L900.82 56.3899ZM894.578 52.04C894.578 51.0125 895.073 50.202 896.273 49.5876C897.537 48.9409 899.521 48.56 902.258 48.56V46.56C899.394 46.56 897.038 46.9491 895.362 47.8073C893.622 48.698 892.578 50.1275 892.578 52.04H894.578ZM902.258 48.56C906.304 48.56 909.01 49.2868 910.693 50.5905C912.319 51.8509 913.158 53.7862 913.158 56.66H915.158C915.158 53.3738 914.176 50.7591 911.918 49.0095C909.715 47.3032 906.471 46.56 902.258 46.56V48.56ZM914.158 57.66H938.098V55.66H914.158V57.66ZM939.098 56.66C939.098 47.7401 935.486 40.9502 928.973 36.4309C922.511 31.9475 913.285 29.76 902.118 29.76V31.76C913.07 31.76 921.834 33.9125 927.833 38.0741C933.779 42.1998 937.098 48.3599 937.098 56.66H939.098ZM902.118 29.76C891.872 29.76 883.537 31.593 877.73 35.2701C871.866 38.9833 868.638 44.5478 868.638 51.76H870.638C870.638 45.2522 873.499 40.3167 878.8 36.9599C884.158 33.567 892.063 31.76 902.118 31.76V29.76ZM868.638 51.76C868.638 58.3747 871.372 63.1174 875.097 66.4366C878.793 69.7297 883.439 71.6052 887.307 72.608L887.809 70.672C884.116 69.7148 879.802 67.9503 876.428 64.9434C873.083 61.9626 870.638 57.7453 870.638 51.76H868.638ZM887.296 72.6053L909.556 78.6253L910.079 76.6947L887.819 70.6747L887.296 72.6053ZM909.558 78.6256C911.308 79.097 912.461 79.6726 913.166 80.3209C913.83 80.9323 914.138 81.6433 914.138 82.56H916.138C916.138 81.0967 915.605 79.8477 914.52 78.8491C913.474 77.8874 911.967 77.203 910.078 76.6944L909.558 78.6256ZM914.138 82.56C914.138 83.2672 913.998 83.8112 913.749 84.2427C913.502 84.6704 913.107 85.0559 912.483 85.386C911.188 86.0707 909.017 86.46 905.618 86.46V88.46C909.079 88.46 911.668 88.0793 913.417 87.154C914.316 86.6791 915.015 86.0496 915.481 85.2436C915.944 84.4413 916.138 83.5328 916.138 82.56H914.138ZM905.618 86.46C900.781 86.46 897.544 85.6917 895.528 84.2346C893.589 82.8323 892.618 80.6653 892.618 77.38H890.618C890.618 81.0947 891.746 83.9677 894.357 85.8553C896.892 87.6883 900.654 88.46 905.618 88.46V86.46ZM891.618 76.38H867.538V78.38H891.618V76.38ZM866.538 77.38C866.538 86.6071 869.836 93.6893 876.421 98.422C882.948 103.113 892.574 105.4 905.058 105.4V103.4C892.762 103.4 883.627 101.137 877.589 96.798C871.609 92.5007 868.538 86.0729 868.538 77.38H866.538ZM1023.41 81.86H1024.41V80.8547L1023.41 80.86L1023.41 81.86ZM997.091 82H996.091V83.0053L997.096 83L997.091 82ZM997.091 53.3V52.3H996.091V53.3H997.091ZM1020.61 53.3V54.3H1021.61V53.3H1020.61ZM1020.61 32.16H1021.61V31.16H1020.61V32.16ZM997.091 32.16H996.091V33.16H997.091V32.16ZM997.091 12H998.091V10.6355L996.79 11.0464L997.091 12ZM973.151 19.56L972.85 18.6064L972.151 18.8271V19.56H973.151ZM973.151 32.16V33.16H974.151V32.16H973.151ZM956.071 32.16V31.16H955.071V32.16H956.071ZM956.071 53.3H955.071V54.3H956.071V53.3ZM973.151 53.3H974.151V52.3H973.151V53.3ZM1023.41 103V104H1024.41V103H1023.41ZM1023.41 80.86L997.086 81L997.096 83L1023.42 82.86L1023.41 80.86ZM998.091 82V53.3H996.091V82H998.091ZM997.091 54.3H1020.61V52.3H997.091V54.3ZM1021.61 53.3V32.16H1019.61V53.3H1021.61ZM1020.61 31.16H997.091V33.16H1020.61V31.16ZM998.091 32.16V12H996.091V32.16H998.091ZM996.79 11.0464L972.85 18.6064L973.452 20.5136L997.392 12.9536L996.79 11.0464ZM972.151 19.56V32.16H974.151V19.56H972.151ZM973.151 31.16H956.071V33.16H973.151V31.16ZM955.071 32.16V53.3H957.071V32.16H955.071ZM956.071 54.3H973.151V52.3H956.071V54.3ZM972.151 53.3V90.68H974.151V53.3H972.151ZM972.151 90.68C972.151 94.8454 973.286 98.2123 975.591 100.537C977.897 102.862 981.231 104 985.331 104V102C981.591 102 978.835 100.968 977.011 99.1284C975.186 97.2877 974.151 94.4946 974.151 90.68H972.151ZM985.331 104H1023.41V102H985.331V104ZM1024.41 103V81.86H1022.41V103H1024.41ZM1142.7 61.28L1142.47 62.253L1142.47 62.2536L1142.7 61.28ZM1126.18 57.36L1125.94 58.3302L1125.95 58.333L1126.18 57.36ZM1139.76 56.66H1138.76V57.66H1139.76V56.66ZM1163.7 56.66V57.66H1164.7V56.66H1163.7ZM1113.16 71.64L1113.42 70.6746L1113.41 70.672L1113.16 71.64ZM1135.42 77.66L1135.16 78.6253L1135.16 78.6256L1135.42 77.66ZM1117.22 77.38H1118.22V76.38H1117.22V77.38ZM1093.14 77.38V76.38H1092.14V77.38H1093.14ZM1130.66 105.4C1142.29 105.4 1151.06 103.467 1156.94 99.6758C1162.9 95.8402 1165.82 90.1582 1165.82 82.98H1163.82C1163.82 89.5218 1161.21 94.5498 1155.86 97.9942C1150.44 101.483 1142.13 103.4 1130.66 103.4V105.4ZM1165.82 82.98C1165.82 75.8785 1162.98 70.8403 1158.65 67.2638C1154.36 63.7244 1148.66 61.6499 1142.93 60.3064L1142.47 62.2536C1148.08 63.5701 1153.44 65.5556 1157.38 68.8062C1161.27 72.0197 1163.82 76.5015 1163.82 82.98H1165.82ZM1142.93 60.307L1126.41 56.387L1125.95 58.333L1142.47 62.253L1142.93 60.307ZM1126.42 56.3899C1124.23 55.8424 1122.63 55.1814 1121.59 54.4193C1120.59 53.6804 1120.18 52.9028 1120.18 52.04H1118.18C1118.18 53.6972 1119.03 55.0196 1120.41 56.0306C1121.75 57.0185 1123.65 57.7576 1125.94 58.3301L1126.42 56.3899ZM1120.18 52.04C1120.18 51.0125 1120.68 50.202 1121.88 49.5876C1123.14 48.9409 1125.12 48.56 1127.86 48.56V46.56C1125 46.56 1122.64 46.9491 1120.96 47.8073C1119.22 48.698 1118.18 50.1275 1118.18 52.04H1120.18ZM1127.86 48.56C1131.91 48.56 1134.61 49.2868 1136.29 50.5905C1137.92 51.8509 1138.76 53.7862 1138.76 56.66H1140.76C1140.76 53.3738 1139.78 50.7591 1137.52 49.0095C1135.32 47.3032 1132.07 46.56 1127.86 46.56V48.56ZM1139.76 57.66H1163.7V55.66H1139.76V57.66ZM1164.7 56.66C1164.7 47.7401 1161.09 40.9502 1154.57 36.4309C1148.11 31.9475 1138.89 29.76 1127.72 29.76V31.76C1138.67 31.76 1147.44 33.9125 1153.43 38.0741C1159.38 42.1998 1162.7 48.3599 1162.7 56.66H1164.7ZM1127.72 29.76C1117.47 29.76 1109.14 31.593 1103.33 35.2701C1097.47 38.9833 1094.24 44.5478 1094.24 51.76H1096.24C1096.24 45.2522 1099.1 40.3167 1104.4 36.9599C1109.76 33.567 1117.66 31.76 1127.72 31.76V29.76ZM1094.24 51.76C1094.24 58.3747 1096.97 63.1174 1100.7 66.4366C1104.4 69.7297 1109.04 71.6052 1112.91 72.608L1113.41 70.672C1109.72 69.7148 1105.4 67.9503 1102.03 64.9434C1098.69 61.9626 1096.24 57.7453 1096.24 51.76H1094.24ZM1112.9 72.6053L1135.16 78.6253L1135.68 76.6947L1113.42 70.6747L1112.9 72.6053ZM1135.16 78.6256C1136.91 79.097 1138.06 79.6726 1138.77 80.3209C1139.43 80.9323 1139.74 81.6433 1139.74 82.56H1141.74C1141.74 81.0967 1141.21 79.8477 1140.12 78.8491C1139.08 77.8874 1137.57 77.203 1135.68 76.6944L1135.16 78.6256ZM1139.74 82.56C1139.74 83.2672 1139.6 83.8112 1139.35 84.2427C1139.1 84.6704 1138.71 85.0559 1138.08 85.386C1136.79 86.0707 1134.62 86.46 1131.22 86.46V88.46C1134.68 88.46 1137.27 88.0793 1139.02 87.154C1139.92 86.6791 1140.62 86.0496 1141.08 85.2436C1141.55 84.4413 1141.74 83.5328 1141.74 82.56H1139.74ZM1131.22 86.46C1126.38 86.46 1123.15 85.6917 1121.13 84.2346C1119.19 82.8323 1118.22 80.6653 1118.22 77.38H1116.22C1116.22 81.0947 1117.35 83.9677 1119.96 85.8553C1122.49 87.6883 1126.26 88.46 1131.22 88.46V86.46ZM1117.22 76.38H1093.14V78.38H1117.22V76.38ZM1092.14 77.38C1092.14 86.6071 1095.44 93.6893 1102.02 98.422C1108.55 103.113 1118.18 105.4 1130.66 105.4V103.4C1118.36 103.4 1109.23 101.137 1103.19 96.798C1097.21 92.5007 1094.14 86.0729 1094.14 77.38H1092.14ZM1184.92 103H1183.92V104H1184.92V103ZM1246.94 103V104H1247.94V103H1246.94ZM1246.94 81.86H1247.94V80.86H1246.94V81.86ZM1226.92 81.86H1225.92V82.86H1226.92V81.86ZM1187.44 32.16V31.16H1186.44V32.16H1187.44ZM1187.44 53.3H1186.44V54.3H1187.44V53.3ZM1204.8 53.3H1205.8V52.3H1204.8V53.3ZM1204.8 81.86V82.86H1205.8V81.86H1204.8ZM1184.92 81.86V80.86H1183.92V81.86H1184.92ZM1184.92 104H1246.94V102H1184.92V104ZM1247.94 103V81.86H1245.94V103H1247.94ZM1246.94 80.86H1226.92V82.86H1246.94V80.86ZM1227.92 81.86V43.92H1225.92V81.86H1227.92ZM1227.92 43.92C1227.92 39.8102 1226.74 36.5725 1224.4 34.3718C1222.07 32.1808 1218.74 31.16 1214.74 31.16V33.16C1218.43 33.16 1221.19 34.0992 1223.03 35.8282C1224.86 37.5474 1225.92 40.1898 1225.92 43.92H1227.92ZM1214.74 31.16H1187.44V33.16H1214.74V31.16ZM1186.44 32.16V53.3H1188.44V32.16H1186.44ZM1187.44 54.3H1204.8V52.3H1187.44V54.3ZM1203.8 53.3V81.86H1205.8V53.3H1203.8ZM1204.8 80.86H1184.92V82.86H1204.8V80.86ZM1183.92 81.86V103H1185.92V81.86H1183.92ZM1199.18 13.96C1199.18 18.3269 1200.63 21.649 1203.34 23.8534C1206.02 26.0294 1209.78 27 1214.18 27V25C1210.03 25 1206.79 24.0806 1204.6 22.3016C1202.45 20.551 1201.18 17.8531 1201.18 13.96H1199.18ZM1214.18 27C1218.57 27 1222.43 26.0294 1225.2 23.8663C1228.02 21.6726 1229.6 18.3521 1229.6 13.96H1227.6C1227.6 17.8279 1226.23 20.5274 1223.97 22.2887C1221.67 24.0806 1218.32 25 1214.18 25V27ZM1229.6 13.96C1229.6 9.63343 1228.02 6.31698 1225.21 4.10886C1222.43 1.9289 1218.58 0.919991 1214.18 0.919991V2.91999C1218.31 2.91999 1221.67 3.87108 1223.97 5.68112C1226.24 7.46301 1227.6 10.1666 1227.6 13.96H1229.6ZM1214.18 0.919991C1209.77 0.919991 1206.01 1.92899 1203.34 4.12178C1200.63 6.34077 1199.18 9.65865 1199.18 13.96H1201.18C1201.18 10.1413 1202.45 7.43922 1204.61 5.66821C1206.8 3.871 1210.04 2.91999 1214.18 2.91999V0.919991ZM1321.75 86.2V85.2H1321.06L1320.82 85.8335L1321.75 86.2ZM1327.77 86.2L1328.71 86.5251L1329.17 85.2H1327.77V86.2ZM1323.15 99.64L1322.2 99.3149L1322.15 99.4729V99.64H1323.15ZM1323.15 111.4V112.4H1324.15V111.4H1323.15ZM1274.29 111.4V110.4H1273.29V111.4H1274.29ZM1274.29 132.54H1273.29V133.54H1274.29V132.54ZM1347.09 32.16H1348.09V31.16H1347.09V32.16ZM1323.15 32.16V31.16H1322.15V32.16H1323.15ZM1323.15 35.52H1322.15V35.6887L1322.2 35.8481L1323.15 35.52ZM1327.77 48.82V49.82H1329.17L1328.71 48.4919L1327.77 48.82ZM1321.75 48.82L1320.82 49.1914L1321.07 49.82H1321.75V48.82ZM1294.17 105.4C1303.16 105.4 1309.38 103.11 1313.83 99.5452C1318.26 95.9934 1320.83 91.2584 1322.68 86.5665L1320.82 85.8335C1319.02 90.3816 1316.62 94.7466 1312.58 97.9848C1308.56 101.21 1302.81 103.4 1294.17 103.4V105.4ZM1321.75 87.2H1327.77V85.2H1321.75V87.2ZM1326.82 85.8749L1322.2 99.3149L1324.09 99.9651L1328.71 86.5251L1326.82 85.8749ZM1322.15 99.64V111.4H1324.15V99.64H1322.15ZM1323.15 110.4H1274.29V112.4H1323.15V110.4ZM1273.29 111.4V132.54H1275.29V111.4H1273.29ZM1274.29 133.54H1334.77V131.54H1274.29V133.54ZM1334.77 133.54C1338.84 133.54 1342.21 132.521 1344.56 130.269C1346.91 128.01 1348.09 124.666 1348.09 120.36H1346.09C1346.09 124.314 1345.02 127.06 1343.17 128.826C1341.32 130.599 1338.53 131.54 1334.77 131.54V133.54ZM1348.09 120.36V32.16H1346.09V120.36H1348.09ZM1347.09 31.16H1323.15V33.16H1347.09V31.16ZM1322.15 32.16V35.52H1324.15V32.16H1322.15ZM1322.2 35.8481L1326.82 49.1481L1328.71 48.4919L1324.09 35.1919L1322.2 35.8481ZM1327.77 47.82H1321.75V49.82H1327.77V47.82ZM1322.67 48.4486C1320.83 43.8272 1318.26 39.1286 1313.83 35.5957C1309.38 32.0497 1303.16 29.76 1294.17 29.76V31.76C1302.81 31.76 1308.56 33.9503 1312.58 37.1593C1316.62 40.3813 1319.03 44.7128 1320.82 49.1914L1322.67 48.4486ZM1294.17 29.76C1283.5 29.76 1275.57 34.1386 1270.34 41.0965C1265.13 48.0194 1262.65 57.4207 1262.65 67.44H1264.65C1264.65 57.7193 1267.06 48.7806 1271.93 42.2985C1276.78 35.8514 1284.11 31.76 1294.17 31.76V29.76ZM1262.65 67.44C1262.65 77.5279 1265.13 86.998 1270.33 93.973C1275.56 100.984 1283.49 105.4 1294.17 105.4V103.4C1284.12 103.4 1276.79 99.2764 1271.94 92.777C1267.06 86.242 1264.65 77.2321 1264.65 67.44H1262.65ZM1288.59 67.44C1288.59 62.1688 1290.07 58.6123 1292.78 56.3418C1295.53 54.0402 1299.73 52.9 1305.51 52.9V50.9C1299.52 50.9 1294.76 52.0698 1291.49 54.8082C1288.19 57.5777 1286.59 61.7912 1286.59 67.44H1288.59ZM1305.51 52.9C1311.29 52.9 1315.41 54.0406 1318.08 56.3343C1320.73 58.5995 1322.15 62.1551 1322.15 67.44H1324.15C1324.15 61.8049 1322.62 57.5905 1319.39 54.8157C1316.18 52.0694 1311.49 50.9 1305.51 50.9V52.9ZM1322.15 67.44C1322.15 72.8724 1320.72 76.4977 1318.08 78.7952C1315.41 81.1192 1311.29 82.26 1305.51 82.26V84.26C1311.49 84.26 1316.19 83.0908 1319.39 80.3048C1322.63 77.4923 1324.15 73.2076 1324.15 67.44H1322.15ZM1305.51 82.26C1299.73 82.26 1295.53 81.0871 1292.79 78.7373C1290.07 76.4151 1288.59 72.7853 1288.59 67.44H1286.59C1286.59 73.1547 1288.18 77.4349 1291.49 80.2577C1294.76 83.0529 1299.52 84.26 1305.51 84.26V82.26ZM1370.49 103H1369.49V104H1370.49V103ZM1394.43 103V104H1395.43V103H1394.43ZM1427.89 103H1426.89V104H1427.89V103ZM1452.11 103V104H1453.11V103H1452.11ZM1395.83 53.44V54.44H1396.63L1396.81 53.6672L1395.83 53.44ZM1389.81 53.44L1388.87 53.1119L1388.41 54.44H1389.81V53.44ZM1394.43 40.14L1395.38 40.4681L1395.43 40.3087V40.14H1394.43ZM1394.43 0.099998H1395.43V-0.900002H1394.43V0.099998ZM1370.49 0.099998V-0.900002H1369.49V0.099998H1370.49ZM1370.49 104H1394.43V102H1370.49V104ZM1395.43 103V77.52H1393.43V103H1395.43ZM1395.43 77.52C1395.43 67.6022 1397.35 61.4918 1400.51 57.8588C1403.64 54.2627 1408.16 52.9 1413.89 52.9V50.9C1407.87 50.9 1402.66 52.3373 1399 56.5462C1395.37 60.7182 1393.43 67.4178 1393.43 77.52H1395.43ZM1413.89 52.9C1419.1 52.9 1422.21 54.0328 1424.1 56.4223C1426.04 58.8828 1426.89 62.9144 1426.89 69.26H1428.89C1428.89 62.8655 1428.07 58.2172 1425.67 55.1827C1423.22 52.0772 1419.33 50.9 1413.89 50.9V52.9ZM1426.89 69.26V103H1428.89V69.26H1426.89ZM1427.89 104H1452.11V102H1427.89V104ZM1453.11 103V65.48H1451.11V103H1453.11ZM1453.11 65.48C1453.11 54.1935 1450.27 45.2526 1444.98 39.1189C1439.67 32.9656 1431.98 29.76 1422.57 29.76V31.76C1431.5 31.76 1438.59 34.7844 1443.46 40.4261C1448.35 46.0874 1451.11 54.5065 1451.11 65.48H1453.11ZM1422.57 29.76C1414.84 29.76 1408.65 32.3684 1404.01 36.6395C1399.39 40.8979 1396.37 46.7611 1394.86 53.2128L1396.81 53.6672C1398.24 47.5189 1401.1 42.0421 1405.37 38.1105C1409.62 34.1916 1415.33 31.76 1422.57 31.76V29.76ZM1395.83 52.44H1389.81V54.44H1395.83V52.44ZM1390.76 53.7681L1395.38 40.4681L1393.49 39.8119L1388.87 53.1119L1390.76 53.7681ZM1395.43 40.14V0.099998H1393.43V40.14H1395.43ZM1394.43 -0.900002H1370.49V1.1H1394.43V-0.900002ZM1369.49 0.099998V103H1371.49V0.099998H1369.49ZM1537.1 81.86H1538.1V80.8547L1537.09 80.86L1537.1 81.86ZM1510.78 82H1509.78V83.0053L1510.78 83L1510.78 82ZM1510.78 53.3V52.3H1509.78V53.3H1510.78ZM1534.3 53.3V54.3H1535.3V53.3H1534.3ZM1534.3 32.16H1535.3V31.16H1534.3V32.16ZM1510.78 32.16H1509.78V33.16H1510.78V32.16ZM1510.78 12H1511.78V10.6355L1510.48 11.0464L1510.78 12ZM1486.84 19.56L1486.54 18.6064L1485.84 18.8271V19.56H1486.84ZM1486.84 32.16V33.16H1487.84V32.16H1486.84ZM1469.76 32.16V31.16H1468.76V32.16H1469.76ZM1469.76 53.3H1468.76V54.3H1469.76V53.3ZM1486.84 53.3H1487.84V52.3H1486.84V53.3ZM1537.1 103V104H1538.1V103H1537.1ZM1537.09 80.86L1510.77 81L1510.78 83L1537.1 82.86L1537.09 80.86ZM1511.78 82V53.3H1509.78V82H1511.78ZM1510.78 54.3H1534.3V52.3H1510.78V54.3ZM1535.3 53.3V32.16H1533.3V53.3H1535.3ZM1534.3 31.16H1510.78V33.16H1534.3V31.16ZM1511.78 32.16V12H1509.78V32.16H1511.78ZM1510.48 11.0464L1486.54 18.6064L1487.14 20.5136L1511.08 12.9536L1510.48 11.0464ZM1485.84 19.56V32.16H1487.84V19.56H1485.84ZM1486.84 31.16H1469.76V33.16H1486.84V31.16ZM1468.76 32.16V53.3H1470.76V32.16H1468.76ZM1469.76 54.3H1486.84V52.3H1469.76V54.3ZM1485.84 53.3V90.68H1487.84V53.3H1485.84ZM1485.84 90.68C1485.84 94.8454 1486.97 98.2123 1489.28 100.537C1491.58 102.862 1494.92 104 1499.02 104V102C1495.28 102 1492.52 100.968 1490.7 99.1284C1488.87 97.2877 1487.84 94.4946 1487.84 90.68H1485.84ZM1499.02 104H1537.1V102H1499.02V104ZM1538.1 103V81.86H1536.1V103H1538.1Z" fill="white"/>
</svg>
