<svg viewBox="0 0 272 105" fill="none" xmlns="http://www.w3.org/2000/svg">
<path d="M52.7 2.75L53.6912 2.88216L53.8422 1.75H52.7V2.75ZM43.65 2.75V1.75H42.7715L42.6583 2.62114L43.65 2.75ZM40.2 29.3L39.2083 29.1711L39.1945 29.2778L39.2036 29.385L40.2 29.3ZM40.75 35.75V36.75H41.8389L41.7464 35.665L40.75 35.75ZM38.5 35.75L37.5025 35.821L37.5687 36.75H38.5V35.75ZM36.15 2.75L37.1475 2.67897L37.0813 1.75H36.15V2.75ZM17.65 2.75V1.75H16.7201L16.6526 2.67746L17.65 2.75ZM15.25 35.75V36.75H16.1799L16.2474 35.8225L15.25 35.75ZM13.05 35.75L12.055 35.6505L11.945 36.75H13.05V35.75ZM13.7 29.25L14.695 29.3495L14.7068 29.2322L14.6909 29.1154L13.7 29.25ZM10.1 2.75L11.0909 2.61539L10.9733 1.75H10.1V2.75ZM1 2.75V1.75H-0.142183L0.00877217 2.88216L1 2.75ZM5.7 38L4.70877 38.1322L4.82448 39H5.7V38ZM23.4 38V39H24.3299L24.3974 38.0725L23.4 38ZM25.8 5V4H24.8701L24.8026 4.92746L25.8 5ZM28 5L28.9974 4.92746L28.9299 4H28V5ZM30.4 38L29.4026 38.0725L29.4701 39H30.4V38ZM48 38V39H48.8755L48.9912 38.1322L48 38ZM52.7 1.75H43.65V3.75H52.7V1.75ZM42.6583 2.62114L39.2083 29.1711L41.1917 29.4289L44.6417 2.87886L42.6583 2.62114ZM39.2036 29.385L39.7536 35.835L41.7464 35.665L41.1964 29.215L39.2036 29.385ZM40.75 34.75H38.5V36.75H40.75V34.75ZM39.4975 35.679L37.1475 2.67897L35.1525 2.82103L37.5025 35.821L39.4975 35.679ZM36.15 1.75H17.65V3.75H36.15V1.75ZM16.6526 2.67746L14.2526 35.6775L16.2474 35.8225L18.6474 2.82253L16.6526 2.67746ZM15.25 34.75H13.05V36.75H15.25V34.75ZM14.045 35.8495L14.695 29.3495L12.705 29.1505L12.055 35.6505L14.045 35.8495ZM14.6909 29.1154L11.0909 2.61539L9.1091 2.88461L12.7091 29.3846L14.6909 29.1154ZM10.1 1.75H1V3.75H10.1V1.75ZM0.00877217 2.88216L4.70877 38.1322L6.69123 37.8678L1.99123 2.61783L0.00877217 2.88216ZM5.7 39H23.4V37H5.7V39ZM24.3974 38.0725L26.7974 5.07253L24.8026 4.92746L22.4026 37.9275L24.3974 38.0725ZM25.8 6H28V4H25.8V6ZM27.0026 5.07253L29.4026 38.0725L31.3974 37.9275L28.9974 4.92746L27.0026 5.07253ZM30.4 39H48V37H30.4V39ZM48.9912 38.1322L53.6912 2.88216L51.7088 2.61783L47.0088 37.8678L48.9912 38.1322ZM52.5949 25.3C52.5949 30.0842 54.3119 33.6808 57.174 36.0624C60.009 38.4215 63.8592 39.5 67.9949 39.5V37.5C64.1806 37.5 60.8308 36.5035 58.4533 34.5251C56.1029 32.5692 54.5949 29.5658 54.5949 25.3H52.5949ZM67.9949 39.5C72.0831 39.5 75.9198 38.4203 78.7533 36.0624C81.6137 33.6822 83.3449 30.0867 83.3449 25.3H81.3449C81.3449 29.5633 79.8261 32.5678 77.474 34.5251C75.0951 36.5047 71.7568 37.5 67.9949 37.5V39.5ZM83.3449 25.3C83.3449 20.5597 81.6111 16.9894 78.7511 14.6233C75.9184 12.2796 72.083 11.2 67.9949 11.2V13.2C71.7568 13.2 75.0964 14.1954 77.4762 16.1642C79.8288 18.1106 81.3449 21.0903 81.3449 25.3H83.3449ZM67.9949 11.2C63.8593 11.2 60.0104 12.2784 57.1762 14.6233C54.3146 16.9908 52.5949 20.5622 52.5949 25.3H54.5949C54.5949 21.0878 56.1003 18.1092 58.4511 16.1642C60.8295 14.1966 64.1806 13.2 67.9949 13.2V11.2ZM63.1449 25.3C63.1449 23.6422 63.6567 22.5519 64.4249 21.8634C65.2108 21.1589 66.4047 20.75 67.9949 20.75V18.75C66.0852 18.75 64.354 19.2411 63.09 20.3741C61.8081 21.5231 61.1449 23.2078 61.1449 25.3H63.1449ZM67.9949 20.75C69.5286 20.75 70.6973 21.1555 71.4729 21.8593C72.2327 22.5487 72.7449 23.6419 72.7449 25.3H74.7449C74.7449 23.2081 74.0821 21.5263 72.8169 20.3782C71.5675 19.2445 69.8612 18.75 67.9949 18.75V20.75ZM72.7449 25.3C72.7449 26.9875 72.2297 28.1086 71.4655 28.8162C70.6886 29.5356 69.5219 29.95 67.9949 29.95V31.95C69.8679 31.95 71.5762 31.4394 72.8243 30.2838C74.0851 29.1164 74.7449 27.4125 74.7449 25.3H72.7449ZM67.9949 29.95C66.4112 29.95 65.2194 29.532 64.4323 28.8121C63.6598 28.1055 63.1449 26.9872 63.1449 25.3H61.1449C61.1449 27.4128 61.8051 29.1195 63.0825 30.2879C64.3454 31.443 66.0787 31.95 67.9949 31.95V29.95ZM85.952 38H84.952V39H85.952V38ZM94.552 38V39H95.552V38H94.552ZM94.552 20.25V19.25H93.552V20.25H94.552ZM107.352 20.25V21.25H108.352V20.25H107.352ZM107.352 12.7H108.352V11.7H107.352V12.7ZM84.952 17.05V38H86.952V17.05H84.952ZM85.952 39H94.552V37H85.952V39ZM95.552 38V20.25H93.552V38H95.552ZM94.552 21.25H107.352V19.25H94.552V21.25ZM108.352 20.25V12.7H106.352V20.25H108.352ZM107.352 11.7H90.402V13.7H107.352V11.7ZM90.402 11.7C88.8102 11.7 87.4132 12.1203 86.4131 13.0874C85.4074 14.0598 84.952 15.4406 84.952 17.05H86.952C86.952 15.8094 87.2965 15.0152 87.8033 14.5251C88.3157 14.0297 89.1437 13.7 90.402 13.7V11.7ZM110.264 38H109.264V39H110.264V38ZM118.814 38V39H119.814V38H118.814ZM118.814 28.3V27.3H117.814V28.3H118.814ZM120.814 28.3L121.603 27.6858L121.303 27.3H120.814V28.3ZM128.364 38L127.575 38.6142L127.875 39H128.364V38ZM138.664 38V39H140.776L139.437 37.3663L138.664 38ZM128.014 25L127.258 24.3454L126.706 24.9822L127.24 25.6337L128.014 25ZM138.664 12.7L139.42 13.3546L140.852 11.7H138.664V12.7ZM128.364 12.7V11.7H127.886L127.586 12.0711L128.364 12.7ZM121.164 21.6V22.6H121.641L121.941 22.2289L121.164 21.6ZM118.814 21.6H117.814V22.6H118.814V21.6ZM118.814 1.25H119.814V0.249999H118.814V1.25ZM110.264 1.25V0.249999H109.264V1.25H110.264ZM110.264 39H118.814V37H110.264V39ZM119.814 38V28.3H117.814V38H119.814ZM118.814 29.3H120.814V27.3H118.814V29.3ZM120.025 28.9142L127.575 38.6142L129.153 37.3858L121.603 27.6858L120.025 28.9142ZM128.364 39H138.664V37H128.364V39ZM139.437 37.3663L128.787 24.3663L127.24 25.6337L137.89 38.6337L139.437 37.3663ZM128.77 25.6546L139.42 13.3546L137.908 12.0454L127.258 24.3454L128.77 25.6546ZM138.664 11.7H128.364V13.7H138.664V11.7ZM127.586 12.0711L120.386 20.9711L121.941 22.2289L129.141 13.3289L127.586 12.0711ZM121.164 20.6H118.814V22.6H121.164V20.6ZM119.814 21.6V1.25H117.814V21.6H119.814ZM118.814 0.249999H110.264V2.25H118.814V0.249999ZM109.264 1.25V38H111.264V1.25H109.264ZM154.738 2.75V1.75H153.738V2.75H154.738ZM154.738 10.7H153.738V11.7H154.738V10.7ZM162.788 10.7H163.788V9.7H162.788V10.7ZM162.788 30V31H163.788V30H162.788ZM154.738 30V29H153.738V30H154.738ZM154.738 38H153.738V39H154.738V38ZM179.888 38V39H180.888V38H179.888ZM179.888 30H180.888V29H179.888V30ZM171.838 30H170.838V31H171.838V30ZM171.838 10.7V9.7H170.838V10.7H171.838ZM179.888 10.7V11.7H180.888V10.7H179.888ZM179.888 2.75H180.888V1.75H179.888V2.75ZM153.738 2.75V10.7H155.738V2.75H153.738ZM154.738 11.7H162.788V9.7H154.738V11.7ZM161.788 10.7V30H163.788V10.7H161.788ZM162.788 29H154.738V31H162.788V29ZM153.738 30V38H155.738V30H153.738ZM154.738 39H179.888V37H154.738V39ZM180.888 38V30H178.888V38H180.888ZM179.888 29H171.838V31H179.888V29ZM172.838 30V10.7H170.838V30H172.838ZM171.838 11.7H179.888V9.7H171.838V11.7ZM180.888 10.7V2.75H178.888V10.7H180.888ZM179.888 1.75H154.738V3.75H179.888V1.75ZM183.652 38H182.652V39H183.652V38ZM192.202 38V39H193.202V38H192.202ZM204.202 38H203.202V39H204.202V38ZM212.802 38V39H213.802V38H212.802ZM192.702 20.3V21.3H193.505L193.679 20.5169L192.702 20.3ZM190.602 20.3L189.655 19.9808L189.21 21.3H190.602V20.3ZM192.202 15.55L193.15 15.8692L193.202 15.7139V15.55H192.202ZM192.202 12.7H193.202V11.7H192.202V12.7ZM183.652 12.7V11.7H182.652V12.7H183.652ZM183.652 39H192.202V37H183.652V39ZM193.202 38V28.85H191.202V38H193.202ZM193.202 28.85C193.202 25.3705 193.89 23.3921 194.871 22.2804C195.822 21.2021 197.222 20.75 199.152 20.75V18.75C196.933 18.75 194.857 19.2729 193.371 20.9571C191.915 22.6079 191.202 25.1795 191.202 28.85H193.202ZM199.152 20.75C200.937 20.75 201.817 21.1402 202.322 21.7697C202.88 22.4644 203.202 23.7055 203.202 25.95H205.202C205.202 23.6445 204.9 21.7856 203.882 20.5178C202.812 19.1848 201.168 18.75 199.152 18.75V20.75ZM203.202 25.95V38H205.202V25.95H203.202ZM204.202 39H212.802V37H204.202V39ZM213.802 38V24.55H211.802V38H213.802ZM213.802 24.55C213.802 20.392 212.75 17.0404 210.71 14.7155C208.655 12.373 205.71 11.2 202.202 11.2V13.2C205.245 13.2 207.599 14.202 209.207 16.0345C210.83 17.8846 211.802 20.708 211.802 24.55H213.802ZM202.202 11.2C199.263 11.2 196.891 12.1871 195.122 13.8297C193.367 15.4591 192.26 17.6811 191.726 20.0831L193.679 20.5169C194.145 18.4189 195.088 16.5909 196.483 15.2953C197.864 14.0129 199.742 13.2 202.202 13.2V11.2ZM192.702 19.3H190.602V21.3H192.702V19.3ZM191.55 20.6192L193.15 15.8692L191.255 15.2308L189.655 19.9808L191.55 20.6192ZM193.202 15.55V12.7H191.202V15.55H193.202ZM192.202 11.7H183.652V13.7H192.202V11.7ZM182.652 12.7V38H184.652V12.7H182.652ZM2.85 89H1.85V90H2.85V89ZM11.95 89V90H12.95V89H11.95ZM11.95 79.35V78.35H10.95V79.35H11.95ZM2.85 53.75V52.75H1.85V53.75H2.85ZM11.95 71.4H10.95V72.4H11.95V71.4ZM11.95 61.7V60.7H10.95V61.7H11.95ZM2.85 90H11.95V88H2.85V90ZM12.95 89V79.35H10.95V89H12.95ZM11.95 80.35H16.75V78.35H11.95V80.35ZM16.75 80.35C22.3457 80.35 26.6139 79.4215 29.4882 77.1538C32.4194 74.8412 33.7 71.3041 33.7 66.6H31.7C31.7 70.9459 30.5306 73.7838 28.2494 75.5837C25.9111 77.4285 22.2044 78.35 16.75 78.35V80.35ZM33.7 66.6C33.7 61.8493 32.4214 58.287 29.4905 55.9605C26.6153 53.6783 22.3453 52.75 16.75 52.75V54.75C22.2047 54.75 25.9097 55.6717 28.247 57.527C30.5286 59.338 31.7 62.2006 31.7 66.6H33.7ZM16.75 52.75H2.85V54.75H16.75V52.75ZM1.85 53.75V89H3.85V53.75H1.85ZM12.95 71.4V61.7H10.95V71.4H12.95ZM11.95 62.7H17.3V60.7H11.95V62.7ZM17.3 62.7C19.4623 62.7 20.7684 63.0065 21.5328 63.5683C22.2152 64.0698 22.65 64.9217 22.65 66.6H24.65C24.65 64.5783 24.1098 62.9802 22.7172 61.9567C21.4066 60.9935 19.5377 60.7 17.3 60.7V62.7ZM22.65 66.6C22.65 68.219 22.2208 69.0468 21.5392 69.5396C20.7722 70.094 19.4612 70.4 17.3 70.4V72.4C19.5388 72.4 21.4028 72.106 22.7108 71.1604C24.1042 70.1532 24.65 68.581 24.65 66.6H22.65ZM17.3 70.4H11.95V72.4H17.3V70.4ZM35.9031 89H34.9031V90H35.9031V89ZM44.5031 89V90H45.5031V89H44.5031ZM44.5031 71.25V70.25H43.5031V71.25H44.5031ZM57.3031 71.25V72.25H58.3031V71.25H57.3031ZM57.3031 63.7H58.3031V62.7H57.3031V63.7ZM34.9031 68.05V89H36.9031V68.05H34.9031ZM35.9031 90H44.5031V88H35.9031V90ZM45.5031 89V71.25H43.5031V89H45.5031ZM44.5031 72.25H57.3031V70.25H44.5031V72.25ZM58.3031 71.25V63.7H56.3031V71.25H58.3031ZM57.3031 62.7H40.3531V64.7H57.3031V62.7ZM40.3531 62.7C38.7614 62.7 37.3644 63.1203 36.3643 64.0874C35.3586 65.0598 34.9031 66.4406 34.9031 68.05H36.9031C36.9031 66.8094 37.2477 66.0152 37.7545 65.5251C38.2669 65.0297 39.0949 64.7 40.3531 64.7V62.7ZM57.1848 76.3C57.1848 81.0842 58.9018 84.6808 61.7639 87.0624C64.5989 89.4215 68.4491 90.5 72.5848 90.5V88.5C68.7704 88.5 65.4207 87.5035 63.0432 85.5251C60.6928 83.5692 59.1848 80.5658 59.1848 76.3H57.1848ZM72.5848 90.5C76.6729 90.5 80.5096 89.4203 83.3432 87.0624C86.2036 84.6822 87.9348 81.0867 87.9348 76.3H85.9348C85.9348 80.5633 84.4159 83.5678 82.0639 85.5251C79.6849 87.5047 76.3466 88.5 72.5848 88.5V90.5ZM87.9348 76.3C87.9348 71.5597 86.2009 67.9894 83.341 65.6233C80.5083 63.2796 76.6729 62.2 72.5848 62.2V64.2C76.3466 64.2 79.6863 65.1954 82.0661 67.1642C84.4186 69.1106 85.9348 72.0903 85.9348 76.3H87.9348ZM72.5848 62.2C68.4491 62.2 64.6002 63.2784 61.7661 65.6233C58.9044 67.9908 57.1848 71.5622 57.1848 76.3H59.1848C59.1848 72.0878 60.6901 69.1092 63.041 67.1642C65.4193 65.1966 68.7704 64.2 72.5848 64.2V62.2ZM67.7348 76.3C67.7348 74.6422 68.2466 73.5519 69.0147 72.8634C69.8007 72.1589 70.9945 71.75 72.5848 71.75V69.75C70.675 69.75 68.9439 70.2411 67.6798 71.3741C66.3979 72.5231 65.7348 74.2078 65.7348 76.3H67.7348ZM72.5848 71.75C74.1185 71.75 75.2872 72.1555 76.0628 72.8593C76.8226 73.5487 77.3348 74.6419 77.3348 76.3H79.3348C79.3348 74.2081 78.672 72.5263 77.4068 71.3782C76.1574 70.2445 74.4511 69.75 72.5848 69.75V71.75ZM77.3348 76.3C77.3348 77.9875 76.8196 79.1086 76.0554 79.8162C75.2785 80.5356 74.1118 80.95 72.5848 80.95V82.95C74.4578 82.95 76.1661 82.4394 77.4142 81.2838C78.675 80.1164 79.3348 78.4125 79.3348 76.3H77.3348ZM72.5848 80.95C71.001 80.95 69.8093 80.532 69.0222 79.8121C68.2496 79.1055 67.7348 77.9872 67.7348 76.3H65.7348C65.7348 78.4128 66.3949 80.1195 67.6724 81.2879C68.9352 82.443 70.6685 82.95 72.5848 82.95V80.95ZM110.482 83V82H109.802L109.552 82.6335L110.482 83ZM112.632 83L113.578 83.3251L114.034 82H112.632V83ZM110.982 87.8L110.037 87.4749L109.982 87.6329V87.8H110.982ZM110.982 92V93H111.982V92H110.982ZM93.5324 92V91H92.5324V92H93.5324ZM93.5324 99.55H92.5324V100.55H93.5324V99.55ZM119.532 63.7H120.532V62.7H119.532V63.7ZM110.982 63.7V62.7H109.982V63.7H110.982ZM110.982 64.9H109.982V65.0687L110.038 65.2281L110.982 64.9ZM112.632 69.65V70.65H114.038L113.577 69.3219L112.632 69.65ZM110.482 69.65L109.554 70.0214L109.805 70.65H110.482V69.65ZM100.632 90.5C103.961 90.5 106.333 89.6503 108.058 88.2677C109.766 86.8984 110.735 85.0884 111.413 83.3665L109.552 82.6335C108.93 84.2116 108.124 85.6516 106.807 86.7073C105.507 87.7497 103.604 88.5 100.632 88.5V90.5ZM110.482 84H112.632V82H110.482V84ZM111.687 82.6749L110.037 87.4749L111.928 88.1251L113.578 83.3251L111.687 82.6749ZM109.982 87.8V92H111.982V87.8H109.982ZM110.982 91H93.5324V93H110.982V91ZM92.5324 92V99.55H94.5324V92H92.5324ZM93.5324 100.55H115.132V98.55H93.5324V100.55ZM115.132 100.55C116.686 100.55 118.075 100.161 119.074 99.2032C120.082 98.2379 120.532 96.8506 120.532 95.2H118.532C118.532 96.4994 118.183 97.2871 117.691 97.7593C117.19 98.2388 116.378 98.55 115.132 98.55V100.55ZM120.532 95.2V63.7H118.532V95.2H120.532ZM119.532 62.7H110.982V64.7H119.532V62.7ZM109.982 63.7V64.9H111.982V63.7H109.982ZM110.038 65.2281L111.688 69.9781L113.577 69.3219L111.927 64.5719L110.038 65.2281ZM112.632 68.65H110.482V70.65H112.632V68.65ZM111.411 69.2786C110.732 67.5822 109.763 65.7861 108.056 64.4244C106.332 63.0497 103.961 62.2 100.632 62.2V64.2C103.604 64.2 105.508 64.9503 106.809 65.9881C108.126 67.0388 108.933 68.4678 109.554 70.0214L111.411 69.2786ZM100.632 62.2C96.6233 62.2 93.6002 63.8561 91.6082 66.5052C89.6424 69.1194 88.7324 72.6257 88.7324 76.3H90.7324C90.7324 72.9243 91.5724 69.8806 93.2067 67.7073C94.8146 65.5689 97.2415 64.2 100.632 64.2V62.2ZM88.7324 76.3C88.7324 79.9979 89.6417 83.528 91.6059 86.1605C93.5966 88.8286 96.62 90.5 100.632 90.5V88.5C97.2448 88.5 94.8182 87.1214 93.2089 84.9645C91.5731 82.772 90.7324 79.7021 90.7324 76.3H88.7324ZM99.2824 76.3C99.2824 74.5388 99.7723 73.4798 100.549 72.8293C101.363 72.1477 102.684 71.75 104.682 71.75V69.75C102.481 69.75 100.601 70.1773 99.2655 71.2957C97.8925 72.4452 97.2824 74.1612 97.2824 76.3H99.2824ZM104.682 71.75C106.682 71.75 107.971 72.1481 108.757 72.8218C109.509 73.467 109.982 74.5251 109.982 76.3H111.982C111.982 74.1749 111.405 72.458 110.058 71.3032C108.744 70.1769 106.883 69.75 104.682 69.75V71.75ZM109.982 76.3C109.982 78.1324 109.505 79.2152 108.751 79.8702C107.967 80.5517 106.682 80.95 104.682 80.95V82.95C106.883 82.95 108.748 82.5233 110.063 81.3798C111.41 80.2098 111.982 78.4676 111.982 76.3H109.982ZM104.682 80.95C102.69 80.95 101.372 80.5421 100.557 79.8461C99.775 79.1776 99.2824 78.0903 99.2824 76.3H97.2824C97.2824 78.4597 97.8898 80.1974 99.2577 81.3664C100.593 82.5079 102.475 82.95 104.682 82.95V80.95ZM123.598 89H122.598V90H123.598V89ZM132.198 89V90H133.198V89H132.198ZM132.198 71.25V70.25H131.198V71.25H132.198ZM144.998 71.25V72.25H145.998V71.25H144.998ZM144.998 63.7H145.998V62.7H144.998V63.7ZM122.598 68.05V89H124.598V68.05H122.598ZM123.598 90H132.198V88H123.598V90ZM133.198 89V71.25H131.198V89H133.198ZM132.198 72.25H144.998V70.25H132.198V72.25ZM145.998 71.25V63.7H143.998V71.25H145.998ZM144.998 62.7H128.048V64.7H144.998V62.7ZM128.048 62.7C126.457 62.7 125.06 63.1203 124.06 64.0874C123.054 65.0598 122.598 66.4406 122.598 68.05H124.598C124.598 66.8094 124.943 66.0152 125.45 65.5251C125.962 65.0297 126.79 64.7 128.048 64.7V62.7ZM173.229 80.05L174.221 80.174L174.362 79.05H173.229V80.05ZM164.729 80.05V79.05H163.953L163.76 79.8016L164.729 80.05ZM154.529 78.15V77.15H153.429L153.533 78.2448L154.529 78.15ZM173.179 78.15V79.15H174.179V78.15H173.179ZM154.529 73.75L153.531 73.6788L153.455 74.75H154.529V73.75ZM164.829 73.75V74.75H165.922L165.825 73.6611L164.829 73.75ZM144.929 76.25C144.929 80.4295 146.336 84.0149 148.951 86.5548C151.564 89.0928 155.293 90.5 159.779 90.5V88.5C155.715 88.5 152.519 87.2322 150.344 85.1202C148.172 83.0101 146.929 79.9705 146.929 76.25H144.929ZM159.779 90.5C163.838 90.5 167.244 89.4984 169.752 87.6854C172.274 85.8628 173.836 83.2533 174.221 80.174L172.237 79.926C171.922 82.4467 170.659 84.5622 168.581 86.0646C166.489 87.5766 163.52 88.5 159.779 88.5V90.5ZM173.229 79.05H164.729V81.05H173.229V79.05ZM163.76 79.8016C163.42 81.1295 162.189 82.05 159.779 82.05V84.05C162.669 84.05 165.038 82.8705 165.698 80.2984L163.76 79.8016ZM159.779 82.05C158.419 82.05 157.448 81.6701 156.788 81.0514C156.123 80.429 155.658 79.4571 155.524 78.0552L153.533 78.2448C153.7 79.9929 154.31 81.471 155.42 82.5111C156.535 83.5549 158.038 84.05 159.779 84.05V82.05ZM154.529 79.15H173.179V77.15H154.529V79.15ZM174.179 78.15V75.9H172.179V78.15H174.179ZM174.179 75.9C174.179 71.707 172.841 68.243 170.239 65.8349C167.648 63.4363 163.928 62.2 159.379 62.2V64.2C163.58 64.2 166.759 65.3387 168.881 67.3026C170.992 69.257 172.179 72.143 172.179 75.9H174.179ZM159.379 62.2C155.247 62.2 151.623 63.4921 149.024 65.9409C146.418 68.397 144.929 71.9355 144.929 76.25H146.929C146.929 72.4145 148.24 69.428 150.396 67.3966C152.559 65.3579 155.661 64.2 159.379 64.2V62.2ZM155.526 73.8212C155.61 72.6504 156.046 71.8304 156.689 71.2919C157.346 70.7422 158.323 70.4 159.629 70.4V68.4C157.985 68.4 156.512 68.8328 155.406 69.7581C154.287 70.6946 153.648 72.0496 153.531 73.6788L155.526 73.8212ZM159.629 70.4C160.962 70.4 161.954 70.7437 162.624 71.2963C163.281 71.8384 163.728 72.6632 163.833 73.8389L165.825 73.6611C165.68 72.0368 165.027 70.6866 163.897 69.7537C162.779 68.8313 161.295 68.4 159.629 68.4V70.4ZM164.829 72.75H154.529V74.75H164.829V72.75ZM193.563 74.1L193.332 75.073L193.335 75.0736L193.563 74.1ZM187.663 72.7L187.42 73.6702L187.432 73.673L187.663 72.7ZM192.513 72.45H191.513V73.45H192.513V72.45ZM201.063 72.45V73.45H202.063V72.45H201.063ZM183.013 77.8L183.274 76.8346L183.264 76.832L183.013 77.8ZM190.963 79.95L190.702 80.9153L190.703 80.9156L190.963 79.95ZM184.463 79.85H185.463V78.85H184.463V79.85ZM175.863 79.85V78.85H174.863V79.85H175.863ZM189.263 90.5C193.469 90.5 196.745 89.8041 198.998 88.3533C201.32 86.8577 202.463 84.6182 202.463 81.85H200.463C200.463 83.9818 199.63 85.5673 197.915 86.6717C196.131 87.8209 193.306 88.5 189.263 88.5V90.5ZM202.463 81.85C202.463 79.1135 201.357 77.1353 199.668 75.7413C198.025 74.3844 195.874 73.6149 193.791 73.1264L193.335 75.0736C195.302 75.5351 197.101 76.2156 198.395 77.2837C199.644 78.3147 200.463 79.7365 200.463 81.85H202.463ZM193.794 73.127L187.894 71.727L187.432 73.673L193.332 75.073L193.794 73.127ZM187.905 71.7299C187.155 71.5424 186.677 71.3314 186.405 71.1318C186.165 70.9554 186.163 70.8528 186.163 70.8H184.163C184.163 71.6472 184.61 72.2946 185.221 72.7431C185.799 73.1685 186.57 73.4576 187.42 73.6701L187.905 71.7299ZM186.163 70.8C186.163 70.7175 186.163 70.627 186.419 70.4964C186.737 70.3334 187.326 70.2 188.263 70.2V68.2C187.2 68.2 186.239 68.3416 185.507 68.7161C184.712 69.123 184.163 69.8325 184.163 70.8H186.163ZM188.263 70.2C189.654 70.2 190.448 70.4543 190.882 70.7905C191.26 71.0834 191.513 71.5562 191.513 72.45H193.513C193.513 71.1438 193.116 69.9916 192.107 69.2095C191.153 68.4707 189.822 68.2 188.263 68.2V70.2ZM192.513 73.45H201.063V71.45H192.513V73.45ZM202.063 72.45C202.063 69.0651 200.679 66.4377 198.17 64.6971C195.713 62.9925 192.271 62.2 188.213 62.2V64.2C192.055 64.2 195.037 64.9575 197.03 66.3404C198.972 67.6873 200.063 69.6849 200.063 72.45H202.063ZM188.213 62.2C184.493 62.2 181.377 62.863 179.159 64.2676C176.884 65.7083 175.613 67.8978 175.613 70.7H177.613C177.613 68.6022 178.517 67.0417 180.229 65.9574C181.998 64.837 184.683 64.2 188.213 64.2V62.2ZM175.613 70.7C175.613 73.2647 176.683 75.1274 178.135 76.4216C179.558 77.6897 181.324 78.3952 182.762 78.768L183.264 76.832C182.002 76.5048 180.568 75.9103 179.466 74.9284C178.393 73.9726 177.613 72.6353 177.613 70.7H175.613ZM182.752 78.7653L190.702 80.9153L191.224 78.9847L183.274 76.8347L182.752 78.7653ZM190.703 80.9156C191.284 81.072 191.581 81.2426 191.723 81.3734C191.825 81.4673 191.863 81.5483 191.863 81.7H193.863C193.863 81.0017 193.6 80.3827 193.077 79.9016C192.595 79.4574 191.942 79.178 191.223 78.9844L190.703 80.9156ZM191.863 81.7C191.863 81.8672 191.831 81.9444 191.81 81.9793C191.792 82.0104 191.749 82.0697 191.614 82.141C191.298 82.3082 190.657 82.45 189.463 82.45V84.45C190.719 84.45 191.778 84.3168 192.549 83.909C192.958 83.6928 193.305 83.3896 193.542 82.9801C193.776 82.5744 193.863 82.1328 193.863 81.7H191.863ZM189.463 82.45C187.776 82.45 186.789 82.1767 186.236 81.7771C185.759 81.4323 185.463 80.8853 185.463 79.85H183.463C183.463 81.3147 183.916 82.5677 185.064 83.3979C186.137 84.1733 187.65 84.45 189.463 84.45V82.45ZM184.463 78.85H175.863V80.85H184.463V78.85ZM174.863 79.85C174.863 83.3171 176.114 86.0568 178.661 87.887C181.149 89.6752 184.744 90.5 189.263 90.5V88.5C184.932 88.5 181.827 87.6998 179.828 86.263C177.887 84.8682 176.863 82.7829 176.863 79.85H174.863ZM221.688 74.1L221.457 75.073L221.46 75.0736L221.688 74.1ZM215.788 72.7L215.545 73.6702L215.557 73.673L215.788 72.7ZM220.638 72.45H219.638V73.45H220.638V72.45ZM229.188 72.45V73.45H230.188V72.45H229.188ZM211.138 77.8L211.399 76.8346L211.389 76.832L211.138 77.8ZM219.088 79.95L218.827 80.9153L218.828 80.9156L219.088 79.95ZM212.588 79.85H213.588V78.85H212.588V79.85ZM203.988 79.85V78.85H202.988V79.85H203.988ZM217.388 90.5C221.594 90.5 224.87 89.8041 227.123 88.3533C229.445 86.8577 230.588 84.6182 230.588 81.85H228.588C228.588 83.9818 227.755 85.5673 226.04 86.6717C224.256 87.8209 221.431 88.5 217.388 88.5V90.5ZM230.588 81.85C230.588 79.1135 229.482 77.1353 227.793 75.7413C226.15 74.3844 223.999 73.6149 221.916 73.1264L221.46 75.0736C223.427 75.5351 225.226 76.2156 226.52 77.2837C227.769 78.3147 228.588 79.7365 228.588 81.85H230.588ZM221.919 73.127L216.019 71.727L215.557 73.673L221.457 75.073L221.919 73.127ZM216.03 71.7299C215.28 71.5424 214.802 71.3314 214.53 71.1318C214.29 70.9554 214.288 70.8528 214.288 70.8H212.288C212.288 71.6472 212.735 72.2946 213.346 72.7431C213.924 73.1685 214.695 73.4576 215.545 73.6701L216.03 71.7299ZM214.288 70.8C214.288 70.7175 214.288 70.627 214.544 70.4964C214.862 70.3334 215.451 70.2 216.388 70.2V68.2C215.325 68.2 214.364 68.3416 213.632 68.7161C212.837 69.123 212.288 69.8325 212.288 70.8H214.288ZM216.388 70.2C217.779 70.2 218.573 70.4543 219.007 70.7905C219.385 71.0834 219.638 71.5562 219.638 72.45H221.638C221.638 71.1438 221.241 69.9916 220.232 69.2095C219.278 68.4707 217.947 68.2 216.388 68.2V70.2ZM220.638 73.45H229.188V71.45H220.638V73.45ZM230.188 72.45C230.188 69.0651 228.804 66.4377 226.295 64.6971C223.838 62.9925 220.396 62.2 216.338 62.2V64.2C220.18 64.2 223.162 64.9575 225.155 66.3404C227.097 67.6873 228.188 69.6849 228.188 72.45H230.188ZM216.338 62.2C212.618 62.2 209.502 62.863 207.284 64.2676C205.009 65.7083 203.738 67.8978 203.738 70.7H205.738C205.738 68.6022 206.642 67.0417 208.354 65.9574C210.123 64.837 212.808 64.2 216.338 64.2V62.2ZM203.738 70.7C203.738 73.2647 204.808 75.1274 206.26 76.4216C207.683 77.6897 209.449 78.3952 210.887 78.768L211.389 76.832C210.127 76.5048 208.693 75.9103 207.591 74.9284C206.518 73.9726 205.738 72.6353 205.738 70.7H203.738ZM210.877 78.7653L218.827 80.9153L219.349 78.9847L211.399 76.8347L210.877 78.7653ZM218.828 80.9156C219.409 81.072 219.706 81.2426 219.848 81.3734C219.95 81.4673 219.988 81.5483 219.988 81.7H221.988C221.988 81.0017 221.725 80.3827 221.202 79.9016C220.72 79.4574 220.067 79.178 219.348 78.9844L218.828 80.9156ZM219.988 81.7C219.988 81.8672 219.956 81.9444 219.935 81.9793C219.917 82.0104 219.874 82.0697 219.739 82.141C219.423 82.3082 218.782 82.45 217.588 82.45V84.45C218.844 84.45 219.903 84.3168 220.674 83.909C221.083 83.6928 221.43 83.3896 221.667 82.9801C221.901 82.5744 221.988 82.1328 221.988 81.7H219.988ZM217.588 82.45C215.901 82.45 214.914 82.1767 214.361 81.7771C213.884 81.4323 213.588 80.8853 213.588 79.85H211.588C211.588 81.3147 212.041 82.5677 213.189 83.3979C214.262 84.1733 215.775 84.45 217.588 84.45V82.45ZM212.588 78.85H203.988V80.85H212.588V78.85ZM202.988 79.85C202.988 83.3171 204.239 86.0568 206.786 87.887C209.274 89.6752 212.869 90.5 217.388 90.5V88.5C213.057 88.5 209.952 87.6998 207.953 86.263C206.012 84.8682 204.988 82.7829 204.988 79.85H202.988Z" fill="#FF27A9"/>
<path d="M58.7 7.75L59.6912 7.88216L59.8422 6.75H58.7V7.75ZM49.65 7.75V6.75H48.7715L48.6583 7.62114L49.65 7.75ZM46.2 34.3L45.2083 34.1711L45.1945 34.2778L45.2036 34.385L46.2 34.3ZM46.75 40.75V41.75H47.8389L47.7464 40.665L46.75 40.75ZM44.5 40.75L43.5025 40.821L43.5687 41.75H44.5V40.75ZM42.15 7.75L43.1475 7.67897L43.0813 6.75H42.15V7.75ZM23.65 7.75V6.75H22.7201L22.6526 7.67746L23.65 7.75ZM21.25 40.75V41.75H22.1799L22.2474 40.8225L21.25 40.75ZM19.05 40.75L18.055 40.6505L17.945 41.75H19.05V40.75ZM19.7 34.25L20.695 34.3495L20.7068 34.2322L20.6909 34.1154L19.7 34.25ZM16.1 7.75L17.0909 7.61539L16.9733 6.75H16.1V7.75ZM7 7.75V6.75H5.85782L6.00877 7.88216L7 7.75ZM11.7 43L10.7088 43.1322L10.8245 44H11.7V43ZM29.4 43V44H30.3299L30.3974 43.0725L29.4 43ZM31.8 10V9H30.8701L30.8026 9.92746L31.8 10ZM34 10L34.9974 9.92746L34.9299 9H34V10ZM36.4 43L35.4026 43.0725L35.4701 44H36.4V43ZM54 43V44H54.8755L54.9912 43.1322L54 43ZM58.7 6.75H49.65V8.75H58.7V6.75ZM48.6583 7.62114L45.2083 34.1711L47.1917 34.4289L50.6417 7.87886L48.6583 7.62114ZM45.2036 34.385L45.7536 40.835L47.7464 40.665L47.1964 34.215L45.2036 34.385ZM46.75 39.75H44.5V41.75H46.75V39.75ZM45.4975 40.679L43.1475 7.67897L41.1525 7.82103L43.5025 40.821L45.4975 40.679ZM42.15 6.75H23.65V8.75H42.15V6.75ZM22.6526 7.67746L20.2526 40.6775L22.2474 40.8225L24.6474 7.82253L22.6526 7.67746ZM21.25 39.75H19.05V41.75H21.25V39.75ZM20.045 40.8495L20.695 34.3495L18.705 34.1505L18.055 40.6505L20.045 40.8495ZM20.6909 34.1154L17.0909 7.61539L15.1091 7.88461L18.7091 34.3846L20.6909 34.1154ZM16.1 6.75H7V8.75H16.1V6.75ZM6.00877 7.88216L10.7088 43.1322L12.6912 42.8678L7.99123 7.61783L6.00877 7.88216ZM11.7 44H29.4V42H11.7V44ZM30.3974 43.0725L32.7974 10.0725L30.8026 9.92746L28.4026 42.9275L30.3974 43.0725ZM31.8 11H34V9H31.8V11ZM33.0026 10.0725L35.4026 43.0725L37.3974 42.9275L34.9974 9.92746L33.0026 10.0725ZM36.4 44H54V42H36.4V44ZM54.9912 43.1322L59.6912 7.88216L57.7088 7.61783L53.0088 42.8678L54.9912 43.1322ZM58.5949 30.3C58.5949 35.0842 60.3119 38.6808 63.174 41.0624C66.009 43.4215 69.8592 44.5 73.9949 44.5V42.5C70.1806 42.5 66.8308 41.5035 64.4533 39.5251C62.1029 37.5692 60.5949 34.5658 60.5949 30.3H58.5949ZM73.9949 44.5C78.0831 44.5 81.9198 43.4203 84.7533 41.0624C87.6137 38.6822 89.3449 35.0867 89.3449 30.3H87.3449C87.3449 34.5633 85.8261 37.5678 83.474 39.5251C81.0951 41.5047 77.7568 42.5 73.9949 42.5V44.5ZM89.3449 30.3C89.3449 25.5597 87.6111 21.9894 84.7511 19.6233C81.9184 17.2796 78.083 16.2 73.9949 16.2V18.2C77.7568 18.2 81.0964 19.1954 83.4762 21.1642C85.8288 23.1106 87.3449 26.0903 87.3449 30.3H89.3449ZM73.9949 16.2C69.8593 16.2 66.0104 17.2784 63.1762 19.6233C60.3146 21.9908 58.5949 25.5622 58.5949 30.3H60.5949C60.5949 26.0878 62.1003 23.1092 64.4511 21.1642C66.8295 19.1966 70.1806 18.2 73.9949 18.2V16.2ZM69.1449 30.3C69.1449 28.6422 69.6567 27.5519 70.4249 26.8634C71.2108 26.1589 72.4047 25.75 73.9949 25.75V23.75C72.0852 23.75 70.354 24.2411 69.09 25.3741C67.8081 26.5231 67.1449 28.2078 67.1449 30.3H69.1449ZM73.9949 25.75C75.5286 25.75 76.6973 26.1555 77.4729 26.8593C78.2327 27.5487 78.7449 28.6419 78.7449 30.3H80.7449C80.7449 28.2081 80.0821 26.5263 78.8169 25.3782C77.5675 24.2445 75.8612 23.75 73.9949 23.75V25.75ZM78.7449 30.3C78.7449 31.9875 78.2297 33.1086 77.4655 33.8162C76.6886 34.5356 75.5219 34.95 73.9949 34.95V36.95C75.8679 36.95 77.5762 36.4394 78.8243 35.2838C80.0851 34.1164 80.7449 32.4125 80.7449 30.3H78.7449ZM73.9949 34.95C72.4112 34.95 71.2194 34.532 70.4323 33.8121C69.6598 33.1055 69.1449 31.9872 69.1449 30.3H67.1449C67.1449 32.4128 67.8051 34.1195 69.0825 35.2879C70.3454 36.443 72.0787 36.95 73.9949 36.95V34.95ZM91.952 43H90.952V44H91.952V43ZM100.552 43V44H101.552V43H100.552ZM100.552 25.25V24.25H99.552V25.25H100.552ZM113.352 25.25V26.25H114.352V25.25H113.352ZM113.352 17.7H114.352V16.7H113.352V17.7ZM90.952 22.05V43H92.952V22.05H90.952ZM91.952 44H100.552V42H91.952V44ZM101.552 43V25.25H99.552V43H101.552ZM100.552 26.25H113.352V24.25H100.552V26.25ZM114.352 25.25V17.7H112.352V25.25H114.352ZM113.352 16.7H96.402V18.7H113.352V16.7ZM96.402 16.7C94.8102 16.7 93.4132 17.1203 92.4131 18.0874C91.4074 19.0598 90.952 20.4406 90.952 22.05H92.952C92.952 20.8094 93.2965 20.0152 93.8033 19.5251C94.3157 19.0297 95.1437 18.7 96.402 18.7V16.7ZM116.264 43H115.264V44H116.264V43ZM124.814 43V44H125.814V43H124.814ZM124.814 33.3V32.3H123.814V33.3H124.814ZM126.814 33.3L127.603 32.6858L127.303 32.3H126.814V33.3ZM134.364 43L133.575 43.6142L133.875 44H134.364V43ZM144.664 43V44H146.776L145.437 42.3663L144.664 43ZM134.014 30L133.258 29.3454L132.706 29.9822L133.24 30.6337L134.014 30ZM144.664 17.7L145.42 18.3546L146.852 16.7H144.664V17.7ZM134.364 17.7V16.7H133.886L133.586 17.0711L134.364 17.7ZM127.164 26.6V27.6H127.641L127.941 27.2289L127.164 26.6ZM124.814 26.6H123.814V27.6H124.814V26.6ZM124.814 6.25H125.814V5.25H124.814V6.25ZM116.264 6.25V5.25H115.264V6.25H116.264ZM116.264 44H124.814V42H116.264V44ZM125.814 43V33.3H123.814V43H125.814ZM124.814 34.3H126.814V32.3H124.814V34.3ZM126.025 33.9142L133.575 43.6142L135.153 42.3858L127.603 32.6858L126.025 33.9142ZM134.364 44H144.664V42H134.364V44ZM145.437 42.3663L134.787 29.3663L133.24 30.6337L143.89 43.6337L145.437 42.3663ZM134.77 30.6546L145.42 18.3546L143.908 17.0454L133.258 29.3454L134.77 30.6546ZM144.664 16.7H134.364V18.7H144.664V16.7ZM133.586 17.0711L126.386 25.9711L127.941 27.2289L135.141 18.3289L133.586 17.0711ZM127.164 25.6H124.814V27.6H127.164V25.6ZM125.814 26.6V6.25H123.814V26.6H125.814ZM124.814 5.25H116.264V7.25H124.814V5.25ZM115.264 6.25V43H117.264V6.25H115.264ZM160.738 7.75V6.75H159.738V7.75H160.738ZM160.738 15.7H159.738V16.7H160.738V15.7ZM168.788 15.7H169.788V14.7H168.788V15.7ZM168.788 35V36H169.788V35H168.788ZM160.738 35V34H159.738V35H160.738ZM160.738 43H159.738V44H160.738V43ZM185.888 43V44H186.888V43H185.888ZM185.888 35H186.888V34H185.888V35ZM177.838 35H176.838V36H177.838V35ZM177.838 15.7V14.7H176.838V15.7H177.838ZM185.888 15.7V16.7H186.888V15.7H185.888ZM185.888 7.75H186.888V6.75H185.888V7.75ZM159.738 7.75V15.7H161.738V7.75H159.738ZM160.738 16.7H168.788V14.7H160.738V16.7ZM167.788 15.7V35H169.788V15.7H167.788ZM168.788 34H160.738V36H168.788V34ZM159.738 35V43H161.738V35H159.738ZM160.738 44H185.888V42H160.738V44ZM186.888 43V35H184.888V43H186.888ZM185.888 34H177.838V36H185.888V34ZM178.838 35V15.7H176.838V35H178.838ZM177.838 16.7H185.888V14.7H177.838V16.7ZM186.888 15.7V7.75H184.888V15.7H186.888ZM185.888 6.75H160.738V8.75H185.888V6.75ZM189.652 43H188.652V44H189.652V43ZM198.202 43V44H199.202V43H198.202ZM210.202 43H209.202V44H210.202V43ZM218.802 43V44H219.802V43H218.802ZM198.702 25.3V26.3H199.505L199.679 25.5169L198.702 25.3ZM196.602 25.3L195.655 24.9808L195.21 26.3H196.602V25.3ZM198.202 20.55L199.15 20.8692L199.202 20.7139V20.55H198.202ZM198.202 17.7H199.202V16.7H198.202V17.7ZM189.652 17.7V16.7H188.652V17.7H189.652ZM189.652 44H198.202V42H189.652V44ZM199.202 43V33.85H197.202V43H199.202ZM199.202 33.85C199.202 30.3705 199.89 28.3921 200.871 27.2804C201.822 26.2021 203.222 25.75 205.152 25.75V23.75C202.933 23.75 200.857 24.2729 199.371 25.9571C197.915 27.6079 197.202 30.1795 197.202 33.85H199.202ZM205.152 25.75C206.937 25.75 207.817 26.1402 208.322 26.7697C208.88 27.4644 209.202 28.7055 209.202 30.95H211.202C211.202 28.6445 210.9 26.7856 209.882 25.5178C208.812 24.1848 207.168 23.75 205.152 23.75V25.75ZM209.202 30.95V43H211.202V30.95H209.202ZM210.202 44H218.802V42H210.202V44ZM219.802 43V29.55H217.802V43H219.802ZM219.802 29.55C219.802 25.392 218.75 22.0404 216.71 19.7155C214.655 17.373 211.71 16.2 208.202 16.2V18.2C211.245 18.2 213.599 19.202 215.207 21.0345C216.83 22.8846 217.802 25.708 217.802 29.55H219.802ZM208.202 16.2C205.263 16.2 202.891 17.1871 201.122 18.8297C199.367 20.4591 198.26 22.6811 197.726 25.0831L199.679 25.5169C200.145 23.4189 201.088 21.5909 202.483 20.2953C203.864 19.0129 205.742 18.2 208.202 18.2V16.2ZM198.702 24.3H196.602V26.3H198.702V24.3ZM197.55 25.6192L199.15 20.8692L197.255 20.2308L195.655 24.9808L197.55 25.6192ZM199.202 20.55V17.7H197.202V20.55H199.202ZM198.202 16.7H189.652V18.7H198.202V16.7ZM188.652 17.7V43H190.652V17.7H188.652ZM8.85 94H7.85V95H8.85V94ZM17.95 94V95H18.95V94H17.95ZM17.95 84.35V83.35H16.95V84.35H17.95ZM8.85 58.75V57.75H7.85V58.75H8.85ZM17.95 76.4H16.95V77.4H17.95V76.4ZM17.95 66.7V65.7H16.95V66.7H17.95ZM8.85 95H17.95V93H8.85V95ZM18.95 94V84.35H16.95V94H18.95ZM17.95 85.35H22.75V83.35H17.95V85.35ZM22.75 85.35C28.3457 85.35 32.6139 84.4215 35.4882 82.1538C38.4194 79.8412 39.7 76.3041 39.7 71.6H37.7C37.7 75.9459 36.5306 78.7838 34.2494 80.5837C31.9111 82.4285 28.2044 83.35 22.75 83.35V85.35ZM39.7 71.6C39.7 66.8493 38.4214 63.287 35.4905 60.9605C32.6153 58.6783 28.3453 57.75 22.75 57.75V59.75C28.2047 59.75 31.9097 60.6717 34.247 62.527C36.5286 64.338 37.7 67.2006 37.7 71.6H39.7ZM22.75 57.75H8.85V59.75H22.75V57.75ZM7.85 58.75V94H9.85V58.75H7.85ZM18.95 76.4V66.7H16.95V76.4H18.95ZM17.95 67.7H23.3V65.7H17.95V67.7ZM23.3 67.7C25.4623 67.7 26.7684 68.0065 27.5328 68.5683C28.2152 69.0698 28.65 69.9217 28.65 71.6H30.65C30.65 69.5783 30.1098 67.9802 28.7172 66.9567C27.4066 65.9935 25.5377 65.7 23.3 65.7V67.7ZM28.65 71.6C28.65 73.219 28.2208 74.0468 27.5392 74.5396C26.7722 75.094 25.4612 75.4 23.3 75.4V77.4C25.5388 77.4 27.4028 77.106 28.7108 76.1604C30.1042 75.1532 30.65 73.581 30.65 71.6H28.65ZM23.3 75.4H17.95V77.4H23.3V75.4ZM41.9031 94H40.9031V95H41.9031V94ZM50.5031 94V95H51.5031V94H50.5031ZM50.5031 76.25V75.25H49.5031V76.25H50.5031ZM63.3031 76.25V77.25H64.3031V76.25H63.3031ZM63.3031 68.7H64.3031V67.7H63.3031V68.7ZM40.9031 73.05V94H42.9031V73.05H40.9031ZM41.9031 95H50.5031V93H41.9031V95ZM51.5031 94V76.25H49.5031V94H51.5031ZM50.5031 77.25H63.3031V75.25H50.5031V77.25ZM64.3031 76.25V68.7H62.3031V76.25H64.3031ZM63.3031 67.7H46.3531V69.7H63.3031V67.7ZM46.3531 67.7C44.7614 67.7 43.3644 68.1203 42.3643 69.0874C41.3586 70.0598 40.9031 71.4406 40.9031 73.05H42.9031C42.9031 71.8094 43.2477 71.0152 43.7545 70.5251C44.2669 70.0297 45.0949 69.7 46.3531 69.7V67.7ZM63.1848 81.3C63.1848 86.0842 64.9018 89.6808 67.7639 92.0624C70.5989 94.4215 74.4491 95.5 78.5848 95.5V93.5C74.7704 93.5 71.4207 92.5035 69.0432 90.5251C66.6928 88.5692 65.1848 85.5658 65.1848 81.3H63.1848ZM78.5848 95.5C82.6729 95.5 86.5096 94.4203 89.3432 92.0624C92.2036 89.6822 93.9348 86.0867 93.9348 81.3H91.9348C91.9348 85.5633 90.4159 88.5678 88.0639 90.5251C85.6849 92.5047 82.3466 93.5 78.5848 93.5V95.5ZM93.9348 81.3C93.9348 76.5597 92.2009 72.9894 89.341 70.6233C86.5083 68.2796 82.6729 67.2 78.5848 67.2V69.2C82.3466 69.2 85.6863 70.1954 88.0661 72.1642C90.4186 74.1106 91.9348 77.0903 91.9348 81.3H93.9348ZM78.5848 67.2C74.4491 67.2 70.6002 68.2784 67.7661 70.6233C64.9044 72.9908 63.1848 76.5622 63.1848 81.3H65.1848C65.1848 77.0878 66.6901 74.1092 69.041 72.1642C71.4193 70.1966 74.7704 69.2 78.5848 69.2V67.2ZM73.7348 81.3C73.7348 79.6422 74.2466 78.5519 75.0147 77.8634C75.8007 77.1589 76.9945 76.75 78.5848 76.75V74.75C76.675 74.75 74.9439 75.2411 73.6798 76.3741C72.3979 77.5231 71.7348 79.2078 71.7348 81.3H73.7348ZM78.5848 76.75C80.1185 76.75 81.2872 77.1555 82.0628 77.8593C82.8226 78.5487 83.3348 79.6419 83.3348 81.3H85.3348C85.3348 79.2081 84.672 77.5263 83.4068 76.3782C82.1574 75.2445 80.4511 74.75 78.5848 74.75V76.75ZM83.3348 81.3C83.3348 82.9875 82.8196 84.1086 82.0554 84.8162C81.2785 85.5356 80.1118 85.95 78.5848 85.95V87.95C80.4578 87.95 82.1661 87.4394 83.4142 86.2838C84.675 85.1164 85.3348 83.4125 85.3348 81.3H83.3348ZM78.5848 85.95C77.001 85.95 75.8093 85.532 75.0222 84.8121C74.2496 84.1055 73.7348 82.9872 73.7348 81.3H71.7348C71.7348 83.4128 72.3949 85.1195 73.6724 86.2879C74.9352 87.443 76.6685 87.95 78.5848 87.95V85.95ZM116.482 88V87H115.802L115.552 87.6335L116.482 88ZM118.632 88L119.578 88.3251L120.034 87H118.632V88ZM116.982 92.8L116.037 92.4749L115.982 92.6329V92.8H116.982ZM116.982 97V98H117.982V97H116.982ZM99.5324 97V96H98.5324V97H99.5324ZM99.5324 104.55H98.5324V105.55H99.5324V104.55ZM125.532 68.7H126.532V67.7H125.532V68.7ZM116.982 68.7V67.7H115.982V68.7H116.982ZM116.982 69.9H115.982V70.0687L116.038 70.2281L116.982 69.9ZM118.632 74.65V75.65H120.038L119.577 74.3219L118.632 74.65ZM116.482 74.65L115.554 75.0214L115.805 75.65H116.482V74.65ZM106.632 95.5C109.961 95.5 112.333 94.6503 114.058 93.2677C115.766 91.8984 116.735 90.0884 117.413 88.3665L115.552 87.6335C114.93 89.2116 114.124 90.6516 112.807 91.7073C111.507 92.7497 109.604 93.5 106.632 93.5V95.5ZM116.482 89H118.632V87H116.482V89ZM117.687 87.6749L116.037 92.4749L117.928 93.1251L119.578 88.3251L117.687 87.6749ZM115.982 92.8V97H117.982V92.8H115.982ZM116.982 96H99.5324V98H116.982V96ZM98.5324 97V104.55H100.532V97H98.5324ZM99.5324 105.55H121.132V103.55H99.5324V105.55ZM121.132 105.55C122.686 105.55 124.075 105.161 125.074 104.203C126.082 103.238 126.532 101.851 126.532 100.2H124.532C124.532 101.499 124.183 102.287 123.691 102.759C123.19 103.239 122.378 103.55 121.132 103.55V105.55ZM126.532 100.2V68.7H124.532V100.2H126.532ZM125.532 67.7H116.982V69.7H125.532V67.7ZM115.982 68.7V69.9H117.982V68.7H115.982ZM116.038 70.2281L117.688 74.9781L119.577 74.3219L117.927 69.5719L116.038 70.2281ZM118.632 73.65H116.482V75.65H118.632V73.65ZM117.411 74.2786C116.732 72.5822 115.763 70.7861 114.056 69.4244C112.332 68.0497 109.961 67.2 106.632 67.2V69.2C109.604 69.2 111.508 69.9503 112.809 70.9881C114.126 72.0388 114.933 73.4678 115.554 75.0214L117.411 74.2786ZM106.632 67.2C102.623 67.2 99.6002 68.8561 97.6082 71.5052C95.6424 74.1194 94.7324 77.6257 94.7324 81.3H96.7324C96.7324 77.9243 97.5724 74.8806 99.2067 72.7073C100.815 70.5689 103.242 69.2 106.632 69.2V67.2ZM94.7324 81.3C94.7324 84.9979 95.6417 88.528 97.6059 91.1605C99.5966 93.8286 102.62 95.5 106.632 95.5V93.5C103.245 93.5 100.818 92.1214 99.2089 89.9645C97.5731 87.772 96.7324 84.7021 96.7324 81.3H94.7324ZM105.282 81.3C105.282 79.5388 105.772 78.4798 106.549 77.8293C107.363 77.1477 108.684 76.75 110.682 76.75V74.75C108.481 74.75 106.601 75.1773 105.265 76.2957C103.893 77.4452 103.282 79.1612 103.282 81.3H105.282ZM110.682 76.75C112.682 76.75 113.971 77.1481 114.757 77.8218C115.509 78.467 115.982 79.5251 115.982 81.3H117.982C117.982 79.1749 117.405 77.458 116.058 76.3032C114.744 75.1769 112.883 74.75 110.682 74.75V76.75ZM115.982 81.3C115.982 83.1324 115.505 84.2152 114.751 84.8702C113.967 85.5517 112.682 85.95 110.682 85.95V87.95C112.883 87.95 114.748 87.5233 116.063 86.3798C117.41 85.2098 117.982 83.4676 117.982 81.3H115.982ZM110.682 85.95C108.69 85.95 107.372 85.5421 106.557 84.8461C105.775 84.1776 105.282 83.0903 105.282 81.3H103.282C103.282 83.4597 103.89 85.1974 105.258 86.3664C106.593 87.5079 108.475 87.95 110.682 87.95V85.95ZM129.598 94H128.598V95H129.598V94ZM138.198 94V95H139.198V94H138.198ZM138.198 76.25V75.25H137.198V76.25H138.198ZM150.998 76.25V77.25H151.998V76.25H150.998ZM150.998 68.7H151.998V67.7H150.998V68.7ZM128.598 73.05V94H130.598V73.05H128.598ZM129.598 95H138.198V93H129.598V95ZM139.198 94V76.25H137.198V94H139.198ZM138.198 77.25H150.998V75.25H138.198V77.25ZM151.998 76.25V68.7H149.998V76.25H151.998ZM150.998 67.7H134.048V69.7H150.998V67.7ZM134.048 67.7C132.457 67.7 131.06 68.1203 130.06 69.0874C129.054 70.0598 128.598 71.4406 128.598 73.05H130.598C130.598 71.8094 130.943 71.0152 131.45 70.5251C131.962 70.0297 132.79 69.7 134.048 69.7V67.7ZM179.229 85.05L180.221 85.174L180.362 84.05H179.229V85.05ZM170.729 85.05V84.05H169.953L169.76 84.8016L170.729 85.05ZM160.529 83.15V82.15H159.429L159.533 83.2448L160.529 83.15ZM179.179 83.15V84.15H180.179V83.15H179.179ZM160.529 78.75L159.531 78.6788L159.455 79.75H160.529V78.75ZM170.829 78.75V79.75H171.922L171.825 78.6611L170.829 78.75ZM150.929 81.25C150.929 85.4295 152.336 89.0149 154.951 91.5548C157.564 94.0928 161.293 95.5 165.779 95.5V93.5C161.715 93.5 158.519 92.2322 156.344 90.1202C154.172 88.0101 152.929 84.9705 152.929 81.25H150.929ZM165.779 95.5C169.838 95.5 173.244 94.4984 175.752 92.6854C178.274 90.8628 179.836 88.2533 180.221 85.174L178.237 84.926C177.922 87.4467 176.659 89.5622 174.581 91.0646C172.489 92.5766 169.52 93.5 165.779 93.5V95.5ZM179.229 84.05H170.729V86.05H179.229V84.05ZM169.76 84.8016C169.42 86.1295 168.189 87.05 165.779 87.05V89.05C168.669 89.05 171.038 87.8705 171.698 85.2984L169.76 84.8016ZM165.779 87.05C164.419 87.05 163.448 86.6701 162.788 86.0514C162.123 85.429 161.658 84.4571 161.524 83.0552L159.533 83.2448C159.7 84.9929 160.31 86.471 161.42 87.5111C162.535 88.5549 164.038 89.05 165.779 89.05V87.05ZM160.529 84.15H179.179V82.15H160.529V84.15ZM180.179 83.15V80.9H178.179V83.15H180.179ZM180.179 80.9C180.179 76.707 178.841 73.243 176.239 70.8349C173.648 68.4363 169.928 67.2 165.379 67.2V69.2C169.58 69.2 172.759 70.3387 174.881 72.3026C176.992 74.257 178.179 77.143 178.179 80.9H180.179ZM165.379 67.2C161.247 67.2 157.623 68.4921 155.024 70.9409C152.418 73.397 150.929 76.9355 150.929 81.25H152.929C152.929 77.4145 154.24 74.428 156.396 72.3966C158.559 70.3579 161.661 69.2 165.379 69.2V67.2ZM161.526 78.8212C161.61 77.6504 162.046 76.8304 162.689 76.2919C163.346 75.7422 164.323 75.4 165.629 75.4V73.4C163.985 73.4 162.512 73.8328 161.406 74.7581C160.287 75.6946 159.648 77.0496 159.531 78.6788L161.526 78.8212ZM165.629 75.4C166.962 75.4 167.954 75.7437 168.624 76.2963C169.281 76.8384 169.728 77.6632 169.833 78.8389L171.825 78.6611C171.68 77.0368 171.027 75.6866 169.897 74.7537C168.779 73.8313 167.295 73.4 165.629 73.4V75.4ZM170.829 77.75H160.529V79.75H170.829V77.75ZM199.563 79.1L199.332 80.073L199.335 80.0736L199.563 79.1ZM193.663 77.7L193.42 78.6702L193.432 78.673L193.663 77.7ZM198.513 77.45H197.513V78.45H198.513V77.45ZM207.063 77.45V78.45H208.063V77.45H207.063ZM189.013 82.8L189.274 81.8346L189.264 81.832L189.013 82.8ZM196.963 84.95L196.702 85.9153L196.703 85.9156L196.963 84.95ZM190.463 84.85H191.463V83.85H190.463V84.85ZM181.863 84.85V83.85H180.863V84.85H181.863ZM195.263 95.5C199.469 95.5 202.745 94.8041 204.998 93.3533C207.32 91.8577 208.463 89.6182 208.463 86.85H206.463C206.463 88.9818 205.63 90.5673 203.915 91.6717C202.131 92.8209 199.306 93.5 195.263 93.5V95.5ZM208.463 86.85C208.463 84.1135 207.357 82.1353 205.668 80.7413C204.025 79.3844 201.874 78.6149 199.791 78.1264L199.335 80.0736C201.302 80.5351 203.101 81.2156 204.395 82.2837C205.644 83.3147 206.463 84.7365 206.463 86.85H208.463ZM199.794 78.127L193.894 76.727L193.432 78.673L199.332 80.073L199.794 78.127ZM193.905 76.7299C193.155 76.5424 192.677 76.3314 192.405 76.1318C192.165 75.9554 192.163 75.8528 192.163 75.8H190.163C190.163 76.6472 190.61 77.2946 191.221 77.7431C191.799 78.1685 192.57 78.4576 193.42 78.6701L193.905 76.7299ZM192.163 75.8C192.163 75.7175 192.163 75.627 192.419 75.4964C192.737 75.3334 193.326 75.2 194.263 75.2V73.2C193.2 73.2 192.239 73.3416 191.507 73.7161C190.712 74.123 190.163 74.8325 190.163 75.8H192.163ZM194.263 75.2C195.654 75.2 196.448 75.4543 196.882 75.7905C197.26 76.0834 197.513 76.5562 197.513 77.45H199.513C199.513 76.1438 199.116 74.9916 198.107 74.2095C197.153 73.4707 195.822 73.2 194.263 73.2V75.2ZM198.513 78.45H207.063V76.45H198.513V78.45ZM208.063 77.45C208.063 74.0651 206.679 71.4377 204.17 69.6971C201.713 67.9925 198.271 67.2 194.213 67.2V69.2C198.055 69.2 201.037 69.9575 203.03 71.3404C204.972 72.6873 206.063 74.6849 206.063 77.45H208.063ZM194.213 67.2C190.493 67.2 187.377 67.863 185.159 69.2676C182.884 70.7083 181.613 72.8978 181.613 75.7H183.613C183.613 73.6022 184.517 72.0417 186.229 70.9574C187.998 69.837 190.683 69.2 194.213 69.2V67.2ZM181.613 75.7C181.613 78.2647 182.683 80.1274 184.135 81.4216C185.558 82.6897 187.324 83.3952 188.762 83.768L189.264 81.832C188.002 81.5048 186.568 80.9103 185.466 79.9284C184.393 78.9726 183.613 77.6353 183.613 75.7H181.613ZM188.752 83.7653L196.702 85.9153L197.224 83.9847L189.274 81.8347L188.752 83.7653ZM196.703 85.9156C197.284 86.072 197.581 86.2426 197.723 86.3734C197.825 86.4673 197.863 86.5483 197.863 86.7H199.863C199.863 86.0017 199.6 85.3827 199.077 84.9016C198.595 84.4574 197.942 84.178 197.223 83.9844L196.703 85.9156ZM197.863 86.7C197.863 86.8672 197.831 86.9444 197.81 86.9793C197.792 87.0104 197.749 87.0697 197.614 87.141C197.298 87.3082 196.657 87.45 195.463 87.45V89.45C196.719 89.45 197.778 89.3168 198.549 88.909C198.958 88.6928 199.305 88.3896 199.542 87.9801C199.776 87.5744 199.863 87.1328 199.863 86.7H197.863ZM195.463 87.45C193.776 87.45 192.789 87.1767 192.236 86.7771C191.759 86.4323 191.463 85.8853 191.463 84.85H189.463C189.463 86.3147 189.916 87.5677 191.064 88.3979C192.137 89.1733 193.65 89.45 195.463 89.45V87.45ZM190.463 83.85H181.863V85.85H190.463V83.85ZM180.863 84.85C180.863 88.3171 182.114 91.0568 184.661 92.887C187.149 94.6752 190.744 95.5 195.263 95.5V93.5C190.932 93.5 187.827 92.6998 185.828 91.263C183.887 89.8682 182.863 87.7829 182.863 84.85H180.863ZM227.688 79.1L227.457 80.073L227.46 80.0736L227.688 79.1ZM221.788 77.7L221.545 78.6702L221.557 78.673L221.788 77.7ZM226.638 77.45H225.638V78.45H226.638V77.45ZM235.188 77.45V78.45H236.188V77.45H235.188ZM217.138 82.8L217.399 81.8346L217.389 81.832L217.138 82.8ZM225.088 84.95L224.827 85.9153L224.828 85.9156L225.088 84.95ZM218.588 84.85H219.588V83.85H218.588V84.85ZM209.988 84.85V83.85H208.988V84.85H209.988ZM223.388 95.5C227.594 95.5 230.87 94.8041 233.123 93.3533C235.445 91.8577 236.588 89.6182 236.588 86.85H234.588C234.588 88.9818 233.755 90.5673 232.04 91.6717C230.256 92.8209 227.431 93.5 223.388 93.5V95.5ZM236.588 86.85C236.588 84.1135 235.482 82.1353 233.793 80.7413C232.15 79.3844 229.999 78.6149 227.916 78.1264L227.46 80.0736C229.427 80.5351 231.226 81.2156 232.52 82.2837C233.769 83.3147 234.588 84.7365 234.588 86.85H236.588ZM227.919 78.127L222.019 76.727L221.557 78.673L227.457 80.073L227.919 78.127ZM222.03 76.7299C221.28 76.5424 220.802 76.3314 220.53 76.1318C220.29 75.9554 220.288 75.8528 220.288 75.8H218.288C218.288 76.6472 218.735 77.2946 219.346 77.7431C219.924 78.1685 220.695 78.4576 221.545 78.6701L222.03 76.7299ZM220.288 75.8C220.288 75.7175 220.288 75.627 220.544 75.4964C220.862 75.3334 221.451 75.2 222.388 75.2V73.2C221.325 73.2 220.364 73.3416 219.632 73.7161C218.837 74.123 218.288 74.8325 218.288 75.8H220.288ZM222.388 75.2C223.779 75.2 224.573 75.4543 225.007 75.7905C225.385 76.0834 225.638 76.5562 225.638 77.45H227.638C227.638 76.1438 227.241 74.9916 226.232 74.2095C225.278 73.4707 223.947 73.2 222.388 73.2V75.2ZM226.638 78.45H235.188V76.45H226.638V78.45ZM236.188 77.45C236.188 74.0651 234.804 71.4377 232.295 69.6971C229.838 67.9925 226.396 67.2 222.338 67.2V69.2C226.18 69.2 229.162 69.9575 231.155 71.3404C233.097 72.6873 234.188 74.6849 234.188 77.45H236.188ZM222.338 67.2C218.618 67.2 215.502 67.863 213.284 69.2676C211.009 70.7083 209.738 72.8978 209.738 75.7H211.738C211.738 73.6022 212.642 72.0417 214.354 70.9574C216.123 69.837 218.808 69.2 222.338 69.2V67.2ZM209.738 75.7C209.738 78.2647 210.808 80.1274 212.26 81.4216C213.683 82.6897 215.449 83.3952 216.887 83.768L217.389 81.832C216.127 81.5048 214.693 80.9103 213.591 79.9284C212.518 78.9726 211.738 77.6353 211.738 75.7H209.738ZM216.877 83.7653L224.827 85.9153L225.349 83.9847L217.399 81.8347L216.877 83.7653ZM224.828 85.9156C225.409 86.072 225.706 86.2426 225.848 86.3734C225.95 86.4673 225.988 86.5483 225.988 86.7H227.988C227.988 86.0017 227.725 85.3827 227.202 84.9016C226.72 84.4574 226.067 84.178 225.348 83.9844L224.828 85.9156ZM225.988 86.7C225.988 86.8672 225.956 86.9444 225.935 86.9793C225.917 87.0104 225.874 87.0697 225.739 87.141C225.423 87.3082 224.782 87.45 223.588 87.45V89.45C224.844 89.45 225.903 89.3168 226.674 88.909C227.083 88.6928 227.43 88.3896 227.667 87.9801C227.901 87.5744 227.988 87.1328 227.988 86.7H225.988ZM223.588 87.45C221.901 87.45 220.914 87.1767 220.361 86.7771C219.884 86.4323 219.588 85.8853 219.588 84.85H217.588C217.588 86.3147 218.041 87.5677 219.189 88.3979C220.262 89.1733 221.775 89.45 223.588 89.45V87.45ZM218.588 83.85H209.988V85.85H218.588V83.85ZM208.988 84.85C208.988 88.3171 210.239 91.0568 212.786 92.887C215.274 94.6752 218.869 95.5 223.388 95.5V93.5C219.057 93.5 215.952 92.6998 213.953 91.263C212.012 89.8682 210.988 87.7829 210.988 84.85H208.988Z" fill="white"/>
</svg>
